<svg width="1582" height="1270" viewBox="0 0 1582 1270" fill="none" xmlns="http://www.w3.org/2000/svg">
<path d="M1165.4 9.55423C1145.49 27.4209 1137.14 47.0209 1137.14 75.9542C1137.14 94.2209 1140.67 107.821 1148.54 120.088C1153.84 128.488 1175.84 149.688 1190.45 160.754C1200.41 168.354 1225.62 179.554 1260.8 192.088C1311.06 209.954 1334.19 220.221 1354.74 233.554C1393.77 258.888 1415.61 280.754 1427.01 305.288C1430.07 312.088 1432.63 318.621 1432.63 319.821C1432.63 321.154 1431.19 325.421 1429.26 329.421C1425.57 337.421 1419.14 360.488 1417.38 372.088C1412.56 403.421 1398.59 436.088 1371.61 479.554C1352.98 509.554 1345.43 519.288 1337.24 524.088C1331.3 527.421 1301.27 554.088 1295 561.421C1293.72 562.888 1286.17 568.488 1277.98 573.954C1269.79 579.288 1256.94 588.621 1249.39 594.621C1233.65 606.754 1233.49 606.888 1177.28 623.554C1143.56 633.688 1123.32 637.688 1098.59 639.421C1081.41 640.621 1075.14 642.354 1056.03 651.421C1032.27 662.488 1024.88 664.488 1007.05 664.621C987.78 664.754 974.772 661.288 958.551 651.688C943.294 642.488 929.965 629.554 905.875 599.954C881.464 569.954 874.88 563.554 844.045 538.088C830.716 527.021 808.714 508.221 795.063 496.221C759.571 465.021 739.978 453.554 713.319 448.621C676.221 441.688 627.881 457.554 574.242 493.954C567.175 498.754 555.612 506.621 548.546 511.421C535.217 520.488 514.178 529.821 496.352 534.754C481.898 538.754 452.991 539.821 438.376 536.888C431.471 535.554 413.163 528.888 387.788 518.354C338.806 498.088 284.845 477.154 273.603 474.088C268.143 472.754 259.471 471.821 249.032 471.821C233.775 471.688 232.491 471.821 221.409 476.488C201.174 484.754 175.8 506.621 153.155 534.754C143.038 547.421 139.505 552.888 117.342 588.754C85.7045 639.821 73.4991 656.621 53.9062 675.154C39.4525 688.888 27.4077 697.821 14.0781 704.354C8.61777 707.154 2.99686 709.954 1.71208 710.621C0.427305 711.288 -0.215084 712.221 0.427305 712.754C2.19388 714.221 18.7354 706.088 30.9408 697.821C41.3796 690.754 58.2424 676.088 68.6812 664.754C79.12 653.421 95.8221 629.154 119.43 591.021C145.126 549.688 155.886 534.621 172.748 516.754C187.523 500.888 210.007 483.821 222.533 478.621C232.33 474.621 234.257 474.354 248.871 474.354C259.471 474.488 267.661 475.288 273.443 476.754C283.882 479.688 352.617 506.354 395.176 524.221C430.186 538.754 440.143 541.421 461.824 541.421C483.986 541.421 503.739 536.888 526.705 526.621C539.874 520.754 542.925 518.888 571.03 499.554C629.166 459.554 675.9 443.821 714.443 451.421C739.175 456.221 758.768 468.221 795.705 500.888C809.838 513.288 832 532.088 844.848 542.754C873.595 566.221 879.537 572.221 902.342 600.488C912.139 612.621 924.665 627.154 930.125 632.754C962.406 666.088 1004.64 676.488 1042.22 660.488C1048.97 657.554 1060.21 652.621 1067.44 649.554C1078.2 644.754 1082.53 643.688 1094.42 642.488C1102.13 641.821 1109.83 641.421 1111.6 641.688C1113.21 641.954 1104.69 645.288 1092.49 649.288C1080.44 653.154 1062.94 659.288 1053.62 662.754C1029.7 671.688 1026.16 672.488 1006.25 672.488C985.692 672.621 967.545 669.021 955.5 662.754C944.097 656.621 925.789 639.954 905.554 617.421C880.18 589.154 874.077 583.421 853.521 568.488C843.724 561.288 828.628 549.154 819.956 541.421C753.147 482.221 726.97 468.754 684.572 471.154C649.562 473.154 613.909 487.954 562.357 521.821C534.895 539.821 519.478 546.221 496.031 549.421C470.335 552.888 445.603 549.821 408.023 538.754C396.139 535.288 357.917 524.488 323.389 514.888C254.011 495.688 252.244 495.421 234.418 500.621C212.416 507.021 188.969 522.621 168.573 544.621C155.404 558.621 146.732 571.288 132.599 598.088C106.1 647.821 86.8287 675.954 64.9874 697.421C47.9641 714.221 25.8017 729.288 8.45717 735.954C0.106111 739.154 -3.10584 742.488 3.79985 740.621C26.4441 734.888 62.7391 707.154 86.8287 677.288C101.764 658.754 112.845 640.888 135.168 599.688C151.389 569.554 163.915 552.221 179.975 536.754C202.619 515.288 232.33 500.221 252.244 500.088C258.828 500.088 267.501 501.954 286.772 507.554C300.905 511.688 331.579 520.354 355.026 526.754C378.473 533.154 406.096 540.888 416.374 543.954C441.106 551.154 461.824 553.954 482.701 552.888C514.178 551.421 532.486 544.888 565.409 523.421C619.209 487.954 655.825 473.554 691.478 473.421C707.056 473.421 719.101 475.821 733.554 481.954C752.505 489.821 764.228 498.221 807.911 534.621C831.358 554.088 857.054 575.154 864.923 581.421C874.398 588.754 886.925 600.888 900.415 616.088C911.978 628.888 926.271 643.821 932.213 649.154C938.316 654.354 942.491 658.754 941.688 658.754C937.995 658.754 919.205 644.088 898.809 625.421C886.604 614.088 868.777 598.754 859.463 591.421C850.148 584.088 831.358 568.621 817.547 557.154C773.222 519.954 748.49 503.554 724.561 495.554C712.837 491.554 711.552 491.421 688.266 491.421C665.3 491.421 663.534 491.688 649.401 495.688C641.211 498.088 629.005 502.354 622.1 505.288C607.325 511.421 576.329 528.221 558.182 540.088C535.056 555.021 518.514 560.088 492.337 560.088C472.423 560.088 453.794 557.288 421.192 549.421C392.927 542.621 380.401 540.354 335.755 534.088C322.104 532.088 300.102 528.488 286.772 525.821C258.828 520.354 249.193 520.354 229.439 525.954C205.51 532.621 187.041 544.221 168.733 564.354C153.958 580.621 144.483 594.754 116.057 642.754C99.0341 671.554 86.1863 691.421 77.6746 702.088C57.2788 727.421 33.8316 744.088 9.58136 750.354C4.44224 751.688 0.106111 753.154 0.106111 753.688C0.106111 756.354 9.58135 754.088 24.5169 747.821C38.4889 741.954 43.3068 739.021 55.5122 728.754C78.317 709.954 90.683 693.154 122.802 637.421C152.352 586.088 168.091 565.421 191.538 547.421C209.364 533.821 236.505 524.088 256.901 524.088C261.398 524.088 275.049 526.088 287.254 528.621C299.299 531.154 322.586 535.154 338.967 537.421C374.298 542.354 399.03 546.488 403.687 548.221C407.542 549.554 404.169 549.288 387.949 546.621C383.613 545.954 357.917 544.754 330.937 544.221C303.956 543.554 279.546 542.354 276.494 541.554C273.443 540.754 262.522 540.088 252.244 539.954C229.6 539.688 226.067 540.754 204.386 554.754C172.588 575.288 155.886 594.488 116.057 656.754C89.0771 699.154 72.2143 719.954 48.4459 740.354C29.0136 757.154 23.5533 760.221 10.7055 762.088C5.24523 762.888 0.909097 764.221 0.427305 765.288C-0.0544868 766.621 0.909097 766.888 5.08463 766.221C9.74195 765.421 10.2237 765.554 7.81478 767.021C6.36941 767.954 3.79985 769.421 2.19388 770.221C0.587903 771.154 -0.215084 772.221 0.427305 772.754C1.06969 773.288 6.53 771.288 12.4721 768.354C18.4142 765.288 28.2106 761.421 33.9922 759.688C54.7092 753.554 69.8054 743.954 82.9744 728.754C86.6681 724.221 100.319 704.488 113.006 684.754C148.498 629.421 160.061 615.288 186.56 594.088C212.576 573.288 230.563 567.421 270.713 566.221C287.415 565.821 305.723 564.354 322.907 561.954C357.596 557.288 382.007 557.021 402.403 561.154C410.272 562.888 431.631 568.354 449.779 573.421C488.643 584.354 500.046 586.754 514.178 586.754C529.756 586.754 539.553 583.688 558.664 572.888C591.426 554.488 617.924 542.888 642.977 535.821C663.694 530.088 687.302 529.154 706.735 533.288C733.233 539.021 758.126 551.554 795.866 577.954C806.465 585.421 819.795 594.354 825.577 597.954C831.358 601.554 843.563 610.621 852.878 618.088C893.83 651.154 928.841 669.554 969.311 679.421C988.744 684.221 1019.58 685.421 1038.53 682.221C1053.14 679.821 1057.96 679.554 1052.02 681.688C1040.94 685.421 1029.05 686.888 1010.26 686.888C979.429 687.021 962.566 683.954 931.571 673.021C911.978 666.088 894.955 657.688 871.507 643.421C861.069 637.154 848.06 629.554 842.76 626.488C837.3 623.421 822.043 613.554 809.035 604.488C796.027 595.421 779.806 584.621 773.222 580.621C728.897 553.421 688.587 543.288 651.65 550.221C624.99 555.288 582.272 572.221 553.685 589.154C542.925 595.554 531.844 598.754 519.96 598.754C508.718 598.754 496.191 595.288 453.794 580.888C396.3 561.421 369.801 559.154 325.316 570.088C314.716 572.621 297.693 576.888 287.415 579.288C277.297 581.821 263.486 584.221 256.901 584.754C222.373 587.288 204.868 594.888 176.442 619.954C155.243 638.621 146.25 649.954 106.1 707.421C75.4263 751.554 49.0883 776.888 13.4357 797.021C6.04821 801.154 0.106111 805.021 0.106111 805.688C0.106111 809.021 28.853 792.221 44.7522 779.554C71.8931 757.954 86.8287 740.888 117.182 697.021C150.907 648.221 162.309 634.754 186.078 615.821C211.934 595.154 225.585 589.688 258.668 587.021C270.873 585.954 282.918 583.688 302.029 578.754C342.5 568.354 353.581 566.354 371.889 566.354C394.694 566.354 415.411 570.888 459.415 585.688C501.009 599.554 507.915 601.421 521.405 601.421C534.414 601.421 539.071 599.954 558.985 589.421C590.462 572.754 611.982 563.688 639.765 555.688C653.416 551.821 655.986 551.421 675.418 551.421C694.85 551.421 697.42 551.821 711.713 555.821C738.854 563.688 763.747 576.621 799.399 601.554C823.649 618.621 841.476 629.688 882.589 653.154C915.19 671.821 959.354 687.154 984.086 688.354C988.744 688.621 992.598 689.288 992.598 689.954C992.598 691.688 964.975 689.688 950.361 686.754C931.41 683.021 913.584 677.288 891.421 667.688C878.092 661.821 875.683 660.488 824.774 630.088C762.783 593.021 756.68 589.688 735.16 580.754C723.437 575.954 708.18 570.754 701.114 569.288C683.93 565.421 657.592 565.288 641.693 568.621C621.618 573.021 589.338 585.688 557.058 601.688C527.187 616.488 522.69 616.221 473.868 595.688C428.259 576.488 400.636 569.421 371.889 569.421C346.996 569.421 331.258 573.554 286.13 591.954C271.355 597.954 258.507 602.088 250.799 603.554C233.454 606.754 217.394 612.354 201.174 620.754C182.866 630.354 175.318 635.821 166.646 645.154C152.995 659.954 111.079 714.354 98.0705 734.088C79.2806 762.621 65.148 781.954 55.0304 793.154C40.5766 809.288 21.4656 824.221 6.8512 830.754C0.7485 833.554 -1.82106 836.088 1.39089 836.088C5.40582 836.088 21.6262 826.354 33.3498 817.021C54.8698 799.954 73.9809 777.154 96.4645 742.088C101.122 734.754 108.67 723.688 113.006 717.421C127.62 697.154 168.894 646.221 175.8 640.221C183.83 633.154 207.437 619.821 220.767 614.621C226.067 612.621 238.914 609.021 249.032 606.754C262.362 603.688 276.173 599.154 298.817 590.088C334.63 575.688 349.245 572.088 371.568 572.088C400.475 572.088 420.068 577.154 470.978 597.688C525.099 619.421 526.544 619.554 559.788 603.154C616.639 575.421 650.847 565.954 682.484 569.288C715.407 572.754 743.993 584.621 795.866 616.221C856.09 652.888 876.647 664.354 898.648 673.288C935.586 688.354 966.42 694.488 998.219 692.754C1025.52 691.421 1046.88 687.154 1072.41 678.221C1083.82 674.221 1087.03 673.821 1084.3 676.488C1078.2 682.754 1043.35 693.688 1017.01 697.554C971.078 704.488 921.774 694.221 873.756 667.954C840.833 649.954 774.988 617.154 755.556 609.021C724.079 595.954 704.486 590.488 679.272 587.821C659.84 585.821 640.408 587.688 619.691 593.421C604.916 597.554 568.621 612.088 554.488 619.688C530.399 632.488 521.245 631.288 482.701 610.754C429.222 582.221 384.576 572.088 345.23 579.554C330.294 582.354 302.19 594.354 279.224 607.821C258.186 620.221 242.769 626.621 223.979 630.754C207.277 634.488 199.407 637.421 187.202 644.621C165.682 657.421 144.644 680.088 118.948 718.088C112.524 727.554 102.407 741.954 96.4645 750.088C90.3618 758.088 79.6018 773.154 72.2143 783.421C42.825 824.754 23.8745 844.754 3.15746 856.221C1.06969 857.421 -0.215084 858.888 0.427305 859.421C4.12104 862.621 32.3862 839.288 48.7671 819.421C59.6877 806.221 91.9678 762.221 110.597 735.421C146.571 683.288 156.046 671.688 176.281 655.954C190.896 644.621 206.474 637.154 221.891 634.221C239.396 630.754 258.507 622.888 283.882 608.621C323.228 586.488 342.66 580.088 370.604 580.088C404.811 580.088 434.201 588.888 480.292 612.888C518.675 632.888 527.99 634.621 548.064 625.421C580.023 610.888 618.406 595.954 630.451 593.421C676.221 583.821 719.261 593.021 787.836 627.154C830.555 648.354 848.703 657.688 866.368 667.421C906.518 689.288 940.404 699.688 979.108 702.088C998.058 703.288 1022.47 700.221 1047.84 693.288C1067.28 687.954 1072.74 687.421 1063.1 691.421C1038.85 701.954 990.028 707.821 958.712 704.221C912.46 698.754 871.668 685.154 827.183 660.221C784.303 636.221 750.578 621.421 721.188 613.688C698.865 607.821 687.302 606.221 665.782 606.354C632.699 606.488 617.924 610.221 564.445 632.221C532.005 645.421 527.668 646.221 515.463 641.021C511.609 639.421 500.046 632.888 489.767 626.488C455.239 605.021 436.128 596.354 410.272 590.088C365.947 579.421 328.849 585.288 292.554 608.754C287.575 611.821 275.852 620.488 266.377 627.821C247.426 642.754 246.784 643.021 230.885 647.554C211.773 652.888 195.393 661.554 173.069 677.821C155.886 690.354 138.541 708.754 110.597 743.421C89.7194 769.421 81.2078 781.688 64.8269 808.754C53.7456 827.021 40.7372 847.021 35.9193 853.154C26.1229 865.554 11.6691 879.021 4.76343 882.354C0.266708 884.621 -1.66046 888.088 1.71208 888.088C5.24523 888.088 29.0136 866.754 38.0071 855.288C43.3068 848.754 56.797 828.354 67.8782 809.954C89.88 773.954 124.569 727.821 147.374 704.488C172.588 678.488 205.35 657.421 230.563 650.754C243.411 647.421 251.762 642.754 268.304 630.088C310.541 597.821 333.827 587.954 367.232 587.954C409.308 588.088 439.5 598.488 491.373 631.154C519.799 649.021 528.953 650.488 550.955 640.621C570.227 631.954 610.858 616.888 623.224 613.688C638.32 609.821 662.088 607.554 676.221 608.621C719.261 611.954 757.162 625.421 820.759 660.088C854.324 678.354 866.208 683.688 891.261 692.088C923.38 702.621 954.536 707.954 986.656 708.221C1002.72 708.354 1003.84 708.488 996.613 709.688C972.844 713.288 929.322 710.088 894.312 702.088C865.244 695.421 848.381 689.154 810.32 670.754C754.432 643.821 720.064 631.554 687.463 626.754C672.848 624.488 645.547 624.888 630.451 627.421C614.712 630.088 587.732 638.754 558.985 650.488C526.062 663.954 523.172 663.421 488.322 636.754C455.721 611.821 427.135 599.288 391.321 593.954C342.339 586.888 302.832 600.621 264.931 638.221C241.163 661.688 239.075 663.288 222.855 668.754C214.825 671.554 202.78 676.754 196.356 680.354C166.485 697.021 122.481 738.754 94.698 776.888C83.4561 792.221 68.8418 816.088 45.0734 858.754C32.3862 881.421 11.9903 913.554 4.76343 922.354C-0.215084 928.354 -0.696876 929.421 1.55149 929.421C5.88762 929.421 33.0286 887.288 59.5271 839.421C87.3105 789.021 106.1 763.288 138.862 730.221C171.464 697.421 200.05 677.954 228.154 669.954C238.111 667.021 244.054 662.621 265.734 641.554C292.072 616.088 316.804 601.688 342.981 596.621C359.041 593.554 386.343 594.754 405.614 599.421C434.522 606.354 458.612 618.088 484.468 637.688C510.485 657.421 520.281 662.621 530.88 662.754C533.45 662.754 545.977 658.621 558.985 653.554C593.353 639.954 615.997 632.621 631.093 630.088C650.525 626.754 684.411 627.954 704.326 632.488C731.788 638.888 766.959 652.754 812.729 675.154C840.191 688.621 854.966 694.354 880.18 701.154C910.051 709.288 928.841 712.088 956.785 713.021C989.707 714.088 1025.36 709.954 1044.63 702.754C1048.33 701.421 1054.43 699.421 1058.44 698.088C1062.46 696.888 1070.65 693.421 1076.59 690.488C1082.53 687.554 1087.83 685.421 1088.31 685.821C1089.92 687.154 1078.2 695.421 1066.63 701.154C1052.98 707.821 1031.46 713.954 1011.07 716.888C992.919 719.554 957.106 718.754 929.162 714.888C875.683 707.554 843.242 702.621 837.461 700.888C834.088 699.954 816.904 693.021 799.399 685.688C711.392 648.621 659.358 640.488 602.989 654.888C597.207 656.354 579.863 662.354 564.445 668.221C548.867 673.954 534.092 678.754 531.362 678.754C522.208 678.754 514.821 674.354 493.14 655.688C467.766 633.954 451.224 623.154 431.31 615.288C407.22 605.821 393.73 603.421 364.662 603.421C340.894 603.554 339.288 603.688 326.761 607.688C310.059 612.888 297.532 619.554 283.721 630.621C272.319 639.821 254.332 658.488 242.126 674.221C232.972 685.821 230.082 687.954 215.146 693.821C198.604 700.354 188.326 707.288 157.652 732.488C111.721 770.221 95.3404 790.888 42.5038 878.088C23.8745 909.021 6.6906 936.754 4.28164 939.954C1.87268 943.021 0.266708 946.354 0.587903 947.154C1.71208 950.088 11.5085 935.421 44.5916 880.754C87.3105 810.088 100.319 791.554 126.657 763.421C137.096 752.354 181.581 715.821 195.232 707.154C204.707 701.288 229.439 690.088 230.724 691.154C232.169 692.221 222.052 708.888 218.358 711.688C216.27 713.154 206.956 717.954 197.641 722.088C172.748 733.288 159.098 741.688 140.789 756.754C110.437 781.821 88.1135 811.954 66.754 856.754C55.6728 879.954 49.0883 896.621 45.0734 911.554C34.1528 952.221 23.3927 972.621 6.04821 985.688C-1.33927 991.288 -1.01807 994.088 6.36941 989.154C18.2536 981.554 30.7802 963.554 39.2919 942.621C41.5402 937.154 43.3068 933.288 43.3068 934.088C43.628 937.154 36.8829 978.488 34.7951 986.754C30.6196 1003.02 21.6262 1013.82 8.13598 1018.62C3.63925 1020.22 0.427305 1022.09 0.909097 1022.75C2.03328 1024.35 11.8297 1021.15 18.2536 1017.29C22.5897 1014.62 22.7503 1014.62 21.1444 1017.02C19.3778 1019.82 9.90255 1027.29 3.47866 1031.02C1.23029 1032.35 -0.0544868 1033.82 0.587903 1034.22C2.35447 1035.69 14.2387 1028.22 21.9474 1020.75C31.1014 1012.22 43.628 991.154 49.7307 974.088L54.5486 960.754V970.488C54.7092 984.754 44.9128 1005.42 28.6924 1025.02C20.9838 1034.35 11.5085 1042.49 3.47866 1046.89C1.06969 1048.09 0.266708 1049.29 1.23029 1049.82C3.79985 1051.15 17.4506 1041.69 26.6047 1031.95C35.1163 1022.89 47.9641 1003.55 51.4973 994.354C54.0668 987.421 55.994 989.288 56.1546 999.021C56.3152 1006.62 47.3217 1039.42 42.022 1051.02C39.7737 1055.82 36.2405 1057.29 19.0566 1059.55C4.44224 1061.55 -1.49986 1063.15 1.06969 1064.35C2.35447 1065.02 20.1808 1062.62 34.3133 1059.82C42.5038 1058.22 45.0734 1054.35 50.8549 1035.42C53.4244 1027.02 55.8334 1020.09 56.3152 1020.09C56.9576 1020.09 59.3665 1030.89 61.7755 1044.22L66.4328 1068.35L63.2209 1071.82C58.2424 1077.42 52.1397 1077.15 42.022 1070.89C32.5468 1065.02 25.8017 1063.29 17.4506 1064.75C9.26016 1066.22 0.106111 1069.55 0.106111 1071.02C0.106111 1071.82 1.23029 1071.95 2.99686 1071.42C9.74195 1068.89 24.3563 1066.49 27.8895 1067.29C30.1378 1067.69 35.7587 1070.49 40.416 1073.42C49.7307 1079.15 58.8847 1080.62 62.7391 1076.75C63.8633 1075.69 65.3086 1074.75 65.951 1074.75C68.0388 1074.75 69.3236 1091.95 67.557 1094.75C64.0239 1100.09 51.4973 1097.42 33.9922 1087.55C22.1079 1080.89 17.9324 1081.15 7.65419 1089.29C2.99686 1092.89 -0.0544868 1096.35 0.587903 1096.89C1.23029 1097.42 4.60284 1095.42 8.13598 1092.35C17.4506 1084.35 20.502 1084.09 33.5104 1090.49C46.037 1096.89 54.8698 1100.09 59.5271 1100.09C64.0239 1100.09 63.5421 1101.95 58.7242 1103.82C53.1032 1105.95 45.8764 1105.82 36.4011 1103.42C32.065 1102.35 24.8381 1101.42 20.3414 1101.42C13.4357 1101.42 11.0267 1102.09 6.04821 1105.55C2.83627 1107.82 0.106111 1110.49 0.106111 1111.69C0.106111 1113.02 2.19388 1112.22 6.53001 1108.89C14.0781 1103.29 20.0202 1102.75 36.0799 1106.22C47.8035 1108.75 58.2424 1108.09 64.3451 1104.35L68.8418 1101.55L69.8054 1106.49C71.7325 1116.75 70.9296 1122.49 67.2358 1124.62C61.6149 1127.95 58.0818 1127.29 43.4674 1120.09C29.0136 1113.02 24.9987 1112.22 18.093 1115.29C13.1145 1117.42 -0.696876 1130.49 0.7485 1131.69C1.23029 1132.22 6.04821 1128.75 11.1873 1124.09C20.0202 1116.35 21.1444 1115.69 26.1229 1116.49C29.1742 1116.89 37.2041 1119.95 43.9492 1123.42C55.3516 1129.29 56.6364 1129.69 63.7027 1128.75L71.0901 1127.82L69.966 1142.35C69.3236 1150.22 68.5206 1157.02 68.1994 1157.29C67.8782 1157.69 64.9874 1156.89 61.9361 1155.69C57.1182 1153.82 45.0734 1141.15 45.0734 1137.95C45.0734 1136.22 36.8829 1128.09 33.0286 1125.95C27.2471 1122.75 20.1808 1125.42 8.93897 1134.75C-3.74823 1145.42 -1.01807 1146.75 11.9903 1136.35C23.5533 1127.02 29.1742 1125.82 34.9557 1131.15C40.7372 1136.49 40.7372 1137.29 35.1163 1136.62C31.262 1136.09 28.3712 1136.75 24.3563 1139.02C17.9324 1142.62 -0.375682 1162.09 0.427305 1164.22C0.7485 1165.15 4.92403 1161.55 9.42076 1156.35C18.896 1145.95 27.8895 1138.75 31.5832 1138.75C35.9193 1138.75 40.0949 1141.29 45.0734 1147.29C47.6429 1150.62 49.8913 1153.55 49.8913 1153.95C49.8913 1154.35 47.4823 1154.75 44.431 1154.75C33.9922 1154.75 20.1808 1161.02 5.40582 1172.49C-3.58763 1179.55 1.55149 1179.02 11.0267 1171.95C34.9557 1154.09 51.1761 1152.75 58.5636 1168.22C60.0089 1171.29 60.9725 1174.09 60.4907 1174.35C60.0089 1174.75 57.6 1173.82 55.0304 1172.22C51.8185 1170.35 47.8035 1169.42 42.9856 1169.42C36.8829 1169.42 34.3133 1170.35 26.2835 1175.42C11.8297 1184.75 -0.857474 1194.49 0.427305 1195.42C1.06969 1195.95 7.97538 1191.82 15.6841 1186.09C33.671 1172.89 40.2555 1170.09 47.3217 1172.09C55.5122 1174.22 59.8483 1179.02 60.8119 1186.62C61.6149 1193.69 59.5271 1200.35 54.8698 1205.29L51.8185 1208.49L39.7737 1199.02C24.9987 1187.42 21.7868 1186.89 10.0631 1194.75C-3.90882 1203.82 -2.94524 1206.22 11.1873 1197.42C15.8447 1194.49 21.4656 1192.09 23.5533 1192.09C26.2835 1192.09 30.9408 1195.02 38.6495 1201.55C49.0883 1210.35 51.6579 1213.42 48.6065 1213.42C47.9641 1213.42 39.7737 1211.29 30.6196 1208.75C13.9175 1203.95 3.47866 1203.15 2.19388 1206.35C1.71208 1207.42 3.15746 1207.69 6.8512 1207.29C11.9903 1206.62 42.5038 1213.42 45.5552 1215.95C47.9641 1217.95 40.0949 1221.15 29.8166 1222.62C17.7718 1224.22 2.83627 1228.49 2.03328 1230.49C1.71208 1231.55 2.99686 1231.55 6.8512 1230.49C19.5384 1227.15 34.4739 1224.09 35.2769 1224.89C35.7587 1225.29 33.1892 1227.95 29.656 1230.75C23.8745 1235.29 21.7868 1235.95 12.3115 1236.75C-0.696877 1237.95 -3.26643 1240.09 8.45717 1240.09C16.6476 1240.22 16.8082 1240.22 12.9539 1242.09C10.7055 1243.15 7.65419 1243.95 6.20881 1244.09C2.67567 1244.09 0.7485 1246.75 3.31806 1248.09C4.76343 1248.89 4.60284 1249.42 2.35447 1250.49C-2.94524 1252.89 1.23029 1253.82 9.74195 1252.09C14.2387 1251.15 18.2536 1250.75 18.7354 1251.15C19.2172 1251.42 15.0417 1255.42 9.58136 1259.95C4.12104 1264.49 0.106111 1268.62 0.7485 1269.02C2.03328 1270.09 18.5748 1256.89 22.1079 1252.09C23.3927 1250.22 29.8166 1245.69 36.4011 1242.09C53.585 1232.62 69.3236 1216.89 77.8352 1200.89C81.529 1194.09 83.2955 1188.09 86.0257 1173.29C86.5075 1170.35 88.7559 1167.02 91.8072 1164.62C106.903 1152.75 107.385 1137.29 94.0556 1090.75C84.0985 1055.82 82.9744 1048.35 83.1349 1018.75C83.4561 989.288 85.3833 976.354 94.8586 941.554C111.079 882.888 129.066 843.021 152.513 813.821C163.915 799.688 168.091 796.621 192.02 785.688C237.148 765.021 275.37 757.021 329.331 756.888C353.26 756.754 361.29 757.288 371.086 759.288C413.163 767.954 446.085 791.954 463.108 826.088C476.759 853.688 482.862 883.021 487.519 943.421C492.498 1008.89 496.513 1019.55 519.317 1026.62C545.495 1034.62 572.957 1033.02 599.777 1021.82C624.027 1011.69 636.553 1002.35 707.538 941.288C745.438 908.621 755.396 903.154 815.138 882.754C850.309 870.754 872.632 861.288 889.816 850.754C912.62 836.888 920.811 832.354 931.892 827.688L942.01 823.421L992.437 823.154C1028.09 823.021 1044.31 822.488 1047.84 821.288C1058.12 817.821 1068.88 809.821 1085.1 793.288C1106.94 771.154 1121.56 760.088 1137.94 753.288C1154.96 746.354 1168.93 743.688 1205.39 740.088C1243.13 736.488 1310.26 726.488 1324.07 722.354C1338.36 717.954 1346.07 713.954 1364.22 701.021C1385.9 685.554 1395.38 681.021 1406.78 680.488C1420.11 679.821 1426.37 683.288 1436.97 697.421C1450.94 715.821 1461.06 733.954 1467.16 750.488C1481.78 790.354 1484.83 797.154 1496.07 815.554C1515.66 847.554 1534.29 868.221 1554.69 880.888C1563.84 886.488 1581.99 893.688 1581.99 891.688C1581.99 890.754 1579.58 889.288 1576.53 888.354C1562.72 884.221 1539.75 868.488 1528.99 856.088C1524.98 851.288 1526.26 851.688 1535.42 857.421C1542.97 862.354 1558.38 868.621 1568.98 871.288C1579.1 873.821 1581.99 873.954 1581.99 872.088C1581.99 871.288 1580.87 870.754 1579.58 870.754C1574.28 870.754 1556.62 865.021 1546.02 859.821C1539.75 856.754 1529.8 850.221 1523.85 845.154C1514.54 837.421 1511.33 833.288 1503.46 819.688C1498.32 810.754 1491.57 797.421 1488.36 790.088C1485.15 782.754 1478.89 768.088 1474.39 757.554C1469.89 747.154 1466.52 737.821 1466.68 737.154C1467 736.354 1471.18 744.754 1475.84 755.554C1496.23 802.488 1517.43 830.088 1544.73 845.688C1553.08 850.488 1574.92 858.754 1579.26 858.754C1583.6 858.754 1582.47 856.488 1577.65 855.421C1568.34 853.688 1546.5 843.821 1537.18 837.421C1523.85 828.221 1507.95 810.088 1497.03 791.421C1491.73 782.621 1480.97 759.821 1472.78 740.754C1464.75 721.688 1457.05 703.821 1455.76 701.021C1454.48 698.354 1453.51 695.554 1453.51 695.021C1453.83 692.621 1461.22 706.621 1476.48 738.354C1502.49 791.954 1513.74 808.754 1534.45 825.021C1546.34 834.488 1560.15 841.421 1573.48 844.754C1582.63 847.154 1581.99 847.021 1581.99 845.554C1581.99 844.888 1578.14 843.288 1573.64 842.088C1558.7 838.088 1546.18 831.688 1535.1 822.488C1515.98 806.754 1503.94 788.754 1481.94 742.754C1453.67 683.821 1441.47 662.488 1430.55 652.621C1423.64 646.221 1422.84 645.154 1426.21 646.088C1433.44 647.821 1442.11 653.288 1446.12 658.621C1448.37 661.421 1460.26 684.354 1472.78 709.554C1495.91 756.088 1505.71 773.288 1519.04 790.088C1529.96 803.821 1545.37 815.821 1559.67 821.821C1572.35 827.154 1581.99 829.421 1581.99 827.021C1581.99 826.221 1579.58 825.154 1576.85 824.754C1568.18 823.154 1550.99 815.021 1541.68 808.221C1536.86 804.621 1528.83 796.888 1523.69 790.888C1509.24 774.354 1502.17 761.821 1464.91 686.754C1450.62 658.088 1447.25 653.288 1438.58 648.221C1426.53 641.421 1415.45 639.421 1390.56 639.688C1370.64 639.954 1366.31 640.488 1348 644.754C1324.55 650.088 1300.14 654.354 1263.2 659.421C1225.95 664.488 1187.08 673.288 1170.38 680.354C1167.01 681.688 1162.35 683.421 1159.94 684.088C1155.76 685.288 1155.93 685.154 1161.23 681.288C1171.82 673.554 1189.97 664.088 1204.43 658.754C1236.22 647.154 1254.37 643.954 1315.88 638.754C1386.06 632.888 1386.38 632.888 1405.98 635.421C1447.57 640.621 1450.62 643.688 1485.63 716.221C1500.41 746.354 1512.93 768.088 1523.53 781.421C1533.01 793.421 1549.23 806.088 1560.15 810.088C1570.43 813.821 1581.99 815.821 1581.99 813.821C1581.99 813.021 1579.26 812.088 1575.89 811.554C1565.77 810.221 1550.03 802.888 1541.04 795.154C1523.85 780.754 1510.2 759.954 1488.84 715.421C1471.82 680.088 1457.37 654.888 1450.14 647.688C1443.72 641.288 1433.12 636.888 1418.02 634.221C1398.75 631.021 1384.62 630.354 1366.63 631.954C1357.48 632.754 1336.92 634.354 1321.02 635.421C1286.49 637.954 1262.72 640.754 1246.02 644.221C1231.41 647.288 1207.96 653.954 1198.97 657.688L1192.54 660.354L1196.4 657.021C1198.48 655.021 1206.03 651.021 1213.26 647.954C1220.32 644.888 1232.37 639.154 1239.76 635.154C1255.82 626.488 1259.83 625.154 1281.35 620.888C1316.84 613.821 1348.8 613.154 1385.26 618.754C1443.56 627.688 1446.77 628.754 1464.91 643.954C1484.67 660.621 1492.38 675.154 1505.71 720.488C1508.92 731.421 1512.93 743.421 1514.7 747.154C1522.89 764.354 1539.91 781.154 1555.65 787.554C1564.81 791.288 1581.99 793.421 1581.99 790.888C1581.99 790.088 1579.58 789.421 1576.37 789.421C1561.43 789.421 1542.16 779.288 1529.8 764.888C1519.84 753.288 1515.82 744.354 1506.51 712.754C1502.17 698.088 1497.52 683.421 1496.23 680.088C1493.82 674.621 1493.98 674.354 1496.23 676.754C1499.93 680.621 1524.01 721.954 1534.61 742.754C1545.21 763.688 1549.39 768.754 1558.54 772.221C1565.45 774.888 1581.99 775.688 1581.99 773.421C1581.99 772.621 1578.3 772.088 1573.96 772.088C1564.49 772.088 1556.94 769.688 1551.96 765.154C1549.87 763.421 1542.8 751.554 1536.06 738.754C1503.62 676.754 1476.64 640.488 1449.02 621.021C1436.49 612.221 1428.78 608.754 1412.24 604.088C1388.95 597.688 1371.29 595.688 1337.56 595.554C1320.86 595.421 1307.37 595.021 1307.37 594.488C1307.37 593.954 1309.94 591.954 1312.99 589.954L1318.61 586.488L1344.63 587.021C1369.84 587.688 1371.61 587.954 1392.32 593.288C1427.33 602.488 1439.06 607.821 1464.75 626.754C1497.68 651.154 1525.62 687.154 1541.84 726.088C1549.07 743.554 1553.73 749.154 1565.13 753.554C1572.03 756.221 1581.99 756.888 1581.99 754.754C1581.99 753.954 1579.74 753.421 1576.85 753.421C1569.14 753.421 1558.22 748.354 1553.73 742.888C1551.64 740.221 1547.46 731.954 1544.41 724.754C1529.47 687.821 1506.99 657.954 1473.43 630.488C1446.77 608.621 1433.44 601.688 1401.32 592.888C1375.62 585.954 1363.74 584.088 1341.58 584.088C1330.66 584.088 1321.82 583.821 1321.82 583.421C1321.82 581.554 1338.85 565.421 1341.09 565.288C1356.67 564.488 1371.61 567.821 1390.08 575.954C1398.11 579.554 1410.31 583.688 1417.38 585.288C1435.2 589.421 1440.99 591.821 1456.72 601.421C1493.5 623.954 1520.48 654.621 1541.2 697.154C1548.43 711.954 1552.12 716.888 1560.15 721.688C1570.27 727.821 1581.99 731.288 1581.99 728.354C1581.99 727.688 1578.94 726.354 1575.41 725.421C1567.38 723.154 1557.42 717.421 1553.89 712.888C1552.44 711.021 1546.66 700.754 1541.04 689.954C1519.04 647.821 1494.46 621.021 1456.72 598.088C1442.91 589.821 1434.56 586.354 1418.98 582.888C1411.92 581.288 1399.55 577.021 1391.68 573.421C1375.62 566.221 1362.13 562.754 1350.41 562.754C1346.23 562.754 1342.7 562.354 1342.7 561.688C1342.7 561.154 1345.43 558.754 1348.64 556.354C1354.58 551.954 1354.91 551.821 1365.99 552.621C1380.92 553.554 1396.98 557.688 1411.76 564.488C1418.34 567.554 1430.39 572.488 1438.42 575.554C1457.85 582.888 1466.2 587.688 1481.62 600.621C1494.63 611.554 1507.15 625.821 1522.57 647.421C1535.42 665.421 1555.49 689.688 1563.84 697.421C1570.91 703.954 1579.74 709.021 1581.51 707.554C1582.79 706.488 1580.38 704.088 1578.14 704.088C1575.08 704.088 1561.43 691.688 1551.32 679.421C1546.34 673.554 1534.45 658.221 1524.82 645.421C1489.97 598.888 1473.91 585.554 1436.49 571.688C1427.66 568.488 1417.7 564.354 1414.17 562.488C1403.25 556.888 1386.7 552.088 1372.89 550.621C1365.67 549.821 1359.4 549.021 1359.08 548.754C1358.6 548.488 1361.17 545.421 1364.54 542.088L1370.64 535.821L1379.48 536.754C1399.87 538.754 1437.29 551.821 1462.35 565.688C1488.04 579.821 1504.58 596.088 1537.99 639.821C1547.62 652.488 1558.54 665.821 1562.4 669.421C1569.62 676.354 1579.9 682.354 1581.67 680.754C1582.31 680.221 1581.35 679.154 1579.58 678.221C1571.23 674.354 1557.26 660.354 1542.8 641.421C1501.53 587.688 1490.93 577.688 1457.05 559.421C1437.61 549.154 1396.5 534.754 1385.9 534.754C1380.6 534.754 1374.82 533.288 1374.82 532.088C1374.82 531.554 1377.39 528.354 1380.6 524.888C1387.03 517.821 1386.38 517.821 1408.55 524.754C1416.09 527.154 1427.66 530.088 1434.24 531.421C1456.08 535.421 1458.17 536.088 1471.02 544.221C1489.49 555.688 1499.28 565.288 1516.15 589.021C1544.57 628.754 1557.1 641.821 1572.68 647.821C1581.35 651.154 1581.99 651.288 1581.99 649.421C1581.99 648.754 1578.78 647.021 1574.92 645.688C1560.15 640.221 1547.62 627.688 1524.18 594.754C1503.78 566.221 1497.03 558.754 1481.94 548.088C1465.72 536.488 1457.05 532.621 1442.11 530.088C1429.9 527.954 1392.65 517.954 1390.4 516.088C1388.79 514.888 1399.71 500.621 1402.92 499.554C1406.78 498.354 1427.5 501.288 1438.42 504.754C1457.85 510.754 1480.33 524.888 1504.74 546.221C1518.71 558.488 1527.07 567.954 1543.93 590.754C1553.89 604.488 1561.59 611.554 1571.39 616.088C1580.06 620.354 1581.99 620.754 1581.99 618.888C1581.99 618.221 1578.14 615.821 1573.48 613.688C1563.68 609.154 1557.74 603.954 1548.91 592.221C1528.83 565.688 1519.68 555.288 1505.87 543.288C1489 528.488 1469.73 515.154 1455.44 508.354C1443.39 502.621 1423.16 497.421 1413.2 497.421C1408.87 497.421 1405.33 496.888 1405.33 496.088C1405.33 495.421 1407.42 491.954 1409.83 488.488C1412.24 485.021 1415.29 480.088 1416.57 477.554L1418.66 473.154L1428.14 473.821C1440.66 474.754 1455.6 480.754 1465.56 488.888C1470.05 492.488 1479.69 499.688 1487.24 504.888C1495.59 510.621 1506.19 519.954 1514.54 528.754C1543.29 559.288 1557.42 572.888 1568.18 580.354C1578.46 587.421 1583.11 589.821 1581.67 587.021C1581.51 586.354 1576.53 582.621 1570.75 578.621C1559.83 570.888 1547.62 559.288 1518.88 529.021C1507.47 517.021 1497.52 508.088 1489.97 503.154C1483.54 498.888 1473.43 491.688 1467.48 487.021C1455.12 477.421 1443.07 472.221 1430.23 471.154C1424.44 470.621 1421.55 469.821 1422.04 468.888C1429.26 455.021 1434.72 443.021 1437.61 434.488C1439.7 428.754 1441.95 424.221 1442.75 424.488C1444.52 424.888 1451.75 436.088 1461.06 452.754L1467.16 463.421L1479.53 468.488C1492.54 473.688 1495.59 476.221 1538.95 516.088C1554.85 530.754 1580.71 549.288 1581.67 546.754C1582.15 545.821 1580.71 544.221 1578.62 543.021C1568.66 537.288 1554.37 526.221 1540.56 513.421C1499.28 475.421 1492.54 469.954 1484.51 467.421C1480.33 466.088 1475.03 463.954 1472.78 462.621C1468.29 460.088 1468.13 459.821 1458.65 442.488C1455.12 436.221 1449.98 428.354 1447.41 425.154L1442.59 419.288L1446.93 406.354C1449.34 399.154 1451.75 393.821 1452.39 394.221C1453.03 394.754 1453.51 398.621 1453.51 402.754C1453.51 412.354 1457.37 422.888 1463.79 431.154C1467.48 435.954 1472.78 439.821 1484.03 445.954C1501.21 455.421 1508.76 461.821 1531.08 485.021C1539.75 494.088 1551.32 505.421 1556.94 510.354C1568.98 521.021 1581.99 529.288 1581.99 526.221C1581.99 525.154 1579.58 523.154 1576.69 521.554C1568.98 517.688 1551.16 501.688 1533.01 482.754C1511.17 459.821 1501.21 451.421 1488.2 445.021C1473.91 437.954 1467 432.088 1461.86 423.021C1454.48 409.554 1452.07 366.621 1458.81 368.488C1460.74 369.021 1465.72 376.621 1477.44 397.421C1484.51 410.088 1486.27 412.088 1494.95 417.688C1506.19 424.888 1515.5 433.954 1533.97 455.554C1553.4 478.088 1563.68 486.221 1577.49 489.554C1580.71 490.221 1581.99 490.088 1581.99 488.888C1581.99 487.821 1579.74 486.754 1577.17 486.221C1570.43 485.154 1559.67 478.754 1552.92 471.821C1549.71 468.621 1540.4 458.221 1532.04 448.754C1514.06 427.954 1508.76 423.021 1496.55 415.288C1489 410.354 1486.27 407.554 1481.46 399.021C1478.24 393.421 1472.78 383.821 1469.25 377.821C1465.88 371.688 1461.54 366.221 1459.94 365.421C1457.21 364.221 1456.72 362.621 1456.72 354.088C1456.72 348.621 1457.05 344.088 1457.53 344.088C1462.99 344.088 1472.94 355.021 1492.06 382.088C1499.93 393.154 1506.67 400.354 1519.52 411.421C1528.83 419.421 1542.8 432.221 1550.51 439.688C1558.06 447.154 1566.73 454.754 1569.62 456.621C1575.57 460.354 1581.99 462.221 1581.99 460.221C1581.99 459.554 1580.54 458.488 1578.62 458.088C1573.64 456.754 1565.29 450.221 1551.8 436.888C1545.05 430.221 1531.56 417.821 1521.77 409.421C1509.4 398.754 1501.69 390.621 1496.23 382.754C1480.01 359.421 1473.91 351.954 1466.2 346.221C1457.37 339.688 1458.01 337.821 1468.29 340.088C1478.24 342.354 1487.72 351.288 1502.66 371.821C1520.96 397.421 1531.08 405.954 1555.49 416.488C1564.32 420.354 1581.99 422.888 1581.99 420.221C1581.99 419.421 1579.9 418.754 1577.49 418.754C1563.68 418.754 1538.79 407.288 1524.98 394.488C1520.8 390.621 1512.45 380.354 1506.19 371.554C1487.08 344.354 1478.08 337.288 1463.15 337.021H1455.12L1453.35 331.554C1452.39 328.488 1451.1 323.954 1450.14 321.421C1447.73 313.421 1448.21 312.354 1455.28 310.621C1474.23 305.821 1496.71 319.821 1524.18 353.421C1531.72 362.488 1541.84 373.421 1546.66 377.554C1556.62 385.954 1571.07 393.421 1577.65 393.421C1583.92 393.421 1582.95 391.288 1576.21 390.354C1561.92 388.354 1546.98 376.488 1524.18 348.754C1508.12 329.288 1495.43 318.221 1482.42 312.088C1477.6 309.821 1475.35 308.354 1477.6 308.754C1485.15 310.354 1504.1 318.621 1521.77 328.221C1546.34 341.421 1561.11 347.154 1572.68 347.821C1584.88 348.621 1585.04 345.954 1572.68 345.154C1561.59 344.221 1547.46 338.621 1522.25 325.288C1484.67 305.154 1467.97 300.754 1452.39 306.754C1444.04 309.821 1444.68 310.354 1438.42 292.354C1433.44 277.688 1433.44 277.154 1437.13 274.354C1443.07 269.821 1450.46 271.421 1468.29 281.288C1505.87 301.954 1533.65 312.754 1554.85 314.754C1569.62 316.221 1581.99 315.288 1581.99 312.754C1581.99 311.421 1580.22 311.421 1574.6 312.354C1566.09 313.821 1548.59 312.221 1535.9 308.621C1521.28 304.488 1487.08 289.021 1471.02 279.288C1455.92 270.088 1443.39 267.288 1436.33 271.421C1431.67 274.088 1430.23 271.954 1432.63 266.088C1434.88 260.354 1439.7 257.421 1446.45 257.421C1450.3 257.421 1455.28 259.688 1465.56 266.088C1476.8 273.021 1482.58 275.554 1494.3 278.621C1515.34 284.088 1529.15 285.821 1547.46 285.154C1564.65 284.488 1581.99 280.221 1581.99 276.754C1581.99 275.421 1579.58 275.821 1572.84 278.488C1550.35 287.021 1498.96 281.821 1475.67 268.488C1471.02 265.821 1463.63 261.688 1459.29 259.154C1442.75 249.688 1429.74 255.421 1427.5 273.288C1427.01 276.088 1426.05 275.288 1420.27 267.821C1416.57 263.154 1407.74 253.954 1400.52 247.688C1393.45 241.288 1387.67 235.288 1387.67 234.354C1387.67 226.754 1395.38 220.088 1404.05 220.088C1418.34 220.088 1444.04 229.688 1484.19 249.821C1520.96 268.354 1525.14 269.821 1539.43 269.154C1546.82 268.888 1553.24 267.688 1557.9 265.688C1566.41 262.354 1581.99 250.754 1581.99 247.954C1581.99 246.888 1578.3 248.888 1573.16 252.888C1560.79 262.621 1550.19 266.754 1537.5 266.754C1525.46 266.754 1521.77 265.421 1486.43 247.688C1459.78 234.354 1436.01 224.088 1423.8 220.754C1403.41 215.154 1390.56 217.421 1386.06 227.688L1383.65 233.288L1373.53 226.754C1368.07 223.154 1358.44 217.688 1352.34 214.621C1343.66 210.088 1340.77 207.821 1339.33 204.354C1335.31 194.221 1342.38 178.354 1352.82 173.821C1364.22 168.888 1382.37 172.221 1405.49 183.688C1417.7 189.688 1427.66 195.688 1477.28 227.288C1502.82 243.421 1513.58 248.221 1526.42 249.021C1540.4 249.954 1550.19 246.221 1562.4 235.554C1572.35 226.754 1581.99 213.021 1581.99 207.954C1581.83 205.821 1579.42 208.488 1574.6 216.354C1562.24 236.088 1546.34 246.754 1529.47 246.754C1514.54 246.754 1505.55 242.354 1459.29 212.354C1407.58 179.021 1386.22 169.154 1365.02 169.154C1357.64 169.154 1354.1 169.821 1350.09 172.221C1339.97 177.954 1334.67 187.154 1334.67 199.021V205.288L1313.95 196.754C1291.47 187.554 1284.89 182.621 1272.84 166.088C1262.72 152.088 1266.42 145.554 1287.78 140.088C1312.83 133.554 1338.52 135.421 1363.74 145.554C1381.56 152.754 1393.29 159.288 1429.26 182.621C1470.7 209.154 1489.33 218.221 1514.86 223.554C1532.53 227.288 1546.82 221.554 1558.86 205.954C1568.66 193.154 1572.84 181.554 1576.21 156.621C1577.65 147.021 1579.42 137.554 1580.38 135.554C1581.19 133.554 1581.99 129.954 1581.83 127.688C1581.51 118.754 1575.41 139.154 1573.16 156.754C1569.78 183.154 1562.56 199.821 1549.39 211.688C1540.88 219.421 1535.9 221.421 1525.3 221.421C1502.66 221.421 1475.19 209.288 1428.62 178.754C1379.32 146.221 1354.1 135.421 1325.03 133.821C1299.18 132.354 1271.07 139.688 1265.45 149.021C1261.76 155.154 1263.2 158.888 1273.8 171.954C1278.78 178.221 1282.8 183.688 1282.48 183.821C1281.35 184.888 1235.58 163.421 1230.6 159.554C1216.63 148.888 1214.06 130.888 1224.66 120.354C1230.12 114.888 1255.66 104.621 1272.04 101.154C1283.28 98.8876 1288.58 98.4876 1302.55 99.1542C1323.75 100.088 1334.51 102.488 1355.23 110.754C1384.46 122.488 1411.28 139.421 1454.32 173.421C1466.68 183.154 1479.05 191.954 1481.94 192.888C1497.19 198.221 1527.07 191.821 1540.88 180.354C1551.96 171.288 1555.17 163.154 1559.51 133.821C1563.68 103.954 1568.82 89.1542 1578.94 77.1542C1580.71 75.2876 1581.99 72.8876 1581.99 71.8209C1581.83 69.2876 1575.89 75.5542 1571.23 83.4209C1562.72 97.2876 1560.15 105.954 1555.33 139.288C1551.64 164.888 1546.02 175.688 1532.53 183.021C1518.23 191.021 1492.54 194.354 1481.94 189.821C1479.05 188.621 1468.45 181.021 1458.33 172.888C1388.95 117.154 1344.63 96.0876 1297.25 96.0876C1287.62 96.0876 1277.82 97.0209 1269.79 98.7542C1254.85 101.954 1226.91 113.554 1221.61 118.888C1207 133.154 1215.35 157.154 1238.47 167.688C1248.11 171.954 1247.79 173.421 1237.99 169.288C1215.83 159.954 1194.63 144.221 1187.72 131.821C1175.36 109.821 1193.51 86.4876 1230.6 76.7542C1250.52 71.5542 1281.51 66.7542 1295.48 66.7542C1319.9 66.7542 1346.23 72.2209 1370.16 82.0876C1394.41 92.2209 1409.99 102.488 1439.38 127.021C1456.88 141.688 1469.89 151.554 1473.59 152.888C1476.8 153.954 1484.19 154.888 1489.97 154.888C1503.94 155.021 1518.71 149.288 1525.62 141.021C1532.69 132.354 1534.94 127.021 1544.09 95.9542C1554.05 62.3542 1559.99 50.8876 1573.48 38.7542C1578.3 34.3542 1581.83 30.2209 1581.19 29.6876C1580.54 29.1542 1576.21 32.2209 1571.55 36.3542C1557.9 48.6209 1551.16 61.4209 1541.2 95.1542C1536.38 111.021 1530.28 127.954 1527.71 132.621C1520.48 145.554 1507.47 152.354 1490.45 152.221C1475.19 152.221 1470.7 149.821 1447.25 129.421C1435.53 119.154 1419.79 106.621 1412.4 101.688C1368.56 72.6209 1318.29 59.5542 1273.64 65.5542C1254.21 68.0876 1224.98 74.7542 1214.54 79.0209C1185.8 90.7542 1173.11 113.554 1184.51 132.888C1189.33 141.154 1203.62 154.488 1211.97 158.888C1215.03 160.488 1217.27 162.088 1216.79 162.354C1214.22 164.621 1189.97 146.088 1179.69 134.088C1176 129.688 1170.86 122.754 1168.45 118.754C1164.6 112.488 1164.12 110.354 1164.92 103.288C1165.88 92.0876 1171.99 83.1542 1186.92 70.6209C1207.8 53.1542 1227.23 47.0209 1280.07 41.2876C1304.8 38.6209 1309.62 38.4876 1321.34 39.9542C1348.48 43.1542 1365.51 50.0876 1401.16 72.6209C1426.53 88.4876 1445 96.8876 1459.13 98.6209C1477.92 100.888 1496.87 96.0876 1508.28 85.8209C1516.15 78.8876 1518.07 75.8209 1524.18 62.0876C1532.21 43.4209 1547.3 21.2876 1559.19 10.6209C1570.59 0.354231 1569.3 -2.1791 1557.74 7.68756C1544.57 19.0209 1530.76 39.2876 1520.96 61.4209C1513.09 79.4209 1505.55 87.4209 1491.25 92.7542C1480.97 96.6209 1471.5 97.5542 1459.62 95.9542C1443.56 93.8209 1431.35 87.9542 1394.09 64.7542C1362.94 45.4209 1336.92 36.7542 1309.78 36.7542C1283.28 36.7542 1237.03 43.0209 1220.16 48.8876C1189.65 59.5542 1167.01 79.5542 1161.23 100.754C1158.17 111.954 1169.09 129.821 1190.29 148.754L1200.57 157.821L1193.83 154.888C1182.58 150.221 1167.17 137.288 1161.71 127.821C1148.22 104.754 1148.22 84.4876 1162.03 60.6209C1172.31 43.0209 1200.73 24.4876 1227.07 18.2209C1237.67 15.8209 1268.83 11.4209 1289.38 9.4209C1318.45 6.75423 1343.34 11.1542 1386.54 26.8876C1439.7 46.0876 1443.56 47.2876 1455.92 47.2876C1470.38 47.4209 1477.44 44.0876 1493.02 30.4876C1503.94 20.8876 1520.96 3.0209 1520.96 1.0209C1520.96 -1.64577 1517.59 0.887564 1510.36 9.0209C1499.12 21.9542 1479.69 38.4876 1471.98 41.8209C1467.32 43.8209 1462.67 44.4876 1455.12 44.4876C1443.56 44.3542 1442.11 43.9542 1401.16 29.0209C1369.36 17.4209 1346.72 10.6209 1330.66 7.95423C1314.11 5.28756 1289.22 5.95423 1260.63 9.8209C1216.15 16.0876 1198.64 22.3542 1176.32 40.7542C1163.15 51.5542 1157.53 59.2876 1152.23 73.2876C1148.54 83.1542 1147.73 100.754 1150.63 110.754C1151.91 115.421 1152.87 119.554 1152.55 119.688C1152.23 119.954 1150.14 116.621 1147.9 112.488C1141.79 101.154 1139.71 88.8876 1140.67 69.5542C1142.11 42.7542 1150.47 26.2209 1171.34 8.35423C1177.61 3.15423 1180.18 0.087564 1178.57 0.087564C1177.12 0.087564 1171.18 4.35423 1165.4 9.55423ZM1212.78 166.888C1216.31 169.154 1219.04 171.554 1219.04 172.221C1219.04 174.221 1203.78 167.021 1196.88 161.821L1190.94 157.421L1198.8 160.088C1203.14 161.554 1209.4 164.621 1212.78 166.888ZM1243.13 175.688C1265.77 185.421 1268.34 187.954 1250.36 182.754C1234.14 177.954 1228.03 175.288 1222.25 169.954L1218.24 166.488L1222.25 167.421C1224.5 167.954 1233.82 171.688 1243.13 175.688ZM1283.44 188.088C1296.13 193.421 1304.32 198.888 1295.16 196.088C1288.9 194.088 1264.01 182.754 1264.01 181.954C1264.01 180.754 1270.75 182.888 1283.44 188.088ZM1300.62 202.221C1308.65 205.288 1315.4 208.221 1315.4 208.621C1315.4 209.554 1295.48 202.621 1285.69 198.221C1273.96 193.021 1283.28 195.421 1300.62 202.221ZM1321.02 206.488C1320.54 206.888 1319.25 206.488 1318.13 205.554C1316.68 204.221 1316.84 204.088 1319.09 204.888C1320.7 205.288 1321.5 206.088 1321.02 206.488ZM1352.01 217.021C1359.72 221.154 1380.28 234.354 1383.49 237.288C1389.11 242.488 1384.94 241.688 1377.07 235.954C1372.73 232.888 1363.9 227.021 1357.64 223.021C1351.21 219.021 1345.91 215.554 1345.91 215.288C1345.91 214.221 1347.68 214.754 1352.01 217.021ZM1388.31 250.621C1391.04 252.888 1392.32 254.754 1391.52 254.754C1390.56 254.754 1387.03 252.221 1383.65 249.288C1380.12 246.221 1378.67 244.354 1380.44 245.154C1382.21 245.954 1385.74 248.354 1388.31 250.621ZM1417.22 268.221C1418.82 270.488 1419.47 272.088 1418.5 271.554C1414.65 269.688 1390.88 246.754 1390.88 245.154C1391.04 243.021 1413.2 262.354 1417.22 268.221ZM1440.34 359.021C1440.02 360.621 1439.06 362.088 1438.1 362.354C1436.97 362.621 1436.49 361.554 1436.97 359.421C1437.93 355.421 1441.15 354.888 1440.34 359.021ZM1436.81 382.488C1435.36 388.088 1433.28 395.421 1431.83 398.754C1429.58 404.221 1429.58 404.354 1430.07 400.088C1431.35 391.154 1436.17 368.754 1437.13 366.754C1439.38 362.088 1439.22 372.888 1436.81 382.488ZM1427.17 397.821C1421.55 418.354 1418.34 426.488 1416.9 423.021C1416.41 421.554 1425.57 385.688 1429.9 372.754L1431.83 367.421L1432.31 372.221C1432.63 374.754 1430.23 386.354 1427.17 397.821ZM1433.6 436.888C1431.19 443.154 1428.78 448.088 1428.46 447.688C1427.98 447.288 1429.42 441.821 1431.83 435.421C1434.08 429.021 1436.49 424.088 1436.97 424.621C1437.45 425.021 1435.85 430.488 1433.6 436.888ZM1428.46 431.288C1427.98 433.288 1427.17 434.621 1426.69 434.354C1426.37 433.954 1426.53 432.088 1427.17 430.221C1427.66 428.221 1428.46 426.888 1428.94 427.154C1429.26 427.554 1429.1 429.421 1428.46 431.288ZM1406.14 482.354C1403.41 487.821 1397.3 496.088 1397.3 494.354C1397.3 492.888 1406.78 477.421 1407.74 477.421C1408.22 477.421 1407.42 479.688 1406.14 482.354ZM713.158 495.421C725.043 498.088 742.387 505.421 754.111 512.754C769.528 522.354 798.917 544.888 814.817 559.288C822.846 566.488 836.497 577.421 845.009 583.554C857.696 592.621 894.312 624.488 911.336 641.421C920.329 650.221 890.297 629.688 867.332 611.288C858.017 603.821 845.972 594.754 840.512 591.154C835.212 587.554 818.51 574.754 803.575 562.754C773.543 538.488 758.447 527.954 742.387 520.354C709.304 504.354 682.806 502.221 645.708 512.488C618.406 519.954 593.353 531.688 548.064 558.088C528.793 569.421 508.879 571.688 477.08 566.221C465.999 564.354 451.545 561.288 444.961 559.421C432.755 556.088 434.361 556.088 452.991 559.688C458.772 560.754 473.226 561.954 485.11 562.354C518.675 563.421 531.362 559.954 560.752 541.688C603.149 515.154 630.611 502.488 659.358 496.088C673.33 493.021 700.471 492.621 713.158 495.421ZM1381.24 511.954C1380.28 513.554 1378.83 514.754 1377.87 514.754C1377.07 514.754 1377.55 513.288 1379.16 511.554C1382.53 507.821 1383.81 507.954 1381.24 511.954ZM708.019 510.888C720.385 513.288 743.993 523.421 758.447 532.354C765.674 537.021 784.785 551.288 800.684 564.088C816.583 576.888 833.285 589.821 837.621 592.754C842.118 595.688 852.878 603.688 861.711 610.754C884.034 628.488 900.897 640.221 917.92 649.688C925.789 654.088 936.71 660.354 942.01 663.421C947.309 666.488 954.054 670.088 956.945 671.288C967.223 675.688 960.8 674.888 946.828 670.088C918.562 660.354 889.334 643.421 857.696 617.954C847.578 609.954 834.57 600.354 828.789 596.754C823.007 593.154 813.692 586.888 807.911 582.754C765.513 552.221 738.533 538.088 709.946 531.288C696.938 528.221 693.244 527.821 676.542 528.354C661.767 528.888 654.862 529.821 644.102 532.621C622.582 538.354 590.783 551.954 565.409 566.221C539.231 580.888 530.559 583.954 515.624 584.088C502.294 584.088 487.519 581.021 445.282 569.554C426.492 564.354 405.454 559.154 398.709 557.954C380.24 554.621 354.384 555.154 322.907 559.288C306.686 561.421 286.451 563.154 270.713 563.554C229.439 564.754 211.131 570.621 185.114 591.288C157.01 613.554 145.286 628.488 102.246 695.954C85.3833 722.354 77.6746 731.821 65.951 741.154C58.2424 747.288 36.0799 758.354 34.3133 756.888C33.9922 756.621 38.4889 752.621 44.431 747.954C68.36 728.888 91.1648 701.421 118.948 658.088C161.346 592.088 172.748 578.754 207.116 556.088C224.461 544.488 230.242 542.754 249.514 542.754C258.668 542.754 273.282 543.688 282.115 544.754C291.751 545.954 309.577 546.754 326.922 546.754C376.225 546.754 389.394 548.354 433.719 559.421C476.277 570.088 482.541 571.154 503.579 571.154C528.471 571.154 535.698 569.021 560.43 554.221C598.01 531.688 634.466 516.088 660.804 511.421C673.009 509.154 698.062 508.888 708.019 510.888ZM1374.5 521.154C1370.48 525.554 1366.79 528.621 1366.79 527.688C1366.79 525.554 1373.7 517.554 1374.98 518.221C1375.94 518.621 1375.78 519.821 1374.5 521.154ZM1350.09 529.954C1346.88 534.088 1343.18 537.421 1341.74 537.421C1338.85 537.421 1338.69 537.688 1348.32 527.688C1351.69 524.221 1354.74 521.554 1355.07 521.954C1355.55 522.221 1353.3 525.821 1350.09 529.954ZM1324.87 539.021C1322.79 541.288 1316.84 546.888 1311.7 551.288C1303.03 558.754 1302.71 558.888 1307.53 553.421C1312.51 547.688 1326.64 534.754 1327.93 534.754C1328.25 534.754 1326.8 536.621 1324.87 539.021ZM1341.09 542.488C1341.09 544.221 1330.01 552.621 1328.89 551.688C1327.28 550.488 1335.96 541.421 1338.85 541.421C1339.97 541.421 1341.09 541.954 1341.09 542.488ZM1319.41 580.088C1316.84 582.221 1313.95 584.088 1313.15 584.088C1311.22 583.954 1321.02 576.088 1322.95 576.088C1323.59 576.088 1321.98 577.821 1319.41 580.088ZM1300.94 583.288C1300.94 583.554 1299.66 584.621 1298.21 585.554C1295.65 587.288 1295.48 587.154 1297.57 585.021C1299.66 582.888 1300.94 582.221 1300.94 583.288ZM1306.57 592.088C1304.96 593.554 1302.55 594.754 1301.11 594.754C1299.18 594.754 1299.66 593.954 1302.55 592.088C1307.85 588.621 1310.26 588.621 1306.57 592.088ZM1365.34 598.754C1408.55 602.488 1437.93 613.021 1458.17 632.221L1465.4 639.154L1456.56 633.554C1445.96 626.754 1429.9 622.354 1403.25 618.754C1392.49 617.288 1377.87 615.154 1370.8 614.088C1342.54 609.821 1311.06 611.954 1268.83 620.888C1266.58 621.421 1269.95 618.754 1276.86 614.621C1283.6 610.621 1291.63 605.554 1295 603.421C1298.21 601.154 1302.55 599.021 1304.48 598.488C1310.42 597.154 1347.36 597.288 1365.34 598.754ZM376.386 606.354C375.262 606.621 373.334 606.621 372.371 606.354C371.247 605.954 372.05 605.688 374.298 605.688C376.546 605.688 377.349 605.954 376.386 606.354ZM389.876 607.554C389.394 607.954 387.949 608.088 386.825 607.688C385.54 607.288 386.022 606.888 387.788 606.888C389.555 606.754 390.518 607.154 389.876 607.554ZM391.642 611.421C432.595 618.488 459.575 634.088 496.994 672.488C522.208 698.221 525.259 698.754 567.015 683.421C606.04 669.288 617.282 666.621 644.102 665.821C681.36 664.621 701.917 668.888 776.594 692.754C830.716 710.088 842.118 712.888 884.998 718.621C915.029 722.621 933.98 724.088 957.588 724.088C989.546 724.088 1033.55 718.354 1051.7 711.954C1060.69 708.754 1060.21 710.888 1050.89 716.754C1041.9 722.221 1020.7 728.888 1004.16 731.554C988.744 733.954 950.843 733.954 925.468 731.421C914.708 730.354 893.349 728.888 878.092 728.088C845.33 726.221 824.613 722.221 764.55 706.088C701.114 689.021 681.842 686.088 642.014 687.154C622.26 687.688 613.106 688.488 603.952 690.621C589.177 694.088 558.021 703.288 546.298 707.554C541.64 709.288 535.217 710.754 532.165 710.754C520.923 710.754 516.587 707.421 490.41 677.421C462.305 645.288 437.252 629.554 400.797 621.154C389.876 618.621 383.934 618.221 360.647 618.221C335.594 618.221 332.382 618.488 320.98 621.688C307.65 625.421 289.181 634.354 278.903 642.088C270.231 648.621 270.07 647.954 278.421 640.088C292.554 626.488 315.519 615.154 335.915 611.554C349.566 609.021 377.831 608.888 391.642 611.421ZM407.22 610.754C409.308 611.554 409.629 611.954 408.023 611.954C406.739 611.954 404.49 611.421 403.205 610.754C400.315 609.154 402.884 609.154 407.22 610.754ZM1238.31 612.754C1237.19 613.821 1235.58 614.754 1234.78 614.754C1233.82 614.754 1233.98 613.821 1235.1 612.754C1236.22 611.688 1237.83 610.754 1238.63 610.754C1239.6 610.754 1239.44 611.688 1238.31 612.754ZM1259.83 615.821C1256.14 618.488 1250.68 621.954 1247.79 623.288L1242.33 625.821L1247.95 620.888C1252.77 616.621 1262.88 610.888 1265.61 610.888C1266.1 610.888 1263.37 613.154 1259.83 615.821ZM434.201 619.554C451.064 626.754 462.305 634.221 486.877 654.888C500.688 666.354 514.981 677.154 518.514 678.621C529.435 683.154 534.253 682.354 565.409 670.888C580.987 665.021 598.171 659.021 603.631 657.554C627.399 650.888 657.752 649.021 683.609 652.754C716.531 657.554 743.19 665.821 799.881 688.754L840.833 705.288L884.998 711.554C909.248 714.888 935.265 718.488 942.813 719.421L956.463 721.154L942.813 721.288C928.359 721.421 883.07 716.488 858.017 711.954C834.731 707.688 816.904 702.888 770.973 688.088C702.559 666.221 680.075 661.821 642.496 663.154C617.442 663.954 605.558 666.754 564.606 681.554C531.523 693.421 529.756 693.554 518.675 687.421C515.463 685.688 505.185 676.621 495.87 667.154C470.817 641.688 457.166 631.421 435.325 621.554C421.995 615.554 421.032 614.088 434.201 619.554ZM351.493 621.021C349.887 621.288 347.318 621.288 345.872 621.021C344.266 620.621 345.551 620.354 348.602 620.354C351.654 620.354 352.939 620.621 351.493 621.021ZM395.818 623.288C424.886 629.421 444.158 638.488 464.554 655.421C471.299 661.021 480.935 670.621 486.074 676.621C507.433 701.554 511.769 705.954 518.675 709.688C528.15 714.621 534.895 714.488 550.634 708.888C568.139 702.621 600.419 694.088 616.639 691.421C627.239 689.554 635.59 689.288 656.789 689.821C693.244 690.621 704.968 692.754 774.185 711.421C826.54 725.421 844.527 728.888 877.771 730.754C925.468 733.421 925.147 734.088 876.165 733.954C822.365 733.821 822.525 733.821 745.278 717.554C721.028 712.488 693.887 707.288 685.054 706.088C629.808 698.354 584.038 702.888 545.013 719.954C528.471 727.288 520.12 724.754 507.915 708.754C475.796 666.354 464.393 654.354 445.764 643.421C425.207 631.288 400.797 624.088 372.692 621.554L359.041 620.488L369.641 620.221C376.386 620.088 386.182 621.288 395.818 623.288ZM1205.39 621.421C1204.91 622.221 1200.09 625.154 1194.95 628.088C1184.51 633.954 1170.38 638.754 1141.95 645.954C1097.15 657.288 1092.17 658.488 1092.17 657.954C1092.17 656.354 1126.38 644.488 1176.48 628.888C1205.87 619.688 1206.83 619.421 1205.39 621.421ZM400.475 628.621C441.909 638.888 466.16 656.621 495.549 697.954C506.63 713.554 516.587 723.421 523.332 725.554C530.399 727.821 536.18 726.754 553.043 720.088C562.357 716.354 577.132 711.688 585.805 709.821C600.419 706.488 603.792 706.221 635.269 706.221C675.418 706.088 682.484 707.021 753.308 721.954C822.365 736.488 832 737.688 871.347 736.754C889.013 736.221 909.248 736.488 916.314 737.021L929.162 738.221L904.109 739.154C877.128 740.088 866.69 741.421 852.878 745.688C838.585 750.088 827.825 749.421 783.018 741.021C699.186 725.288 656.307 720.888 615.676 723.821C592.068 725.554 565.73 730.488 546.619 737.021C540.516 739.021 532.968 740.621 529.435 740.621C524.135 740.754 522.369 739.821 516.587 734.488C512.893 731.154 504.221 719.821 497.316 709.288C475.474 675.954 460.218 660.488 437.252 647.954C413.484 635.021 387.146 629.021 355.026 629.021C326.44 629.154 303.796 634.621 281.633 646.754L273.925 651.021L281.152 645.554C291.109 638.088 310.38 629.954 325.637 626.754C344.427 622.754 380.722 623.688 400.475 628.621ZM384.576 633.554C410.914 637.421 437.092 648.488 454.918 663.154C469.05 675.021 476.759 684.221 492.819 708.488C507.433 730.888 517.711 741.821 525.741 743.554C529.114 744.221 536.662 742.621 554.649 737.688C583.878 729.554 599.295 727.021 626.275 725.954C663.052 724.354 699.186 728.488 778.2 742.754C802.129 747.154 824.452 751.021 827.986 751.554C834.409 752.354 842.6 751.021 865.726 745.288C876.807 742.621 882.589 742.354 936.389 741.421C982.32 740.754 996.773 740.088 1003.04 738.488C1007.53 737.288 1013.64 735.688 1016.69 734.888L1022.31 733.554L1018.29 736.221C1013.48 739.554 1000.15 745.288 993.401 747.021C990.831 747.554 970.435 748.088 948.273 748.088C907.481 748.088 899.612 748.621 870.544 754.221C842.6 759.554 808.874 756.221 737.248 741.288C688.105 731.154 671.243 729.021 646.511 729.821C611.179 731.021 577.935 738.488 553.685 750.488C544.531 755.021 536.341 757.954 532.326 758.354C526.384 759.021 524.938 758.488 518.996 754.088C513.696 750.088 508.718 743.154 495.71 721.421C477.401 690.754 473.226 685.154 458.933 672.488C441.267 656.754 416.535 645.688 387.949 640.754C368.838 637.421 333.988 637.688 317.286 641.288C302.029 644.621 285.166 651.288 273.443 658.754C264.289 664.621 265.252 661.954 274.728 655.154C302.832 635.021 341.697 627.288 384.576 633.554ZM386.022 643.688C384.897 643.954 382.97 643.954 382.007 643.688C380.882 643.288 381.685 643.021 383.934 643.021C386.182 643.021 386.985 643.288 386.022 643.688ZM1417.38 644.088C1418.02 644.888 1416.25 645.421 1413.04 645.421C1405.17 645.421 1372.09 652.354 1349.93 658.754C1312.99 669.288 1308.01 670.621 1292.11 673.954C1270.59 678.488 1251 681.154 1229 682.754C1195.27 685.288 1166.36 691.954 1146.13 702.088C1140.99 704.754 1136.49 706.621 1136.01 706.221C1134.08 704.621 1144.52 694.888 1152.07 691.021C1177.12 678.354 1216.15 668.621 1272.04 660.754C1307.37 655.821 1333.06 651.288 1350.73 646.754C1364.7 643.288 1368.07 642.888 1391.2 642.888C1406.3 642.754 1416.74 643.288 1417.38 644.088ZM390.358 648.088C397.585 649.554 409.79 653.154 417.177 656.088C452.348 669.688 471.459 689.554 496.513 738.488C510.645 766.088 518.836 774.754 530.72 774.754C533.771 774.754 545.816 770.621 560.591 764.621C593.192 751.421 605.879 748.488 637.517 746.488C667.87 744.754 685.214 746.088 720.867 752.754C734.197 755.288 760.213 759.554 778.682 762.221C819.474 768.088 835.534 767.954 872.15 761.421C891.582 757.954 901.379 757.154 931.571 755.954C955.821 755.021 972.523 753.688 982.159 751.954C990.028 750.621 997.898 749.421 999.825 749.554C1004.48 749.688 991.313 754.221 975.093 758.221C962.727 761.154 951.485 762.488 902.663 766.754C893.349 767.421 876.807 770.221 865.726 772.888C826.058 782.088 806.947 781.688 730.824 769.954C700.792 765.288 679.754 764.621 644.423 767.288C613.588 769.688 599.455 772.354 575.687 780.221C552.079 787.954 532.968 793.421 529.114 793.421C519.317 793.421 509.039 780.088 497.155 752.088C477.883 706.621 453.794 680.354 418.462 665.954C394.854 656.488 382.81 654.354 351.814 654.221C331.579 654.088 322.264 654.754 312.468 656.621C295.766 659.688 273.603 668.488 259.631 677.421C248.229 684.621 247.747 684.354 255.938 675.688C265.092 665.954 292.554 652.354 311.665 648.088C331.74 643.554 367.553 643.688 390.358 648.088ZM393.088 644.888C392.606 645.288 391.161 645.421 390.037 645.021C388.752 644.621 389.234 644.221 391 644.221C392.767 644.088 393.73 644.488 393.088 644.888ZM1180.66 645.954C1178.57 647.954 1158.49 652.888 1157.05 651.821C1156.09 650.888 1175.52 644.221 1179.53 644.088C1181.94 644.088 1182.1 644.488 1180.66 645.954ZM399.512 646.221C399.03 646.621 397.585 646.754 396.46 646.354C395.176 645.954 395.657 645.554 397.424 645.554C399.191 645.421 400.154 645.821 399.512 646.221ZM421.514 652.888C427.937 655.554 435.807 659.421 438.698 661.688L444.158 665.554L438.537 662.354C432.434 658.754 415.571 651.554 406.417 648.488C402.081 647.154 401.921 646.888 405.133 647.421C407.542 647.821 414.929 650.221 421.514 652.888ZM1108.23 648.088C1106.94 648.754 1105.18 649.421 1104.21 649.421C1103.41 649.421 1103.73 648.754 1105.02 648.088C1106.3 647.421 1108.23 646.754 1109.03 646.754C1109.99 646.754 1109.51 647.421 1108.23 648.088ZM1425.41 652.221C1428.62 654.621 1431.83 657.554 1432.8 658.888C1434.24 661.288 1434.08 661.288 1429.1 658.754C1426.21 657.288 1421.07 656.088 1417.86 656.088C1414.65 656.088 1385.42 663.421 1351.85 672.754C1285.05 691.288 1266.74 695.021 1227.87 697.421C1214.7 698.221 1199.45 699.421 1194.15 700.221C1180.98 702.088 1157.05 707.688 1150.14 710.754C1143.4 713.554 1134.08 721.021 1127.02 729.021C1124.29 732.221 1121.88 734.488 1121.56 734.354C1120.59 733.421 1127.98 719.554 1132.16 714.221C1140.19 703.954 1178.41 691.154 1211.49 687.554C1221.45 686.488 1238.47 684.621 1249.55 683.554C1274.29 681.021 1305.6 674.488 1336.28 665.421C1364.22 657.154 1403.57 648.354 1412.88 648.221C1418.34 648.088 1420.91 648.888 1425.41 652.221ZM1082.53 657.554C1071.45 661.954 1060.37 665.821 1057.64 666.221L1052.82 666.888L1057 664.888C1064.06 661.421 1098.11 649.688 1101 649.554C1101.96 649.554 1093.61 653.154 1082.53 657.554ZM1167.65 654.088C1167.65 656.221 1140.99 664.088 1133.76 664.088C1128.78 664.088 1136.17 660.754 1148.86 657.288C1161.55 653.688 1167.65 652.754 1167.65 654.088ZM1116.26 656.088C1114.81 656.621 1101.16 661.554 1085.9 666.754C1057.96 676.221 1042.7 680.088 1033.55 679.954C1028.89 679.954 1028.89 679.954 1035.16 677.821C1038.69 676.621 1047.04 673.954 1053.62 671.688C1064.55 668.088 1113.21 655.154 1117.06 654.888C1118.02 654.888 1117.54 655.421 1116.26 656.088ZM373.816 657.554C394.051 659.821 414.929 666.221 430.828 675.021C444.961 682.888 462.627 697.421 467.926 705.554L470.817 710.088L467.123 706.088C447.209 684.488 421.353 669.954 390.518 663.021C376.707 659.954 372.21 659.688 346.996 659.688C324.352 659.821 316.322 660.354 306.044 662.488C298.978 663.954 292.875 665.021 292.554 664.754C291.43 663.821 314.395 658.621 324.673 657.554C339.77 655.954 359.523 655.954 373.816 657.554ZM1426.37 660.221C1427.82 660.754 1429.74 662.221 1430.87 663.288C1432.8 665.154 1432.47 665.154 1427.98 663.954C1420.75 661.821 1406.3 666.488 1373.21 681.421C1326.96 702.621 1317.33 705.554 1285.21 708.754C1273.96 709.821 1257.26 712.221 1247.95 714.088C1237.99 716.088 1221.61 717.954 1207.8 718.888C1183.71 720.221 1158.17 724.621 1145.97 729.421C1142.27 730.888 1134.41 735.421 1128.3 739.554C1112.4 750.354 1112.08 750.488 1113.85 748.088C1119.31 740.354 1142.11 718.088 1147.73 714.888C1151.91 712.621 1162.03 709.554 1173.59 707.021C1191.42 703.154 1198.64 702.221 1244.74 698.754C1254.85 697.954 1270.11 696.088 1278.46 694.488C1290.99 692.354 1372.89 670.488 1406.94 660.221C1415.29 657.688 1420.43 657.688 1426.37 660.221ZM386.664 665.421C427.937 673.688 456.524 692.754 476.117 725.021C483.825 737.821 483.504 739.421 475.635 727.154C459.575 701.954 434.683 683.688 402.403 673.288C368.998 662.488 313.11 663.154 281.633 674.754C271.676 678.354 270.873 677.021 280.67 673.021C300.744 664.621 323.067 661.288 352.617 662.088C365.626 662.488 378.473 663.688 386.664 665.421ZM1124.29 663.421C1124.29 664.488 1114.81 668.088 1111.92 668.088C1109.99 667.954 1110.96 667.154 1114.65 665.421C1120.11 663.021 1124.29 662.088 1124.29 663.421ZM450.742 669.688L455.4 674.088L450.261 670.221C445.282 666.488 444.158 665.421 445.443 665.421C445.764 665.421 448.012 667.421 450.742 669.688ZM1430.71 668.754C1434.08 671.021 1437.77 676.888 1443.56 689.021C1452.39 707.554 1455.28 715.821 1451.59 711.821C1450.46 710.488 1444.84 703.554 1439.22 696.088C1430.87 685.288 1427.66 682.221 1422.2 680.088C1406.3 673.688 1389.76 678.888 1361.17 699.421C1341.42 713.688 1330.49 718.754 1310.42 722.754C1286.01 727.554 1244.58 733.421 1205.71 737.421C1137.46 744.488 1119.95 752.354 1080.93 793.288C1068.08 806.754 1059.41 813.421 1049.61 817.421C1043.35 819.954 1039.81 820.088 994.525 820.088L946.346 819.954L936.068 823.421C920.65 828.754 920.65 828.754 927.717 824.354C931.41 822.088 938.316 818.621 942.973 816.621C950.843 813.421 953.412 813.021 972.523 812.754C1018.13 811.954 1044.95 801.821 1094.74 766.354C1140.19 733.954 1144.52 731.421 1164.44 727.021C1180.66 723.421 1184.19 723.021 1209.4 721.554C1222.89 720.754 1238.95 718.754 1251.96 716.221C1263.53 713.954 1280.87 711.554 1290.51 710.754C1317.65 708.488 1325.36 705.954 1382.05 680.621C1399.39 672.888 1419.63 665.421 1423.32 665.421C1424.77 665.421 1428.14 666.888 1430.71 668.754ZM387.146 672.088C418.462 678.888 448.655 696.621 466.32 718.754C471.941 725.821 481.898 744.621 484.147 752.354C485.913 758.621 483.986 756.488 481.095 749.021C474.993 733.688 465.678 721.154 451.385 709.421C420.389 683.421 383.613 672.221 335.755 673.821C324.673 674.221 311.665 675.154 306.847 676.088C289.503 679.154 268.304 685.688 255.135 692.088L241.805 698.754L248.711 693.554C262.201 683.288 292.554 672.488 315.68 669.421C332.543 667.288 371.568 668.754 387.146 672.088ZM1101.8 670.488C1101.8 671.554 1094.9 674.754 1092.65 674.754C1092.17 674.754 1092.97 673.554 1094.58 672.088C1097.47 669.421 1101.8 668.488 1101.8 670.488ZM1148.38 670.621C1148.38 671.821 1108.23 689.421 1105.5 689.421C1104.86 689.421 1109.99 686.754 1117.06 683.554C1124.13 680.354 1133.92 675.821 1138.74 673.554C1148.86 668.888 1148.38 669.021 1148.38 670.621ZM1031.94 676.221C1020.06 679.288 998.058 680.888 992.598 679.021C989.225 677.821 990.51 677.554 999.825 677.421C1006.09 677.421 1015.4 676.488 1020.7 675.554C1026 674.488 1032.91 673.688 1035.96 673.688C1040.94 673.688 1040.46 673.954 1031.94 676.221ZM1112.24 679.421C1104.37 682.754 1097.15 685.421 1096.18 685.421C1092.17 685.421 1103.57 678.488 1111.44 676.221C1126.86 671.688 1127.18 673.288 1112.24 679.421ZM372.05 678.088C402.884 682.621 425.85 692.488 448.494 710.888C470.175 728.488 474.19 736.488 498.119 807.954C505.506 830.354 513.536 841.554 523.332 843.421C525.741 843.821 560.591 839.688 601.543 834.221C682.484 823.154 703.523 820.888 744.475 818.754C788.479 816.354 802.932 814.088 846.133 802.621C859.784 799.021 882.589 793.954 896.882 791.421C941.367 783.421 944.9 782.621 955.982 778.754C962.084 776.754 972.523 772.088 979.268 768.354C986.174 764.754 993.561 761.154 995.81 760.221L999.825 758.621L995.81 761.421C989.065 766.354 966.742 776.621 950.843 782.354C933.177 788.621 928.038 789.821 883.07 799.421C864.923 803.421 840.833 809.288 829.752 812.621C808.553 819.021 779.967 825.688 763.747 827.954C751.862 829.688 721.831 832.488 675.418 836.088C617.924 840.621 589.82 844.754 535.217 856.888C525.741 859.021 524.617 859.021 519.639 857.021C509.36 853.021 505.024 843.688 491.695 797.421C479.81 756.088 468.89 735.288 450.903 719.288C431.631 702.088 411.557 691.954 384.255 685.688C369.962 682.488 366.268 682.221 339.77 682.221C315.359 682.221 308.614 682.621 296.89 685.154C276.815 689.288 259.31 695.154 246.462 702.088L235.381 708.221L242.608 702.621C251.441 695.821 281.152 683.821 296.408 680.754C320.337 675.954 349.887 674.888 372.05 678.088ZM1093.77 678.488C1093.77 679.688 1086.55 683.421 1080.44 685.288C1074.02 687.421 1075.31 685.821 1083.66 681.421C1091.37 677.288 1093.77 676.621 1093.77 678.488ZM1145.17 678.221C1145.17 679.954 1139.38 682.888 1119.31 691.421C1108.07 696.221 1096.5 701.421 1093.61 703.154C1083.34 708.888 1058.44 721.421 1057.32 721.421C1050.73 721.421 1099.07 694.488 1123 684.754C1140.35 677.821 1145.17 676.354 1145.17 678.221ZM365.144 685.554C383.613 687.821 395.015 690.621 408.826 696.221C433.558 706.221 454.115 722.221 465.999 740.488C472.905 751.154 471.138 751.288 463.751 740.754C447.852 717.954 415.893 698.221 383.934 691.554C365.465 687.688 337.682 686.221 317.447 687.954C301.547 689.288 282.276 692.488 272.319 695.554C270.07 696.221 269.589 696.088 270.713 695.154C274.085 692.221 299.299 686.754 317.286 685.021C328.207 683.821 354.384 684.221 365.144 685.554ZM375.583 692.621C424.886 701.421 459.575 728.221 475.956 770.088C480.935 783.021 485.592 797.554 484.628 798.221C484.307 798.488 482.059 793.421 479.65 786.888C461.663 739.154 428.098 710.888 376.386 700.088C350.69 694.754 309.095 695.421 284.685 701.688C272.8 704.621 249.674 713.954 236.505 720.888C227.351 725.821 226.548 726.088 226.548 724.088C226.548 721.421 248.711 707.688 261.077 702.754C274.406 697.288 292.875 692.754 310.38 690.754C324.673 689.154 361.611 690.221 375.583 692.621ZM1103.41 689.954C1103.41 690.088 1100.04 692.221 1095.86 694.488C1091.53 696.754 1086.55 699.688 1084.62 700.888C1082.53 702.088 1080.93 702.754 1080.93 702.221C1080.93 701.154 1100.2 689.421 1101.96 689.421C1102.77 689.421 1103.41 689.688 1103.41 689.954ZM1133.12 692.221C1131.19 696.221 1100.52 711.021 1080.77 717.421C1069.04 721.288 1072.25 719.154 1090.56 710.754C1098.91 706.888 1110.8 700.888 1117.06 697.421C1131.35 689.421 1135.05 688.221 1133.12 692.221ZM367.232 704.754C403.045 709.954 433.719 726.888 453.954 752.888C458.933 759.154 462.627 764.488 462.145 764.888C461.663 765.288 458.772 761.954 455.4 757.554C429.222 721.554 376.065 702.221 316.644 706.754C296.087 708.354 277.458 711.954 262.683 717.021C249.032 721.821 245.82 722.754 245.82 722.088C245.82 721.021 257.704 715.421 267.983 711.554C290.627 703.288 335.594 700.221 367.232 704.754ZM1121.24 704.621C1117.22 708.621 1098.43 716.754 1074.02 725.021C1059.89 729.688 1048.16 733.288 1047.84 733.021C1047.2 732.488 1055.07 729.421 1087.99 717.421C1098.59 713.554 1110.48 708.754 1114.49 706.621C1122.84 702.221 1123.81 701.954 1121.24 704.621ZM249.032 704.621C249.032 705.021 246.623 706.488 243.893 708.088L238.593 711.021L243.411 707.554C248.39 703.954 249.032 703.688 249.032 704.621ZM368.677 711.688C402.081 716.888 432.113 733.288 451.706 757.288C461.663 769.421 467.123 779.288 473.868 797.154C479.971 813.688 479.65 817.954 473.226 802.488C462.948 777.421 447.691 757.154 429.543 744.621C411.235 731.954 383.291 721.688 358.399 718.754C344.106 717.021 313.11 717.154 297.854 718.888C281.633 720.754 263.807 725.421 241.966 733.554C232.33 737.154 224.139 739.821 223.497 739.421C216.591 733.554 276.173 713.021 310.22 709.554C324.834 707.954 351.493 709.021 368.677 711.688ZM1117.7 713.021C1114.01 716.754 1098.91 724.088 1088.15 727.421C1077.23 730.888 1056.84 735.154 1055.71 734.221C1055.39 733.954 1060.69 731.821 1067.6 729.421C1096.02 719.821 1110.8 714.354 1113.69 712.621C1118.18 710.088 1120.27 710.221 1117.7 713.021ZM212.255 725.421C207.759 731.021 186.56 750.221 161.506 771.554C113.97 812.088 102.567 822.888 87.4711 841.688C76.8716 855.021 70.2872 865.954 63.3815 881.821C61.1331 886.754 57.6 893.954 55.3516 897.821L51.1761 904.754L52.3003 899.421C54.0668 890.221 73.6597 848.354 86.0257 827.421C110.115 786.354 139.665 756.088 174.836 736.221C184.793 730.621 219 714.754 219.803 715.421C219.964 715.554 216.591 720.088 212.255 725.421ZM373.656 723.954C380.882 725.421 390.839 728.088 395.979 729.954C407.22 734.088 425.047 743.954 430.507 748.888C433.077 751.288 431.471 750.621 425.85 746.888C414.608 739.554 391.482 730.488 374.298 726.621C362.253 723.821 357.114 723.421 330.937 723.421C298.175 723.421 288.7 724.488 261.88 731.554C252.726 733.954 244.857 735.821 244.696 735.554C243.572 734.621 270.873 726.488 283.079 724.088C302.832 720.354 303.796 720.221 333.346 720.754C354.063 721.154 363.859 721.821 373.656 723.954ZM1112.08 724.754C1109.83 727.288 1103.73 731.688 1098.59 734.621C1089.44 739.688 1082.05 742.088 1049.61 750.754C1040.94 753.154 1025.2 758.354 1014.6 762.354C1004.16 766.354 995.328 769.421 995.007 769.154C994.525 768.888 1000.79 765.421 1008.66 761.554C1026 753.021 1057 741.288 1075.14 736.488C1088.31 733.021 1101.96 727.821 1110.64 722.888C1117.06 719.154 1117.06 719.288 1112.08 724.754ZM517.39 756.354C527.347 763.954 532.968 763.421 554.167 753.421C580.184 741.021 609.413 734.354 644.905 732.488C668.031 731.421 686.66 733.688 733.233 743.421C812.086 759.954 843.082 762.488 878.574 755.421C893.991 752.354 901.7 751.688 925.95 751.154C941.849 750.754 954.376 750.888 953.733 751.421C953.091 751.954 939.44 752.888 923.22 753.554C906.999 754.088 890.297 755.288 885.801 755.954C881.464 756.754 869.098 758.888 858.499 760.754C834.891 764.888 815.941 765.021 793.136 761.554C783.982 760.088 769.367 757.954 760.535 756.754C751.702 755.554 735.481 752.754 724.4 750.488C686.981 743.154 659.84 741.421 628.042 744.088C603.952 746.221 589.338 749.954 563 760.888C534.253 772.754 528.15 773.954 520.763 768.754C517.872 766.754 513.857 762.621 511.769 759.554C507.594 753.821 493.14 726.221 493.14 724.488C493.301 723.821 497.155 729.688 501.973 737.421C507.754 746.621 512.893 753.154 517.39 756.354ZM370.925 728.621C397.745 734.221 417.338 743.688 438.698 761.288C449.939 770.621 453.794 774.888 459.254 784.221C468.087 799.421 467.605 800.754 458.29 786.888C440.625 761.154 405.775 740.754 367.713 734.088C350.369 731.021 308.935 731.421 289.021 734.754C268.143 738.354 243.893 745.021 224.3 752.621C215.467 755.954 208.08 758.488 207.598 758.088C205.189 756.088 211.131 752.354 227.191 745.954C249.353 737.288 273.764 730.354 292.393 727.554C310.22 724.888 355.829 725.554 370.925 728.621ZM1040.62 730.754C1035 734.888 1015.56 743.554 1014.28 742.621C1013.48 741.821 1044.63 725.554 1045.43 726.221C1045.92 726.621 1043.67 728.621 1040.62 730.754ZM1119.15 730.888C1117.22 735.821 1108.39 747.288 1107.26 746.354C1106.78 746.088 1109.51 741.154 1113.21 735.554C1120.11 724.888 1122.36 723.021 1119.15 730.888ZM371.086 737.421C396.46 742.488 426.813 757.421 441.106 772.088C444.158 775.154 442.391 774.221 436.128 769.288C410.754 749.821 379.276 738.754 343.303 736.621C315.359 735.021 275.209 740.621 244.054 750.488C221.73 757.554 219.964 757.954 226.548 755.021C242.929 747.554 283.721 737.154 306.526 734.888C324.192 733.021 354.866 734.221 371.086 737.421ZM218.679 741.821C217.394 742.888 216.913 742.754 216.913 741.288C216.913 738.621 219 736.754 219.803 738.754C220.285 739.688 219.643 741.021 218.679 741.821ZM484.95 742.754C484.95 744.088 484.468 743.821 483.504 742.088C481.577 738.488 481.577 736.354 483.504 738.754C484.307 739.821 484.95 741.688 484.95 742.754ZM1102.77 743.421C1097.15 749.554 1084.14 758.088 1073.86 762.354C1061.33 767.688 1050.73 770.354 1021.67 775.421C980.874 782.621 966.099 787.821 945.061 802.221C919.847 819.421 904.59 825.954 862.996 837.821C822.043 849.554 799.56 857.688 740.46 882.088C709.946 894.621 675.579 907.954 664.176 911.821C637.678 920.488 600.419 929.421 565.248 935.421C531.523 941.154 516.908 942.488 511.609 940.088C504.542 937.021 497.797 920.488 495.549 901.421L494.585 892.754L498.44 902.888C502.936 915.154 505.988 919.288 512.572 922.088C518.193 924.621 516.908 924.754 573.439 913.954C657.592 897.688 671.082 893.954 756.199 863.954C796.027 849.954 827.183 839.821 849.345 833.954C904.59 819.154 927.395 810.888 945.222 799.021C950.521 795.421 959.033 790.621 964.172 788.354C969.151 785.954 977.18 782.221 981.998 780.088C991.795 775.554 1019.58 767.688 1048 761.421C1070.81 756.354 1083.34 751.821 1096.18 743.688C1101.48 740.354 1106.14 737.821 1106.46 738.088C1106.78 738.488 1105.18 740.888 1102.77 743.421ZM351.333 740.088C399.03 744.221 438.055 766.354 459.254 801.021C465.357 811.288 465.838 813.821 459.736 804.754C443.355 780.354 419.747 762.888 390.679 753.688C370.122 747.021 361.771 746.088 328.528 746.221C304.117 746.221 294.16 746.888 279.064 749.154C255.938 752.754 229.921 759.554 209.043 767.554C190.253 774.621 194.429 771.554 214.504 763.421C243.732 751.421 279.224 742.888 309.256 740.221C327.404 738.621 334.47 738.621 351.333 740.088ZM1055.07 739.154C1052.18 741.288 1003.84 759.688 1005.29 758.221C1009.62 753.821 1025.36 746.221 1037.08 742.621C1047.68 739.421 1057.48 737.554 1055.07 739.154ZM209.204 746.354C207.277 749.154 197.641 754.221 197.641 752.354C197.641 750.754 208.883 742.354 210.007 743.288C210.328 743.554 210.007 745.021 209.204 746.354ZM375.101 751.954C397.906 757.021 422.959 769.421 438.537 783.688C447.209 791.554 461.021 809.954 461.021 813.421C460.86 814.488 458.29 811.554 454.918 806.754C442.231 788.221 415.571 769.554 389.876 761.421C335.915 744.088 241.645 755.954 182.224 787.554C177.245 790.221 172.909 791.954 172.266 791.554C167.609 787.688 210.97 767.821 241.805 759.688C275.691 750.754 298.496 748.088 335.755 748.754C356.15 749.021 365.144 749.821 375.101 751.954ZM496.352 759.021C501.491 770.621 510.485 785.421 514.66 789.154C520.12 794.354 526.544 796.488 533.129 795.421C536.341 794.888 550.473 790.888 564.606 786.488C601.704 774.888 613.749 772.354 644.905 769.954C676.863 767.421 701.435 768.088 726.006 771.954C802.129 784.088 822.365 784.621 865.084 775.688C877.289 773.154 890.297 770.621 893.83 770.221C905.233 768.754 948.112 765.421 948.755 765.954C949.076 766.221 943.455 767.154 936.068 767.954C899.933 772.221 873.435 776.621 854.805 781.688C835.052 787.021 833.606 787.154 807.911 787.821C788.8 788.221 769.849 787.554 739.657 785.421C706.092 783.021 690.996 782.621 662.57 783.154C621.618 783.954 619.53 784.354 571.833 797.154C527.187 809.154 528.793 808.888 522.048 805.154C514.018 800.621 508.718 792.488 499.564 770.754C490.892 749.954 491.213 750.754 492.176 750.754C492.498 750.754 494.425 754.488 496.352 759.021ZM1062.46 755.421C1059.89 756.488 1056.52 757.288 1055.23 757.288C1053.95 757.288 1055.39 756.354 1058.44 755.421C1065.83 753.021 1068.72 753.154 1062.46 755.421ZM1088.96 760.221C1080.44 766.354 1066.95 772.488 1054.11 776.221C1043.19 779.288 1018.94 782.754 1008.66 782.621C998.701 782.621 1002.72 781.421 1031.14 776.088C1057.48 771.288 1073.54 766.221 1086.07 758.888C1090.72 756.088 1094.9 754.088 1095.38 754.488C1095.86 754.754 1092.97 757.421 1088.96 760.221ZM189.932 767.021C186.078 769.954 182.545 771.954 181.902 771.421C181.26 770.888 183.99 768.088 187.844 765.288C196.998 758.488 198.926 759.954 189.932 767.021ZM969.311 766.621C966.099 769.154 944.419 773.688 916.314 777.554C900.415 779.821 878.092 783.688 866.529 786.221C855.126 788.754 835.855 792.888 823.971 795.554C796.348 801.554 779.967 802.354 731.788 800.088C672.206 797.288 652.453 799.154 571.833 815.421C529.596 823.821 527.508 824.088 522.529 822.221C515.784 819.554 509.2 809.954 502.294 792.221C494.425 772.621 493.461 766.221 500.527 781.421C503.739 788.354 508.879 796.888 511.769 800.221C516.748 805.821 525.259 810.754 530.077 810.754C531.041 810.754 548.546 806.221 569.103 800.621C589.498 795.021 611.34 789.688 617.442 788.621C638.641 784.888 689.39 784.754 736.124 788.088C767.119 790.354 784.785 790.888 805.984 790.488C833.767 789.821 834.891 789.688 854.645 784.488C876.486 778.621 886.604 776.888 936.389 770.221C954.536 767.688 969.632 765.688 970.114 765.554C970.435 765.554 970.114 765.954 969.311 766.621ZM493.14 776.621C492.979 777.421 492.016 776.088 490.731 773.554C489.446 771.154 488.322 768.488 488.322 767.554C488.483 766.754 489.446 768.088 490.731 770.621C492.016 773.021 493.14 775.688 493.14 776.621ZM963.69 772.754C963.69 774.754 938.958 781.288 918.241 784.754C894.473 788.754 865.405 794.888 845.651 800.088C801.648 811.688 787.033 813.954 744.154 816.088C705.932 817.954 677.506 821.021 599.937 831.554C564.606 836.488 532.968 840.754 529.596 841.021C523.975 841.688 523.011 841.288 516.587 835.821C510.966 830.888 508.879 827.554 504.703 816.621C499.082 802.088 492.658 780.088 493.622 779.288C493.943 779.021 496.191 784.221 498.6 791.021C501.009 797.688 505.024 806.621 507.594 810.754C512.251 818.488 521.887 826.754 526.223 826.754C527.508 826.754 547.904 822.888 571.512 818.221C620.494 808.354 632.699 806.221 652.934 803.954C670.279 801.954 711.392 801.688 757.323 803.288C796.187 804.621 804.86 803.688 847.9 792.888C860.747 789.688 882.589 785.421 896.239 783.421C909.89 781.421 929.804 778.088 940.404 776.088C961.281 772.088 963.69 771.688 963.69 772.754ZM1073.54 777.554C1068.56 782.088 1045.43 794.354 1032.43 799.288C1012.51 807.021 999.343 809.421 973.326 810.354C959.997 810.754 947.791 811.821 944.9 812.888C942.01 813.821 939.601 814.354 939.601 814.088C939.601 811.821 954.215 807.554 975.735 803.554C1024.4 794.221 1047.52 788.088 1066.47 779.021C1076.91 773.954 1077.55 773.821 1073.54 777.554ZM1047.2 783.954C1039.97 787.421 974.932 802.088 971.238 801.021C969.311 800.488 994.043 794.354 1025.52 787.688C1048.49 782.621 1050.73 782.354 1047.2 783.954ZM1019.74 785.954C1019.42 786.221 1012.99 787.821 1005.45 789.421C987.619 793.021 962.887 799.821 955.179 803.021C951.646 804.488 948.594 805.288 948.273 805.021C946.506 803.554 969.954 790.354 979.589 787.421C984.729 785.821 1021.51 784.488 1019.74 785.954ZM952.448 789.554C941.367 797.288 912.139 807.288 876.165 815.821C867.332 817.954 845.651 823.421 827.986 827.821C784.624 838.888 746.563 846.488 627.399 868.088C593.513 874.221 561.715 881.554 536.823 888.754C518.193 894.221 514.339 893.821 508.879 885.954C505.345 881.021 498.761 859.954 497.316 849.421L496.352 842.088L500.849 852.888C506.148 865.288 510.806 871.288 517.23 874.088C523.332 876.754 526.223 876.621 541.48 873.421C548.386 871.954 573.439 867.688 597.207 863.954C716.049 845.421 806.787 827.821 864.923 812.088C872.953 809.954 886.764 806.621 895.918 804.754C915.029 800.754 933.659 795.288 945.222 790.354C954.857 786.221 957.909 785.821 952.448 789.554ZM923.38 794.754C922.096 795.421 911.978 798.088 900.897 800.754C889.976 803.421 867.974 808.888 852.075 812.754C816.583 821.554 785.427 828.488 784.464 827.688C784.142 827.421 788.639 826.088 794.581 824.754C800.684 823.421 816.744 819.154 830.394 815.154C844.045 811.154 870.544 804.621 889.013 800.754C924.505 793.288 927.556 792.754 923.38 794.754ZM139.826 810.621C139.826 812.354 128.584 824.088 126.817 824.088C124.569 824.088 128.102 818.888 133.884 813.688C139.183 809.154 139.826 808.754 139.826 810.621ZM115.254 817.021C103.531 830.488 96.4645 840.088 86.0257 857.421C67.7176 887.821 62.2573 901.821 58.7242 927.421C56.3152 945.021 49.0883 969.421 41.0584 986.888C38.6495 991.954 36.4011 996.088 36.2405 995.821C35.9193 995.554 36.7223 991.821 38.0071 987.421C39.1313 983.021 41.3796 971.421 42.6644 961.554C47.6429 925.954 50.6943 915.154 62.0967 891.154C78.7988 856.221 86.9893 844.221 111.4 819.021C121.036 809.288 123.124 808.088 115.254 817.021ZM909.087 813.421C904.43 815.821 877.61 824.088 856.09 829.554C827.825 836.621 804.699 843.821 774.988 854.354C690.835 884.488 663.213 893.021 623.384 901.421C592.229 907.821 521.084 921.421 518.033 921.421C516.908 921.421 513.696 919.954 511.127 918.088C505.827 914.488 497.958 896.754 498.119 889.154C498.119 885.288 498.6 885.821 501.973 893.421C506.309 903.021 511.93 908.088 518.514 908.088C520.923 908.088 532.005 905.954 542.925 903.288C554.006 900.621 582.111 894.621 605.398 889.954C679.433 874.888 738.372 860.488 804.699 841.288C822.846 836.088 848.863 828.754 862.514 825.154C876.165 821.554 892.064 817.154 897.845 815.421C909.087 812.088 912.942 811.421 909.087 813.421ZM130.832 833.021C125.533 840.888 124.569 841.688 126.175 837.421C127.46 833.954 133.081 826.754 134.526 826.754C135.008 826.754 133.402 829.554 130.832 833.021ZM124.569 831.954C119.43 840.354 110.758 851.288 111.721 848.088C113.97 841.554 116.86 836.754 121.197 832.354C126.657 827.021 127.781 826.888 124.569 831.954ZM782.055 828.621C779.967 830.354 681.2 847.954 620.815 857.421C566.051 865.954 538.75 870.621 533.771 872.221C523.172 875.554 514.821 872.088 508.397 861.421C504.382 854.888 497.155 835.021 498.279 833.954C498.761 833.688 500.688 837.421 502.776 842.221C506.951 852.221 514.339 859.421 521.887 860.754C525.099 861.288 531.683 860.488 540.837 858.221C585.002 847.821 616.318 843.554 700.311 836.754C744.636 833.154 761.498 831.421 770.973 829.554C777.237 828.221 783.179 827.821 782.055 828.621ZM905.875 830.754C898.809 835.421 870.704 846.221 841.636 855.421C790.406 871.554 750.899 889.821 711.713 915.288C651.328 954.621 628.363 966.088 594.959 973.688C584.681 975.954 577.614 976.488 558.182 976.621C532.005 976.754 518.354 974.888 511.609 970.488C506.309 967.021 500.527 957.421 498.119 948.354C495.549 938.221 496.031 934.088 498.922 940.888C500.206 943.954 503.739 948.754 506.791 951.821C514.821 959.421 522.369 960.754 558.985 960.621C585.965 960.621 590.141 960.221 603.952 957.154C635.429 949.821 658.555 939.954 700.15 916.088C756.68 883.554 805.663 861.421 850.469 848.221C863.799 844.354 882.107 838.354 891.421 834.754C911.014 827.421 911.175 827.288 905.875 830.754ZM819.474 834.088C794.26 843.154 679.272 872.088 622.742 883.554C602.186 887.688 571.19 894.354 553.685 898.221C536.18 902.221 520.281 905.421 518.193 905.421C513.054 905.421 508.076 900.488 504.382 891.688C499.885 881.021 500.527 878.221 505.667 886.088C513.215 897.554 514.821 897.688 546.78 888.888C578.417 880.221 595.601 876.621 657.271 865.554C714.604 855.154 779.967 842.221 802.29 836.754C821.401 832.088 827.825 831.021 819.474 834.088ZM105.137 843.954C103.691 846.354 102.246 847.954 101.764 847.688C101.443 847.288 102.246 845.154 103.691 842.754C105.137 840.354 106.582 838.754 107.064 839.021C107.385 839.421 106.582 841.554 105.137 843.954ZM849.666 845.421C848.381 846.088 846.615 846.754 845.651 846.754C844.848 846.754 845.169 846.088 846.454 845.421C847.739 844.754 849.666 844.088 850.469 844.088C851.433 844.088 850.951 844.754 849.666 845.421ZM838.264 848.754C837.782 849.021 830.394 851.821 821.562 854.754C786.391 867.021 758.286 880.354 704.486 910.488C648.598 941.821 624.027 951.688 588.695 956.888C564.124 960.488 521.726 958.354 511.93 953.021C508.236 951.021 502.776 943.288 500.367 936.221C499.403 933.554 500.367 933.954 505.827 938.754L512.412 944.488L524.778 943.688C547.904 942.088 600.74 932.221 637.517 922.488C663.855 915.554 683.287 908.488 738.372 885.954C796.669 861.954 843.082 844.621 838.264 848.754ZM878.895 850.221C872.31 854.088 841.315 865.554 815.941 873.554C763.265 890.354 742.708 902.088 684.893 948.354C644.744 980.621 629.166 990.888 606.361 1000.35C584.199 1009.69 555.934 1012.89 531.683 1008.89C515.945 1006.22 510.645 1004.09 506.309 999.154C502.294 994.221 496.994 982.221 495.71 974.754L494.746 968.754L498.761 975.421C506.951 988.754 515.142 992.354 542.604 994.621C571.19 996.888 594.316 993.021 621.618 981.288C642.014 972.621 659.037 962.088 692.441 937.954C752.023 894.888 772.74 884.088 840.03 862.088C857.214 856.488 873.113 851.021 875.362 849.954C880.983 847.554 883.231 847.688 878.895 850.221ZM107.706 869.421C104.976 874.888 103.21 877.554 103.691 875.421C104.976 870.354 111.561 856.888 112.042 858.354C112.364 858.888 110.276 863.954 107.706 869.421ZM869.741 858.621C866.85 861.021 839.388 871.821 816.744 879.421C790.888 888.221 760.535 899.954 752.987 904.088L747.687 907.021L752.505 903.421C762.622 896.088 789.442 885.021 825.737 873.021C846.454 866.088 864.923 859.821 866.529 859.021C870.544 857.154 871.668 857.021 869.741 858.621ZM86.3469 893.421C82.4926 905.554 77.1928 922.488 74.6233 931.021C66.9146 957.821 66.9146 948.088 74.7839 917.421C79.2806 899.154 91.6466 867.288 92.7708 870.221C93.092 870.888 90.2012 881.421 86.3469 893.421ZM93.092 898.754C87.6317 921.954 84.4197 932.754 83.9379 930.354C83.1349 926.754 94.2162 884.221 95.5009 885.688C95.8221 885.821 94.698 891.821 93.092 898.754ZM76.8717 896.888C75.9081 899.688 73.1779 909.821 70.769 919.421C67.3964 932.354 66.2722 935.288 66.1116 931.021C65.951 923.821 69.966 907.288 74.3021 897.821C77.9958 889.554 79.6018 889.021 76.8717 896.888ZM102.888 895.688C101.122 897.954 101.122 897.954 101.925 895.688C102.407 894.354 102.888 892.488 103.049 891.688C103.049 890.488 103.37 890.488 103.852 891.688C104.334 892.621 103.852 894.354 102.888 895.688ZM715.567 917.288C653.416 964.621 620.012 983.421 585.162 990.221C560.912 995.021 519.639 991.821 510.163 984.488C504.864 980.354 500.527 973.288 497.958 964.354C495.71 956.088 496.673 953.688 499.564 960.754C502.133 967.288 509.842 974.221 516.105 975.954C523.332 977.821 546.458 980.088 559.146 980.088C589.338 980.088 626.115 969.821 655.825 953.154C669.155 945.688 693.405 930.888 705.61 922.621C710.91 919.021 715.728 916.088 716.21 916.088C716.692 916.088 716.37 916.621 715.567 917.288ZM713.801 931.021C709.465 934.888 699.668 943.421 692.281 950.088C659.037 979.421 634.305 999.554 622.742 1006.89C589.98 1027.42 556.897 1033.69 524.296 1025.29C511.609 1022.09 505.827 1017.95 501.33 1009.42C497.637 1002.35 494.425 990.754 496.191 990.754C496.673 990.754 498.922 993.554 501.009 996.888C506.148 1004.89 514.339 1008.62 532.486 1011.55C565.73 1016.62 595.762 1010.62 629.166 991.954C645.708 982.621 655.665 975.421 689.872 948.354C720.385 924.088 728.897 917.954 713.801 931.021ZM89.3982 950.088C88.2741 955.288 87.1499 957.821 86.9893 955.821C86.8287 951.821 90.3618 937.688 91.1648 939.554C91.486 940.221 90.683 945.021 89.3982 950.088ZM71.5719 979.021C70.1266 994.621 68.36 1008.89 67.7176 1010.75C66.4328 1013.95 66.2722 1013.82 65.148 1008.89C63.2209 1000.62 65.3086 975.154 69.163 961.688C71.0901 954.888 73.0173 949.554 73.4991 949.954C73.9809 950.221 73.0173 963.421 71.5719 979.021ZM92.4496 1123.42C92.4496 1139.95 91.9678 1145.55 90.0406 1148.09C87.7923 1151.29 87.6317 1151.15 86.6681 1142.75C84.9015 1128.35 85.0621 1113.02 87.1499 1104.89C90.2012 1091.69 92.4496 1099.15 92.4496 1123.42ZM100.158 1133.82C100.479 1146.75 97.7493 1155.55 91.486 1161.69L86.9893 1166.09L86.8287 1161.02C86.8287 1158.09 88.1135 1154.35 89.7194 1152.35C94.698 1146.49 96.4645 1140.22 96.4645 1128.89C96.6251 1114.22 99.8371 1118.62 100.158 1133.82ZM73.4991 1132.35C73.0173 1133.42 72.5355 1133.02 72.5355 1131.55C72.3749 1130.09 72.8567 1129.29 73.3385 1129.82C73.8203 1130.22 73.9809 1131.42 73.4991 1132.35ZM73.4991 1141.02C73.0173 1142.35 72.6961 1141.55 72.6961 1139.42C72.6961 1137.15 73.0173 1136.22 73.4991 1137.02C73.8203 1137.95 73.8203 1139.82 73.4991 1141.02ZM63.3815 1159.42C68.5206 1161.29 69.163 1161.82 68.1994 1165.15C66.754 1170.22 66.1116 1170.49 63.2209 1167.42C60.3301 1164.09 55.994 1157.42 56.9576 1157.42C57.2788 1157.42 60.1695 1158.35 63.3815 1159.42ZM71.8931 1167.69C71.4113 1169.02 71.0901 1167.95 71.0901 1165.42C71.0901 1162.89 71.4113 1161.82 71.8931 1163.02C72.2143 1164.35 72.2143 1166.49 71.8931 1167.69ZM67.557 1176.22C67.557 1176.89 66.9146 1177.42 65.951 1177.42C65.148 1177.42 64.3451 1176.49 64.3451 1175.29C64.3451 1174.22 65.148 1173.69 65.951 1174.09C66.9146 1174.49 67.557 1175.42 67.557 1176.22ZM81.529 1179.69C81.0472 1181.02 80.726 1179.95 80.726 1177.42C80.726 1174.89 81.0472 1173.82 81.529 1175.02C81.8502 1176.35 81.8502 1178.49 81.529 1179.69ZM70.9296 1180.49C69.6448 1181.55 69.163 1181.15 69.163 1179.29C69.163 1175.69 71.4113 1173.82 72.0537 1176.75C72.3749 1177.95 71.8931 1179.69 70.9296 1180.49ZM72.6961 1194.75C72.3749 1196.89 71.4113 1198.49 70.769 1198.09C69.3236 1197.42 70.6084 1190.75 72.2143 1190.75C72.8567 1190.75 73.1779 1192.49 72.6961 1194.75ZM65.4692 1206.35C64.3451 1212.22 62.7391 1213.69 59.5271 1212.09C57.4394 1211.02 57.6 1210.22 60.1695 1206.09C64.1845 1199.95 66.5934 1200.09 65.4692 1206.35ZM57.6 1217.42C55.6728 1219.82 51.4973 1221.15 51.4973 1219.42C51.4973 1217.95 55.5122 1214.89 57.6 1214.75C59.2059 1214.75 59.2059 1215.29 57.6 1217.42ZM52.3003 1222.75C51.8185 1223.42 50.5337 1224.09 49.7307 1224.09C48.7671 1224.09 48.6065 1223.42 49.0883 1222.75C49.5701 1221.95 50.8549 1221.42 51.6579 1221.42C52.6215 1221.42 52.782 1221.95 52.3003 1222.75ZM45.0734 1224.62C45.0734 1224.89 42.3432 1226.75 39.1313 1228.89C33.5104 1232.35 33.1892 1231.42 38.3283 1226.35C40.416 1224.35 45.0734 1223.15 45.0734 1224.62ZM43.4674 1233.82C43.4674 1234.09 41.8614 1235.42 39.9343 1236.89L36.2405 1239.42L39.2919 1236.35C42.1826 1233.55 43.4674 1232.75 43.4674 1233.82ZM24.8381 1244.62C20.3414 1247.29 12.9539 1248.75 12.9539 1247.02C12.9539 1245.42 20.0202 1243.02 24.9987 1242.89C28.0501 1242.75 28.0501 1242.75 24.8381 1244.62Z" fill="white" fill-opacity="0.05"/>
</svg>
