<svg width="993" height="1056" viewBox="0 0 993 1056" fill="none" xmlns="http://www.w3.org/2000/svg">
<path fill-rule="evenodd" clip-rule="evenodd" d="M0 1056H992V737.025L985.204 733.603C967.776 724.826 954.939 710.12 940.159 682C932.252 666.955 929.204 659.127 923.03 638C917.593 619.394 911.401 605.423 901.767 590.022C895.124 579.402 891.198 576.751 882.87 577.264C875.795 577.699 869.894 581.141 856.352 592.731C845.069 602.387 840.34 605.399 831.313 608.675C822.727 611.792 781.108 619.328 757.5 622.041C734.773 624.652 726.139 626.686 715.5 631.935C705.311 636.961 696.162 645.299 682.611 661.911C672.489 674.318 665.821 680.342 659.381 682.897C657.175 683.772 647.078 684.188 624.881 684.317L593.5 684.5L587.235 687.707C580.341 691.235 575.248 694.596 561 705.019C550.267 712.87 536.418 720.025 514.5 729.043C473.151 746.054 471.106 747.572 426.581 794.268C404.454 817.474 394.507 825.991 382.009 832.431C363.99 841.716 347.245 843.152 330.326 836.863C316.119 831.582 313.573 823.578 310.485 774.5C307.635 729.19 303.839 707.249 295.26 686.5C284.576 660.66 263.539 642.397 237.5 636.356C231.19 634.892 225.698 634.516 211.5 634.575C178.337 634.714 154.425 640.806 126.5 656.228C111.481 664.523 108.977 666.695 101.522 677.893C87.261 699.315 75.941 729.69 66.035 773.117C60.081 799.219 58.86 808.897 58.729 831C58.598 853.204 59.3 858.796 65.511 885C73.789 919.926 73.495 931.495 64.102 940.425C62.213 942.221 60.812 944.73 60.474 946.925C58.766 958 57.656 962.528 55.402 967.625C50.106 979.6 40.283 991.372 29.637 998.5C25.53 1001.25 21.487 1004.62 20.653 1006C18.468 1009.6 8.168 1019.5 7.401 1018.73C7.045 1018.38 9.528 1015.31 12.92 1011.92C16.312 1008.53 18.866 1005.53 18.597 1005.26C18.328 1004.99 15.809 1005.33 13 1006C7.692 1007.27 5.146 1006.62 8.378 1004.81C9.76 1004.03 9.918 1003.57 8.992 1002.99C7.398 1002.01 8.596 1000.01 10.809 999.965C11.739 999.945 13.625 999.286 15 998.5C17.405 997.125 17.299 997.07 12.191 997.035C4.934 996.987 6.477 995.396 14.626 994.523C20.488 993.896 21.769 993.355 25.384 989.983C27.641 987.877 29.229 985.896 28.913 985.58C28.382 985.049 19.057 987.283 11.184 989.827C8.753 990.612 7.967 990.599 8.242 989.775C8.737 988.288 17.997 985.126 25.5 983.882C31.926 982.816 36.779 980.379 35.341 978.941C33.431 977.031 14.449 971.877 11.184 972.382C8.878 972.739 7.988 972.531 8.261 971.698C9.056 969.276 15.634 969.927 26.001 973.452C31.739 975.404 36.786 977 37.217 977C39.127 977 37.53 974.704 31.021 968.091C26.186 963.178 23.298 961 21.621 961C20.29 961 16.805 962.8 13.877 965C5.105 971.591 4.497 969.815 13.177 962.954C20.544 957.131 22.486 957.468 31.674 966.164L39.243 973.329L41.101 970.914C43.991 967.158 45.276 962.22 44.76 956.851C44.216 951.196 41.497 947.649 36.421 945.974C31.962 944.502 27.948 946.648 16.701 956.516C11.862 960.762 7.587 963.919 7.201 963.532C6.428 962.756 14.261 955.457 23.349 948.487C28.281 944.704 29.903 944 33.695 944C36.666 944 39.196 944.715 41.153 946.109C42.782 947.269 44.333 948 44.599 947.734C44.866 947.468 44.338 945.385 43.426 943.106C38.801 931.547 28.748 932.505 13.82 945.928C7.905 951.246 4.658 951.589 10.289 946.301C19.453 937.696 28.052 933 34.649 933C36.492 933 38 932.744 38 932.43C38 932.117 36.633 929.874 34.962 927.445C31.868 922.947 29.341 921 26.601 921C24.25 921 18.654 926.373 12.849 934.203C9.96 938.1 7.425 940.774 7.215 940.145C6.657 938.471 18.072 923.893 22.075 921.169C24.579 919.464 26.38 918.978 28.772 919.359C32.327 919.927 32.312 919.288 28.677 915.25C25.107 911.284 21.617 912.241 14.409 919.163C6.262 926.986 4.622 925.962 12.518 917.982C19.462 910.965 23.863 909.025 27.471 911.389C29.886 912.971 35 919.087 35 920.392C35 922.787 42.461 932.252 45.484 933.694C47.404 934.609 49.152 935.165 49.369 934.929C49.585 934.693 50.087 929.628 50.483 923.674L51.203 912.847L46.56 913.543C42.225 914.193 41.413 913.928 34.284 909.528C30.086 906.937 25.113 904.568 23.234 904.263C20.061 903.748 19.394 904.16 13.906 910.018C10.654 913.488 7.722 916.055 7.389 915.722C6.481 914.814 15.073 905.013 18.19 903.402C22.549 901.147 25.006 901.706 34 907C43.112 912.363 45.307 912.874 48.777 910.443C51.136 908.791 51.638 904.491 50.368 896.81L49.758 893.119L46.983 895.171C43.181 897.981 36.699 898.506 29.356 896.597C19.357 893.998 15.665 894.404 11.003 898.616C8.29 901.067 7 901.735 7 900.689C7 899.84 8.678 897.763 10.728 896.073C13.814 893.529 15.336 893 19.569 893C22.381 893 26.891 893.67 29.591 894.489C35.51 896.285 40.03 896.399 43.453 894.839C46.513 893.445 46.775 892 43.968 892C41.101 892 35.597 889.57 27.757 884.844C19.724 880.001 17.839 880.163 12.042 886.197C9.838 888.491 7.694 890.027 7.278 889.611C6.861 889.195 8.845 886.637 11.686 883.927C18.112 877.797 20.726 877.592 28.15 882.634C38.993 889.998 46.846 892.024 48.994 888.012C50.141 885.867 49.276 873 47.984 873C47.578 873 46.685 873.675 46 874.5C43.62 877.368 37.889 876.333 32.11 871.991C29.176 869.786 25.673 867.705 24.327 867.367C22.091 866.806 13.008 868.606 8.75 870.454C7.745 870.891 7 870.789 7 870.216C7 869.032 13.174 866.433 18.247 865.482C23.504 864.495 27.131 865.621 33.136 870.102C39.433 874.8 43.179 875.011 46.277 870.843L48.251 868.187L45.432 850.093C43.881 840.142 42.353 832 42.035 832C41.717 832 40.154 837.178 38.563 843.508C35.006 857.65 33.35 860.6 28.296 861.798C19.542 863.872 8.438 865.721 7.622 865.24C5.979 864.274 9.709 863.055 18.829 861.581C29.45 859.863 31.727 858.845 33.122 855.189C36.43 846.525 41.957 821.933 41.875 816.243C41.769 808.863 40.635 807.502 38.957 812.741C36.765 819.582 28.795 834.057 23.479 840.851C17.755 848.167 9.344 855.33 7.683 854.304C7.065 853.922 7.633 853.007 9.067 852.078C14.079 848.828 19.952 842.708 24.767 835.716C30.784 826.979 33.152 822.396 37.596 810.889C40.391 803.653 40.99 800.771 40.943 794.788L40.886 787.5L37.904 797.5C34.094 810.276 26.306 826.077 20.634 832.541C15.784 838.068 8.352 843.685 7.292 842.626C6.923 842.256 7.719 841.186 9.06 840.247C13.122 837.405 19.041 831.792 20.137 829.744C21.114 827.918 21.017 827.926 18.335 829.878C14.254 832.849 8.221 835.167 7.52 834.033C7.198 833.511 9.202 832.108 11.974 830.916C21.48 826.827 26.904 817.796 29.482 801.768C31.122 791.577 34.023 769.219 33.929 767.5C33.899 766.95 32.767 769.815 31.414 773.867C26.143 789.644 18.257 803.118 10.944 808.841C5.761 812.897 6.528 810.428 12.22 804.737C21.876 795.08 28.734 778.801 35.023 750.604C37.533 739.351 41.626 726.879 48.511 709.5C61.821 675.905 75.703 653.331 94.638 634.491C105.965 623.221 114.524 616.936 130 608.521C135.775 605.381 141.57 601.842 142.878 600.656C145.195 598.555 151.462 586.129 150.626 585.293C149.81 584.477 134.415 592.836 128.5 597.307C125.2 599.801 115.048 609.19 105.94 618.171C78.217 645.506 67.709 661.627 34.675 727.5C14.117 768.496 8.05 779.534 7.288 777.323C7.065 776.676 8.099 774.22 9.586 771.864C11.073 769.509 21.801 748.663 33.427 725.541C66.35 660.06 76.482 644.617 105.114 616.286C124.239 597.362 130.619 592.201 140.939 587.308C150.218 582.908 152.013 581.331 157.676 572.602C173.785 547.773 190.568 530.912 205.551 524.504C215.816 520.115 219.243 519.524 234.5 519.516C252.087 519.507 260.694 521.372 275.5 528.399C287.895 534.283 298.157 542.362 314 558.712C327.531 572.675 332.114 576 337.83 576C339.495 576 348.74 572.426 358.375 568.057C368.009 563.688 378.818 559.21 382.396 558.105C417.502 547.262 449.935 553.377 504.673 581.161C515.578 586.696 526.27 591.858 528.434 592.633C531.98 593.902 552.181 597.605 585.5 603.094C602.9 605.96 625.198 606.638 636.5 604.645C649.191 602.406 662.61 597.808 671.087 592.792C678.307 588.52 685.617 582.284 684.599 581.266C684.305 580.972 681.013 582.562 677.282 584.799C673.552 587.037 668.475 589.622 666 590.544C663.525 591.467 659.652 593.044 657.392 594.049C645.399 599.385 623.215 602.489 602.741 601.696C585.264 601.019 573.627 598.851 555 592.801C538.934 587.583 530.285 583.505 510 571.581C483.23 555.846 460.794 545.506 442.5 540.475C438.943 539.497 430.76 538.608 422.402 538.291C400.277 537.453 390.506 540.176 354.976 557.077C346.949 560.895 339.095 563.99 337.461 563.978C330.895 563.929 324.838 559.98 308.647 545.191C292.519 530.458 277.492 521.674 259.5 516.46C247.453 512.969 230.488 512.083 220.5 514.424C204.201 518.243 188.847 529.011 172.42 548.142C158.87 563.923 155.204 567.249 148.99 569.402C131.547 575.446 113.477 590.14 93.53 614.5C72.424 640.276 61.455 658.431 43.985 696.5C27.492 732.439 10.624 764 7.908 764C6.485 764 6.794 763.16 9.868 758.68C14.37 752.117 27.073 728.001 34.983 711C49.848 679.048 58.852 661.142 65.866 649.582C83.195 621.021 110.627 589.689 129.229 577.213C133.228 574.53 140.655 570.624 145.733 568.532C155.783 564.393 157.106 563.234 171.892 545.617C198.381 514.056 226.527 504.592 262.5 515.149C279.263 520.069 294.448 529.255 311 544.487C332.719 564.476 334.474 564.888 355 554.829C384.203 540.518 399.536 535.892 418 535.825C443.959 535.73 467.012 544.16 511.5 570.016C535.232 583.808 545.731 588.523 563.766 593.488C585.571 599.492 612.504 601.883 627.5 599.147C631.939 598.338 631.245 598.222 621.322 598.118C607.049 597.967 597.322 596.642 583.209 592.925C559.714 586.737 544.376 579.4 516.5 561.013C495.47 547.142 470.895 534.113 457.267 529.608C434.751 522.166 414.034 521.374 395 527.226C387.29 529.597 361.993 540.932 350 547.39C336.259 554.789 330.611 553.706 312.889 540.276C280.586 515.795 261.751 507.941 235.286 507.916C214.772 507.896 200.115 515.454 174 539.521C163.69 549.023 158.466 552.464 150.5 555.001C134.805 560 114.414 575.849 98.674 595.285C84.524 612.757 62.874 647.426 49.239 674.445C42.316 688.165 33.95 703.465 30.648 708.445C24.955 717.032 10.248 733 8.032 733C5.95 733 7.081 730.383 9.878 728.731C14.232 726.159 23.163 716.072 29.304 706.791C32.321 702.231 40.431 687.25 47.325 673.5C56.944 654.313 63.168 643.501 74.091 627C91.841 600.186 98.186 591.81 108.968 580.958C123.088 566.746 137.098 557.228 150.715 552.597C160.577 549.243 160.962 548.985 172.849 537.814C190.546 521.184 200.282 514.466 213.607 509.692C228.694 504.287 244.235 504.235 262.5 509.528C278.471 514.156 290.42 520.759 311.892 536.823C318.272 541.595 325.482 546.513 327.915 547.75C335.459 551.587 338.229 550.978 358.357 541.059C391.675 524.64 400.913 521.809 421.5 521.709C434.941 521.643 442.137 522.787 456 527.193C474.325 533.017 495.344 544.131 522 562.091C549.747 580.786 575.056 590.979 603.911 595.081C623.364 597.847 653.75 593.386 668.93 585.536C674.882 582.458 671.461 582.949 659.413 586.9C643.629 592.077 628.309 594.459 616.5 593.574C592.688 591.789 571.343 583.835 546.415 567.458C535.369 560.202 524.08 553.24 497.5 537.292C454.848 511.7 427.966 504.756 399.5 511.978C392.03 513.873 368.122 525.065 348.198 535.995C335.656 542.875 329.941 541.6 306.01 526.586C277.306 508.577 259.046 502 237.749 502C220.312 502 208.164 506.812 183.672 523.422C167.89 534.125 156.001 540.023 145.113 542.552C135.542 544.774 125.835 550.373 116.715 558.932C104.136 570.736 98.211 579.353 75.752 618.5C64.244 638.559 44.064 671.607 37.255 681.546C30.001 692.133 18.522 704.857 12.463 709.026C4.355 714.604 5.016 712.097 13.355 705.641C27.35 694.807 42.103 673.07 78.269 610C97.84 575.869 109.623 560.366 123.538 550.435C131.092 545.045 136.033 542.796 146.431 540.015C158.073 536.9 167.712 532.08 180.832 522.811C195.082 512.745 212.569 503.713 221.936 501.583C246.381 496.023 274.175 503.639 307.5 525.028C331.473 540.416 337.166 541.263 352.164 531.673C361.003 526.022 383.574 515.104 392.822 512.007C424.552 501.381 452.357 507.795 500.934 536.946C523.691 550.603 540.66 561.1 550.978 567.905C580.897 587.637 611.619 595.285 640.198 590.117C656.558 587.159 678.279 578.984 682.14 574.332C683.839 572.284 681.785 572.643 674.72 575.629C658.837 582.343 645.487 585.492 628.468 586.54C608.688 587.759 589.479 583.227 566.5 571.921C552.8 565.181 540.042 556.643 502.45 529.059C485.122 516.344 471.248 507.447 462.31 503.317C438.388 492.264 420.377 490.551 400.275 497.416C390.321 500.815 370.322 510.617 355.54 519.34C334.769 531.598 333.912 531.533 300.168 515.153C268.503 499.782 256.256 495.993 238.292 496.007C224.431 496.018 215.276 498.741 193 509.478C178.898 516.276 170.317 519.737 162 521.983C155.675 523.691 147.746 526.368 144.381 527.931C136.072 531.789 121.415 541.839 116.351 547.149C112.101 551.606 86.382 589.751 77.346 605C74.575 609.675 69.916 618 66.992 623.5C52.99 649.836 41.064 666.903 27.743 679.667C20.44 686.665 10.259 693.959 7.75 693.991C5.601 694.018 7.514 691.782 11.25 689.9C17.841 686.579 26.911 678.791 35.004 669.5C41.848 661.643 49.987 649.452 58.704 634C62.583 627.125 68.67 616.325 72.231 610C80.873 594.652 108.643 552.725 114.432 546.287C119.5 540.65 132.665 531.51 143.339 526.219C147.1 524.354 154.75 521.712 160.339 520.348C167.63 518.569 175.443 515.503 188 509.494C215.802 496.189 223.022 493.989 238.815 494.013C256.727 494.04 273.406 499.24 302 513.71C332.122 528.953 335.245 529.25 353.031 518.57C372.775 506.714 394.072 496.712 406.5 493.459C415.634 491.067 431.929 491.025 441.486 493.368C455.427 496.786 474.328 506.302 491 518.297C555.585 564.765 552.979 562.953 562 567.662C576.421 575.188 589.145 580.006 601.419 582.588C610.084 584.411 625 585.534 625 584.364C625 583.889 622.637 583.364 619.75 583.198C604.302 582.31 576.782 570.841 556.5 556.84C530.883 539.157 519.797 530.872 504.705 518.134C482.521 499.41 466.99 489.662 450.068 483.84C441.171 480.779 439.589 480.548 427.5 480.543C415.446 480.538 413.827 480.771 405.261 483.746C388.04 489.726 374.618 496.466 355 508.984C342.611 516.889 339.714 518.004 331.601 517.988C323.235 517.972 318.901 516.646 292.98 506.172C265.647 495.128 252.668 491.676 238.5 491.685C227.107 491.693 220.181 493.172 195 500.975C183.108 504.66 175.568 506.385 168 507.153C147.43 509.24 138.852 513.342 122.833 528.752C107.991 543.029 100.888 553.107 79.878 589.697C60.966 622.636 51.651 635.428 34.806 651.594C24.95 661.053 7 673.719 7 671.216C7 670.745 10.727 667.829 15.282 664.735C37.53 649.622 53.864 630.604 73.025 597.5C97.99 554.371 103.643 545.901 116.798 531.917C134.471 513.133 145.415 507.361 167 505.444C171.125 505.077 179.675 503.262 186 501.41C192.325 499.558 202.9 496.448 209.5 494.499C237.237 486.307 253.737 487.986 289.5 502.639C315.861 513.44 323.708 515.981 330.739 515.991C338.078 516.002 344.959 513.645 351.743 508.799C369.541 496.086 396.128 483.359 412.697 479.623C435.677 474.441 460.831 482.006 488.389 502.386C492.524 505.444 502.565 513.507 510.703 520.304C518.841 527.102 528.268 534.526 531.65 536.801C535.033 539.077 543.1 544.808 549.578 549.536C568.978 563.697 585.33 572.315 603.368 577.887C622.019 583.647 648.344 583.768 662 578.154C665.72 576.625 662.692 576.799 653.637 578.634C641.814 581.029 622.574 580.088 610.5 576.523C585.323 569.088 563.533 555.257 538 530.505C532.225 524.906 524.575 518.125 521 515.436C517.425 512.747 509.089 505.978 502.477 500.395C478.993 480.569 463.475 471.211 446.999 466.94C434.863 463.794 420.201 464.492 407.308 468.83C391.685 474.087 375.216 482.814 354.831 496.639C342.903 504.729 336.789 507.007 327.068 506.985C318.257 506.965 311.239 505.22 286.968 497.011C275.676 493.191 262.401 489.062 257.468 487.835C244.8 484.682 229.555 484.857 208 488.4C197.31 490.157 185.866 491.297 175.5 491.636C150.53 492.454 139.307 496.92 123.121 512.483C106.563 528.404 99.386 539.044 77.277 580.453C69.362 595.277 60.928 610.127 58.534 613.453C50.136 625.124 39.986 632.844 27.625 636.96C24.256 638.081 18.575 640.799 15 642.999C11.425 645.199 8.162 646.999 7.75 646.999C5.997 647.001 7.233 645.041 10.25 643.039L13.5 640.881L10.132 641.546C7.54 642.058 6.867 641.898 7.213 640.855C7.468 640.088 10.239 639.066 13.598 638.5C21.616 637.149 24.982 634.822 37.121 622.234C51.871 606.938 62.386 591.279 79.236 559.515C104.022 512.79 114.372 498.381 134.204 482.981C147.651 472.54 149.908 471.699 163.955 471.896C170.427 471.986 177.248 472.543 179.111 473.132C180.975 473.722 196.225 474.588 213 475.058C229.775 475.527 245.75 476.353 248.5 476.893C259.43 479.039 260.863 479.163 256 477.544C250.559 475.733 242.975 474.226 215.5 469.498C203.95 467.51 189.55 464.561 183.5 462.944C177.45 461.326 170.09 460.002 167.144 460.002C154.199 459.998 137.332 467.214 126.204 477.518C111.642 491 101.785 506.535 83.386 545C63.394 586.796 55.689 599.417 41.549 613.535C33.904 621.169 30.902 623.379 22.202 627.785C12.867 632.513 6.986 634.241 7.009 632.25C7.013 631.837 9.701 630.663 12.982 629.641C21.337 627.036 32.296 620.043 40.34 612.183C51.711 601.072 61.331 585.3 81.013 545.5C100.946 505.189 109.143 491.792 121.446 479.413C130.462 470.341 138.712 465.09 149.786 461.372C162.121 457.231 168.147 457.222 185.5 461.318C193.75 463.265 207.475 466.045 216 467.496C243.76 472.22 251.559 473.909 269.158 479.009C289.524 484.91 301.126 486.996 313.5 486.981C330.87 486.96 338.655 483.86 358.5 469.058C380.8 452.426 394.4 444.611 411.289 438.726C420.072 435.666 421.197 435.516 435.5 435.515C449.956 435.514 450.777 435.626 458.141 438.608C462.343 440.309 468.98 443.827 472.888 446.426C482.24 452.643 505.326 473.302 515.961 484.97C520.614 490.076 528.797 498.021 534.146 502.626C539.495 507.231 549.832 517.637 557.117 525.75C564.402 533.862 573.318 543.568 576.931 547.317C583.112 553.732 591.901 561 593.478 561C593.868 561 591.153 557.737 587.444 553.75C583.735 549.762 574.819 538.625 567.631 529C559.151 517.644 551.394 508.516 545.538 503C540.574 498.325 524.585 482.513 510.007 467.862C495.428 453.212 480.575 439.1 477 436.504C463.232 426.503 450.88 421.989 437.356 422.015C415.33 422.056 392.762 432.837 359 459.445C344.784 470.649 333.739 476.894 323.5 479.517C314.781 481.751 300.795 482.435 290.88 481.111C280.323 479.702 276.918 478.661 225 460.985C202.175 453.214 180.22 445.763 176.212 444.428C163.825 440.301 155.402 441.664 141.606 450.025C121.592 462.155 106.802 481.67 91.081 516.693C77.206 547.603 70.29 560.981 61.002 574.875C46.045 597.252 23.413 618.051 9.25 622.438C4.991 623.757 7.008 621.338 12.183 618.921C23.029 613.855 36.758 602.583 47.409 590C61.022 573.917 72.967 552.758 89.458 515.515C98.345 495.448 103.653 485.932 111.863 475.353C124.634 458.898 139.167 447.22 152.912 442.368C163.977 438.462 165.055 438.671 208.268 453.101C229.846 460.306 253.575 468.362 261 471.003C289.426 481.114 307.698 482.52 326.924 476.079C338.546 472.185 342.692 469.747 356.452 458.716C378.762 440.831 401.628 427.351 417 423.022C426.85 420.249 440.099 419.366 448.136 420.947C468.163 424.887 481.783 435.124 518.056 473.5C523.775 479.55 532.964 488.45 538.477 493.278C550.473 503.784 555.586 509.596 570.783 530C583.397 546.937 594.842 559.409 601.942 563.957C609.583 568.852 620.676 571.391 634 571.295C646.25 571.208 651.435 569.867 663.846 563.578C666.747 562.108 672.581 559.608 676.81 558.022C681.04 556.435 688.325 553.51 693 551.52L701.5 547.901L692.024 548.575C680.579 549.388 677.326 550.469 664.801 557.617C652.264 564.773 646.52 566.897 637.693 567.642C619.57 569.17 601.291 560.096 586.831 542.393C583.734 538.602 575.696 527.4 568.969 517.5C553.704 495.036 551.183 491.993 532.517 473.5C524.189 465.25 510.429 451.105 501.938 442.066C479.436 418.112 467.096 409.121 451.754 405.504C427.757 399.846 398.665 411.606 362.49 441.587C344.953 456.121 343.071 457.507 334.919 461.886C320.572 469.592 308.253 472.97 294.5 472.97C280.996 472.97 274.696 471.041 254 460.566C229.099 447.963 183.765 426.704 177.165 424.536C173.522 423.339 168.666 422.783 161.857 422.783C152.721 422.783 151.354 423.043 145.574 425.889C137.917 429.658 123.54 442.878 114.554 454.412C104.016 467.938 97.318 479.195 81.336 510.24C66.615 538.836 56.195 557.018 49.668 565.5C43.161 573.956 32.695 585.021 26.236 590.274C18.557 596.519 8.251 602.601 7.204 601.504C6.817 601.098 7.175 600.358 8 599.861C8.825 599.363 12.316 597.278 15.759 595.228C31.795 585.677 49.081 565.574 63.679 539.5C66.45 534.55 73.793 520.6 79.996 508.5C93.766 481.641 96.035 477.53 102.348 468C116.37 446.832 132.206 430.521 144.81 424.265C151.809 420.791 152.543 420.641 162.07 420.741C168.428 420.808 173.911 421.457 177.26 422.54C184.293 424.815 217.859 440.459 248.354 455.675C264.179 463.572 275.622 468.646 279.854 469.643C289.022 471.802 307.042 471.001 316 468.036C327.13 464.352 340.172 457.328 348.503 450.533C352.901 446.946 360.1 441.058 364.5 437.45C397.799 410.142 428.043 398.249 451.129 403.385C467.701 407.072 479.948 415.666 501.971 439.064C510.48 448.104 524.222 462.25 532.507 470.5C552.02 489.929 555.369 493.947 570.01 515.5C576.735 525.4 584.772 536.617 587.869 540.427C602.196 558.052 619.438 567.017 636.5 565.712C645.036 565.059 652.109 562.489 664.246 555.629C676.923 548.464 680.117 547.358 690.5 546.54C706.193 545.303 718.754 542.285 740 534.645C774.999 522.06 775.129 521.997 784.862 512.878C789.613 508.426 797.646 501.446 802.712 497.365C807.779 493.284 812.52 489.095 813.248 488.057C817.148 482.488 835.189 463.205 839.5 459.997C845.175 455.774 849.819 448.487 862.114 424.522C877.861 393.828 886.546 368.932 889.507 346C890.633 337.28 894.636 319.98 896.914 313.987C898.061 310.969 898.999 307.751 898.999 306.836C899 305.92 897.404 300.989 895.453 295.876C888.441 277.503 874.752 261.14 850.476 242.115C837.668 232.078 823.276 224.424 792 211.018C757.974 196.432 749.856 191.021 732.9 171.617C719.264 156.013 715 144.648 715 123.905C715 109.137 716.895 99.767 721.977 89.399C726.185 80.817 737.805 67 740.815 67C741.838 67 740.17 69.319 736.318 73.25C723.252 86.585 718.072 99.028 717.246 119.059C716.647 133.581 717.926 142.808 721.711 151.271C723.13 154.445 724.433 156.9 724.606 156.728C724.778 156.555 724.222 153.508 723.369 149.957C721.579 142.499 722.057 129.315 724.388 121.858C727.635 111.47 731.267 105.562 739.415 97.412C752.925 83.897 764.163 78.956 791.873 74.347C809.746 71.374 825.174 70.863 835.5 72.901C845.452 74.865 859.61 79.952 879.373 88.665C888.793 92.817 898.975 97.146 902 98.285C909.352 101.051 918.162 101.03 923.587 98.233C928.214 95.847 940.46 83.241 947.607 73.508C951.951 67.592 954.016 65.729 953.99 67.75C953.972 69.216 943.393 82.605 936.554 89.819C928.343 98.48 923.341 101.637 916.387 102.55C909.609 103.44 903.825 101.689 882.56 92.308C847.358 76.779 837.091 73.755 819.5 73.736C808.237 73.723 782.171 77.418 771 80.61C754.539 85.314 736.861 99.207 730.495 112.444C721.929 130.254 721.87 145.516 730.302 162.813C733.748 169.881 743.264 179.564 750.283 183.143L754.5 185.293L748.104 178.454C734.862 164.294 728.121 150.886 730.008 142.463C733.567 126.582 747.682 111.631 766.656 103.645C777.188 99.212 805.963 94.5 822.5 94.5C840.467 94.5 855.249 100.767 879 118.455C897.22 132.023 907.069 137.484 915.883 138.904C932.562 141.59 946.339 133.273 952.54 116.776C956.894 105.194 959.168 100.123 964.488 90.135C969.566 80.6 979.923 68 982.682 68C983.55 68 981.474 70.931 977.779 74.922C970.394 82.898 961.019 99.466 955.951 113.5C952.214 123.845 950.992 126.051 946.072 131.336C938.973 138.961 927.166 142.649 915.5 140.885C906.564 139.534 895.205 133.411 879.5 121.478C857.196 104.533 846.624 99.304 829.722 96.86C822.604 95.831 819.332 95.917 807.439 97.444C770.694 102.161 757.684 107.066 744.612 121.129C736.383 129.981 732.884 136.573 732.255 144.409C731.827 149.74 732.136 151.342 734.499 156.045C736.006 159.045 739.159 164.2 741.505 167.5C747.894 176.485 762.969 190.365 764.584 188.75C764.871 188.463 763.54 187.261 761.628 186.079C756.368 182.828 747.526 172.774 744.515 166.621C737.414 152.106 745.297 135.036 763.163 126.241C769.658 123.043 787.897 118.002 800 116.059C827.842 111.589 859.116 121.427 886.402 143.24C891.039 146.947 900.802 156.269 908.099 163.954C922.739 179.376 925.44 181.087 935.226 181.134C939.649 181.155 942.524 180.489 946.582 178.504C956.426 173.687 959.62 167.211 966.558 138C972.305 113.799 977.103 102.905 986.08 93.674L992 87.587V0H0V1056ZM986.248 96.417C978.256 105.165 974.532 114.041 968.436 138.867C962.711 162.181 961.341 166.191 956.884 172.668C952.625 178.858 943.413 183.192 934.658 183.125C931.06 183.098 926.483 182.393 924.488 181.559C922.24 180.62 914.136 173.249 903.18 162.178C884.948 143.755 875.156 136.116 860.061 128.543C845.229 121.102 828.762 117.009 813.626 117.003C804.892 117 785.622 120.572 773.185 124.501C750.09 131.797 738.793 149.273 746.487 165.801C750.833 175.135 763.979 186.932 777.847 193.942C783.88 196.992 784.111 195.923 778.123 192.663C771.44 189.026 766.434 183.202 764.556 176.878C762.736 170.747 762.631 167.868 764.044 162.781C765.679 156.894 769.316 153.537 780.007 148.045C792.669 141.541 802.419 139 814.713 139C844.206 139 871.78 154.832 915.001 196.582C921.327 202.692 927.942 208.436 929.702 209.346C936.284 212.749 952.279 210.153 961.234 204.227C965.93 201.118 970.161 195.238 972.359 188.764C973.243 186.159 974.868 176.484 975.971 167.264C977.073 158.044 978.673 147.8 979.526 144.5C981.378 137.335 986.149 126.805 989.58 122.306C991.981 119.158 992.047 118.636 991.778 104.864L991.5 90.667L986.248 96.417ZM989.895 125.041C983.545 134.765 980.577 145.266 977.955 167.28C975.333 189.287 973.33 195.372 966.446 202.233C957.837 210.813 939.153 215.598 929.692 211.645C927.907 210.899 920.159 204.304 912.474 196.99C885.724 171.531 868.966 158.761 850.823 150.012C837.854 143.758 831.222 141.998 817.985 141.296C809.321 140.837 805.975 141.11 798.985 142.847C788.846 145.365 772.939 153.095 769.511 157.17C762.863 165.07 764.547 178.623 773.165 186.579C776.314 189.486 804.775 205.565 805.487 204.839C805.67 204.653 803.227 200.635 800.057 195.911C793.472 186.095 792.62 183.266 794.885 178.732C798.422 171.652 815.948 166.244 831.965 167.289C850.12 168.473 865.786 176.649 896.5 200.969C925.475 223.913 942.563 233 956.731 233C963.285 233 966.369 231.493 971.739 225.667C979.879 216.836 984.376 204.286 986.491 184.5C987.255 177.35 988.817 168.487 989.963 164.805C991.802 158.897 992.014 156.02 991.773 140.346C991.516 123.632 991.405 122.728 989.895 125.041ZM990.283 172C989.613 175.025 988.587 182 988.002 187.5C985.847 207.773 980.001 221.707 970.096 230.186C962.081 237.046 955.315 237.267 939.639 231.18C928.475 226.845 917.587 219.876 896.947 203.856C874.473 186.412 867.226 181.488 856.121 176.118C840.406 168.518 824.364 167.11 808.796 171.962C795.501 176.106 793.199 180.967 799.543 191.501C806.982 203.854 811.104 207.557 825.134 214.492L838 220.85V216.168C838 207.347 841.342 200.36 847.618 196.06C850.137 194.334 852.326 193.8 856.89 193.8C870.053 193.8 883.423 201.185 915.559 226.207C944.437 248.692 950.043 252 959.267 252C969.853 252 979.733 243.934 987.451 228.99L992.033 220.119L991.766 193.309C991.53 169.51 991.363 167.117 990.283 172ZM752.203 188.319C756.541 192.199 766 197.565 766 196.146C766 194.53 758.602 189.182 753.383 187.025L748.5 185.007L752.203 188.319ZM767.983 194.438C769.349 195.916 771.824 197.953 773.483 198.965C777.867 201.64 794.836 207.433 793 205.628C791.185 203.844 771.509 193.492 768 192.476L765.5 191.752L767.983 194.438ZM851.741 196.406C849.673 197.157 847.332 198.309 846.539 198.968C843.988 201.085 840 210.281 840 214.047C840 220.86 841.577 223.279 849.01 227.865C852.841 230.229 858.785 234.347 862.22 237.016L868.465 241.87L869.997 237.685C872.798 230.031 880.807 228.262 893.5 232.495C901.132 235.04 915.899 242.692 932.5 252.704C954.488 265.964 956.79 267 964.27 267C972.22 267 978.758 263.948 986.508 256.62L992 251.426L991.947 225.5L988.723 231.469C984.092 240.045 975.138 249.264 968.787 251.996C964.616 253.79 962.339 254.141 957.411 253.745C949.393 253.101 942.723 249.532 926.83 237.378C895.875 213.707 889.702 209.195 882.077 204.663C868.797 196.772 858.473 193.962 851.741 196.406ZM794 203.38C794 204.032 809.523 212.504 813.399 213.969C816.043 214.967 816.177 214.918 814.921 213.405C812.864 210.927 794 201.887 794 203.38ZM807.5 215.624C813.552 218.871 826 224.086 826 223.375C826 222.713 808.273 214.461 805 213.6C803.625 213.238 804.75 214.149 807.5 215.624ZM827.733 221.124C828.412 221.808 829.219 222.115 829.526 221.807C829.834 221.499 829.279 220.94 828.293 220.564C826.868 220.022 826.753 220.136 827.733 221.124ZM845 228.379C845 228.587 848.263 231.213 852.25 234.215C856.237 237.216 861.69 241.568 864.368 243.885C867.045 246.202 869.479 247.854 869.778 247.555C870.659 246.674 867 243.12 859 237.087C848.846 229.429 845 227.037 845 228.379ZM875.856 233.516C873.422 234.839 871 239.396 871 242.653C871 243.399 874.618 247.904 879.039 252.665C883.461 257.425 888.973 264.257 891.289 267.846C894.895 273.435 895.538 274.022 895.763 271.936C897.208 258.529 905.293 254.218 915.65 261.332C918.317 263.164 922.906 266.313 925.846 268.329C935.592 275.011 954.8 279.493 970.814 278.822C978.616 278.495 981.618 277.9 986.25 275.763L992 273.111V254.379L986.772 259.211C979.544 265.89 974.032 268.379 965.5 268.814C956.606 269.267 954.014 268.173 931.065 254.277C911.351 242.339 898.331 235.842 889.529 233.549C882.26 231.656 879.293 231.649 875.856 233.516ZM868.453 253.878C870.627 256.145 872.849 258 873.39 258C874.686 258 869.068 252.122 866.5 250.792C865.4 250.222 866.279 251.61 868.453 253.878ZM873.047 250.759C873.002 251.964 887.84 269.165 890.164 270.601C890.782 270.983 890.436 269.839 889.394 268.058C886.855 263.716 873.106 249.167 873.047 250.759ZM902.299 261.503C899.959 263.142 897.474 269.339 898.495 270.991C898.907 271.659 899.891 271.489 901.288 270.511C905.888 267.289 912.978 269.379 924.256 277.283C938.302 287.126 959.114 297.725 969 300.069C975.027 301.498 987.48 301.914 990.25 300.78C991.781 300.152 992 298.545 992 287.924C992 276.752 991.861 275.844 990.25 276.518C974.95 282.917 957.42 282.56 935.783 275.408C930.209 273.566 925.669 271.071 919.442 266.429C910.259 259.583 906.559 258.519 902.299 261.503ZM901.655 272.829C899.523 275.185 899.527 275.243 902.635 286.205C906.454 299.673 906.147 299.29 911.257 296.97C921.046 292.527 931.393 295.829 954.813 310.872C970.485 320.938 979.323 325.128 986.199 325.752L992 326.278V302.728L987.598 303.331C980.412 304.316 967.782 302.379 959.286 298.988C949.609 295.126 934.704 286.868 921.168 277.869C909.911 270.385 905.012 269.119 901.655 272.829ZM930 300.981C938.133 305.567 946.021 313.918 955.995 328.5C970.247 349.338 979.495 358.232 988.414 359.68L992 360.262V328.24L986.187 327.82C979.021 327.302 969.811 323.016 954.5 313.074C943.491 305.927 931.698 299.678 927 298.504C925.625 298.161 926.975 299.275 930 300.981ZM911.75 300.11C908.792 301.247 908.493 302.55 909.942 308C910.453 309.925 911.348 313.338 911.93 315.585L912.988 319.67L918.045 319.736C927.314 319.856 932.866 325.218 944.785 345.559C948.672 352.192 953.941 359.942 956.495 362.783C965.15 372.409 980.564 381 989.182 381H992V362L989.25 361.991C985.171 361.977 976.24 356.442 970 350.06C966.975 346.966 960.689 338.825 956.031 331.968C939.052 306.973 923.327 295.659 911.75 300.11ZM915.738 321.595C915.372 321.961 917.26 324.226 919.932 326.629C924.667 330.886 928.542 336.58 938.559 354C941.963 359.92 946.796 365.99 954.484 374C960.554 380.325 967.961 388.425 970.943 392C981.438 404.58 988.367 411 991.45 411C991.753 411 992 404.7 992 397V383L988.75 382.994C983.559 382.986 978.273 381.141 970.629 376.67C959.901 370.395 951.779 361.564 942.835 346.452C934.577 332.498 929.347 325.738 925.15 323.594C921.707 321.836 916.585 320.748 915.738 321.595ZM914 332.465C914 338.853 914.282 340.081 915.958 340.977C917.035 341.554 919.681 345.732 921.84 350.263C923.998 354.793 927.411 361.976 929.423 366.224C932.439 372.588 934.095 374.726 938.833 378.372C946.375 384.175 949.668 387.919 960.936 403.5C966.107 410.65 971.92 418.448 973.855 420.83C978.062 426.01 984.753 430.801 988.953 431.641L992 432.25V422.692C992 413.65 991.879 413.098 989.75 412.451C985.756 411.238 981.248 407.163 972.35 396.724C967.558 391.101 958.881 381.55 953.068 375.5C945.076 367.181 940.923 361.819 936.031 353.5C924.074 333.165 917.915 325 914.535 325C914.241 325 914 328.359 914 332.465ZM901.748 336.54C901.441 338.142 901.675 338.944 902.381 338.711C903.769 338.255 904.496 334 903.186 334C902.662 334 902.015 335.143 901.748 336.54ZM901.769 342C901.159 343.495 898.244 360.346 897.445 367C897.058 370.224 897.143 370.145 898.527 366C900.838 359.078 903.192 346.485 902.765 343.331C902.511 341.458 902.173 341.008 901.769 342ZM897.313 346.5C895.432 353.347 888.963 382.423 888.982 383.95C888.995 384.991 889.305 385.095 890.084 384.316C892.307 382.093 899.417 350.248 898.783 345.356C898.429 342.625 898.365 342.675 897.313 346.5ZM913.398 346.686C912.507 351.428 912.597 356.812 913.771 369.068C915.314 385.179 919.949 392.582 933.551 400.665C941.805 405.568 947.675 411.577 963.19 431C974.555 445.227 985.293 456.495 989.75 458.871L992 460.07V447.504C992 436.413 991.794 434.872 990.25 434.384C980.337 431.249 974.248 425.665 962.101 408.567C950.602 392.383 944.834 385.645 937.797 380.181C932.414 376.001 931.302 374.458 926.861 365.014C915.908 341.718 914.653 340.009 913.398 346.686ZM907.831 371.843L905.169 381.5L907.669 384.793C909.043 386.605 912.189 392.455 914.66 397.793C921.327 412.2 921.23 412.03 923.964 413.936C925.359 414.907 928.608 416.494 931.184 417.462C936.326 419.393 940.973 423.924 963.741 449.2C975.085 461.793 989.223 475 991.361 475C991.712 475 992 472.338 992 469.085V463.17L987.112 459.582C980.727 454.895 972.102 445.608 960.22 430.627C946.448 413.263 941.706 408.527 931 401.444C924.039 396.839 920.659 393.86 918.354 390.298C914.342 384.099 912 376.204 912 368.878C912 365.71 911.661 362.908 911.246 362.652C910.831 362.396 909.294 366.531 907.831 371.843ZM898.478 393.478C897.021 398.255 896.064 402.397 896.35 402.684C896.637 402.97 898.084 399.317 899.565 394.565C901.047 389.813 902.004 385.671 901.693 385.36C901.382 385.048 899.935 388.702 898.478 393.478ZM902.107 392.841C900.266 399.213 896.859 408.233 892.375 418.605C892.074 419.302 893.948 419.921 897.452 420.283C905.465 421.11 912.959 424.952 920.712 432.206C924.446 435.699 930.701 441.102 934.613 444.212C938.525 447.322 945.07 454.059 949.158 459.183C953.245 464.307 960.955 473.973 966.29 480.662C975.189 491.818 985.929 502.783 990.25 505.123C991.878 506.004 992 505.107 992 492.257V478.443L983.299 471.471C978.513 467.637 970.347 459.775 965.151 454C938.345 424.207 936.321 422.25 928.197 418.27L920.5 414.5L916.745 406.5C910.896 394.041 906.369 385.623 905.332 385.277C904.81 385.103 903.36 388.507 902.107 392.841ZM895.571 389.571C895.204 391.037 895.096 392.429 895.331 392.665C895.567 392.9 896.061 391.894 896.429 390.429C896.796 388.963 896.904 387.571 896.669 387.335C896.433 387.1 895.939 388.106 895.571 389.571ZM889.483 424.121C889.08 425.429 887.231 429.112 885.375 432.304C883.519 435.496 882 438.533 882 439.054C882 439.574 884.227 440 886.948 440C893.106 440 905.657 443.938 913.223 448.243C922.061 453.273 934.149 463.319 944.642 474.354C953.308 483.469 956.837 488.32 972.333 512.422C977.605 520.622 981.899 524.887 988.028 528.014L992 530.041V519.236C992 508.514 991.979 508.419 989.25 506.787C983.267 503.21 974.4 494.11 963.285 480.141C956.878 472.088 949.186 462.457 946.194 458.737C943.201 455.018 937.095 448.958 932.626 445.272C928.157 441.586 922.25 436.35 919.5 433.637C913.293 427.514 903.977 422.99 896.107 422.276C890.562 421.773 890.174 421.881 889.483 424.121ZM880.45 430.099C879.028 432.904 878.088 435.421 878.359 435.692C878.873 436.207 881.354 431.829 882.997 427.507C884.611 423.263 883.172 424.728 880.45 430.099ZM417.5 439.009C399.563 443.846 382.52 453.332 356.087 473.19C337.777 486.945 329.909 489.537 309.006 488.7C301.578 488.402 292.575 487.49 289 486.673C277.398 484.02 276.368 483.987 284 486.513C304.464 493.287 324.634 495.302 336.209 491.73C339.35 490.761 344.75 487.974 348.209 485.537C376.421 465.665 391.947 456.912 409 451.267C432.104 443.618 448.602 445.232 469.212 457.16C479.215 462.948 488.64 470.824 507.348 489.027C516.614 498.043 526.964 507.629 530.348 510.329C533.731 513.029 541.225 519.803 547 525.383C557.768 535.785 565.454 542.465 572.5 547.542C576.218 550.221 576.354 550.25 574.429 547.962C563.791 535.318 540.956 511.35 533.115 504.599C527.758 499.987 519.281 491.778 514.278 486.357C504.394 475.645 486.05 458.715 476.5 451.488C469.187 445.954 458.395 440.451 451 438.485C443.114 436.39 426.235 436.653 417.5 439.009ZM879.748 442.31C877.055 444.49 871.768 453.168 872.64 453.976C874.137 455.362 897.192 462.874 904.896 464.486C914.227 466.439 919.558 469.346 929.804 478.072C939.129 486.013 943.588 492.016 957.275 515.054C971.005 538.164 979.09 547.67 988.25 551.471L992 553.027L991.995 532.5L986.455 529.605C979.974 526.219 974.678 520.52 968.274 510.044C951.27 482.224 935.324 464.861 914.302 451.273C904.262 444.784 883.382 439.368 879.748 442.31ZM865.703 450.598C864.715 451.919 864.362 453 864.918 453C865.93 453 868.455 449.109 867.831 448.512C867.649 448.338 866.691 449.277 865.703 450.598ZM418.428 450.48C402.033 454.048 379.346 465.714 355.892 482.635C340.505 493.737 336.012 495.35 320.5 495.34C307.381 495.332 303.452 494.536 277 486.527C249.446 478.183 241.237 477.006 210.5 476.995C199.657 476.991 188.559 476.394 182.587 475.494C177.135 474.672 168.008 474 162.304 474C150.044 474 146.682 475.329 134.842 484.854C114.882 500.911 106.577 512.543 81.543 559.5C63.685 592.997 49.6 613.503 34.578 627.874C30.913 631.38 28.089 634.422 28.301 634.635C28.514 634.848 31.858 633.436 35.732 631.498C49.995 624.362 56.77 615.316 78.048 575C96.547 539.948 106.397 525.549 122.23 510.413C138.444 494.912 149.767 490.487 175.5 489.596C185.333 489.256 197.859 488.024 208 486.402C227.613 483.263 243.721 482.916 255.153 485.387C259.361 486.296 273.092 490.387 285.665 494.476C313.074 503.392 319.474 504.976 328 504.953C337.314 504.927 342.642 502.644 358.814 491.749C376.079 480.118 391.142 472.26 405.675 467.302C415.157 464.068 417.953 463.559 428.216 463.201C438.579 462.839 440.974 463.091 448.973 465.385C466.828 470.507 483.629 481.135 510 503.99C513.575 507.088 519.425 511.816 523 514.497C526.575 517.177 534.675 524.354 541 530.445C560.737 549.453 578.908 562.246 596.532 569.542C605.151 573.11 609.231 573.696 602.843 570.448C601.004 569.514 596.8 566.843 593.5 564.514C590.2 562.184 583.371 557.498 578.324 554.1C567.659 546.918 556.366 537.472 543 524.553C537.775 519.502 531.25 513.606 528.5 511.45C525.75 509.293 515.398 499.648 505.495 490.015C495.592 480.382 483.739 469.678 479.155 466.228C470.224 459.509 455.455 451.914 447.807 450.108C441.576 448.637 425.992 448.834 418.428 450.48ZM860.057 458.628C857.265 463.359 857.867 463.793 861.284 459.511C862.774 457.643 863.589 455.864 863.095 455.559C862.6 455.253 861.233 456.634 860.057 458.628ZM866.551 460.637C864.598 463.195 863 465.62 863 466.027C863 466.93 866.646 467.968 869.881 467.986C876.475 468.024 902.118 478.756 914.163 486.519C935.295 500.139 941.811 507.628 967.381 547.682C977.641 563.755 984.416 572.129 989.13 574.567L992 576.051V555.357L986.75 552.993C976.612 548.429 969.009 539.01 951.018 508.726C940.457 490.948 934.45 483.749 922.935 475.072C914.901 469.018 913.585 468.466 900 465.453C895.875 464.538 888.675 462.331 884 460.549C870.19 455.283 870.641 455.281 866.551 460.637ZM846.462 462.725C840.451 470.239 840.585 470 842.39 470C843.957 470 851.637 459.304 850.725 458.392C850.482 458.148 848.563 460.098 846.462 462.725ZM828.882 472.75C826.384 475.363 822.866 479.525 821.065 482C818.061 486.128 818.278 485.999 823.693 480.439C829.041 474.946 834.675 468 833.781 468C833.585 468 831.381 470.137 828.882 472.75ZM856.583 473.464C854.489 476.019 852.95 478.283 853.162 478.495C853.374 478.707 857.255 479.346 861.787 479.914C870.405 480.995 880.717 484.568 887.488 488.821C889.681 490.198 895.922 493.297 901.357 495.706C924.742 506.075 934.71 516.087 956.424 551.017C974.157 579.543 984.734 593.398 990.25 595.326C991.832 595.879 991.995 595.101 991.946 587.219L991.891 578.5L987.219 575.5C981.163 571.612 975.676 564.641 964 546.005C944.476 514.842 933.365 501.745 917.491 491.182C901.898 480.807 878.63 471.013 865.945 469.487L860.39 468.818L856.583 473.464ZM836.411 476.527C834.932 478.467 834.016 480.349 834.376 480.709C835.078 481.412 842 475.143 842 473.804C842 471.793 838.852 473.327 836.411 476.527ZM846.744 484.167C844.677 486 842.99 487.837 842.994 488.25C842.997 488.663 845.155 489 847.79 489C855.149 489 863.508 491.597 873.453 496.975C878.435 499.668 886.108 502.855 890.505 504.056C900.163 506.695 905.428 509.269 914 515.545C937.126 532.476 952.978 553.116 965.932 583.165C973.508 600.739 974.352 602.277 978.207 605.52C981.272 608.1 989.023 612 991.083 612C991.587 612 992 608.905 992 605.121C992 598.413 991.925 598.212 988.983 596.993C983.021 594.523 969.214 576.445 955.003 552.5C945.386 536.295 937.636 525.633 929.502 517.417C919.889 507.708 914.713 504.084 902.645 498.615C897.615 496.336 890.125 492.608 886 490.33C876.781 485.241 866.843 482.117 857.548 481.387C850.647 480.845 850.422 480.903 846.744 484.167ZM835.203 497.528C832.341 501.118 830 504.268 830 504.528C830 504.787 835.513 505.008 842.25 505.017C856.074 505.037 863.499 506.352 879.5 511.617C899.485 518.193 907.752 523.378 924.378 539.764C945.174 560.262 959.301 582.823 968.641 610.455C970.492 615.931 973.1 622.064 974.437 624.084C977.188 628.241 984.016 632 988.816 632H992V614.487L987.859 613.195C982.146 611.412 975.408 606.576 972.51 602.18C971.176 600.156 968.525 594.624 966.62 589.887C953.789 557.987 936.921 534.941 914 517.991C904.221 510.761 900.572 508.967 889.5 505.949C885.1 504.75 877.45 501.593 872.5 498.935C862.281 493.447 854.108 491 845.993 491H840.405L835.203 497.528ZM826.766 501.971C824.97 503.605 823.978 504.955 824.563 504.971C825.148 504.987 826.919 503.65 828.5 502C832.207 498.131 831.009 498.111 826.766 501.971ZM814.872 505.75C813.629 507.336 813.664 507.371 815.25 506.128C816.916 504.821 817.445 504 816.622 504C816.415 504 815.627 504.788 814.872 505.75ZM824.25 509.516C822.462 510.962 821.001 512.45 821.002 512.822C821.003 513.195 828.991 513.51 838.752 513.522C871.004 513.561 892.096 518.985 907.309 531.153C925.348 545.581 942.554 573.117 963.429 620.97C967.615 630.563 972.042 639.503 973.269 640.835C976.396 644.231 981.088 646 986.968 646H992V634L988.75 633.978C984.332 633.948 978.159 630.98 974.332 627.045C972.035 624.683 970.019 620.448 967 611.644C956.962 582.363 939.562 555.332 918.953 537C903.017 522.826 895.73 518.767 873.917 511.919C860.855 507.818 860.064 507.696 844 507.297L827.5 506.887L824.25 509.516ZM818 511C816.18 512.424 815.934 512.962 817.095 512.978C817.972 512.99 819.505 512.1 820.5 511C822.81 508.447 821.263 508.447 818 511ZM819.243 515.85C818.001 516.207 815.313 517.85 813.269 519.5C811.225 521.15 806.166 524.914 802.026 527.864C797.679 530.961 795.556 532.957 797 532.588C823.33 525.86 842.86 524.306 860.5 527.534C864.9 528.339 873.973 529.893 880.662 530.987C897.33 533.714 907.286 537.043 913.94 542.112L919.379 546.257L914.856 541.086C902.255 526.68 883.98 518.751 857.144 516.044C845.942 514.915 822.899 514.796 819.243 515.85ZM238.75 521.662C239.438 521.94 240.563 521.94 241.25 521.662C241.938 521.385 241.375 521.158 240 521.158C238.625 521.158 238.063 521.385 238.75 521.662ZM247.813 522.683C248.534 522.972 249.397 522.936 249.729 522.604C250.061 522.272 249.471 522.036 248.417 522.079C247.252 522.127 247.015 522.364 247.813 522.683ZM216.072 525.553C203.211 528.342 189.034 536.873 180.084 547.207L175.5 552.5L179.5 549.186C187.724 542.373 198.75 535.876 206.5 533.278C213.926 530.788 215.721 530.595 231.5 530.59C250.659 530.584 258.244 532.068 271.744 538.464C287.817 546.078 297.472 555.046 315.126 578.757C322.407 588.536 329.388 596.876 331.237 598.003C335.557 600.637 340.571 600.52 347.126 597.632C354.436 594.411 373.846 587.543 383 584.937C388.689 583.318 394.403 582.675 406.665 582.274C431.511 581.461 443.518 583.697 483 596.489C520.425 608.614 533.35 611.624 553.725 612.959C563.199 613.58 576.474 614.739 583.225 615.535C599.019 617.398 622.64 617.421 632.162 615.584C642.499 613.59 655.66 608.557 661.25 604.461C667.145 600.142 667.377 598.481 661.75 600.891C650.518 605.701 623.092 609.961 603.211 609.984C588.457 610.002 576.656 608.937 558.042 605.911C531.203 601.547 523.918 599.456 490.5 586.528C444.16 568.601 431.252 565.437 408 566.306C391.293 566.93 384.312 568.856 360 579.55C334.002 590.984 332.114 590.627 316.432 571.301C293.094 542.539 276.326 530.828 250.8 525.458C242.204 523.65 224.627 523.698 216.072 525.553ZM776 526.5C775.306 527.337 775.197 528 775.755 528C776.305 528 777.315 527.325 778 526.5C778.694 525.663 778.803 525 778.245 525C777.695 525 776.685 525.675 776 526.5ZM791 526.958C789.075 527.987 785.925 530.507 784 532.56L780.5 536.291L783.868 534.395C787.071 532.593 796.056 525.078 795 525.085C794.725 525.087 792.925 525.93 791 526.958ZM822.5 529.087C814.072 530.234 794.866 534.74 790.336 536.633C788.544 537.382 783.347 540.407 778.789 543.355C774.23 546.303 766.849 550.597 762.386 552.898C757.924 555.199 753.199 558.243 751.886 559.663L749.5 562.246L753.5 560.235C759.072 557.434 773.666 552.377 782.82 550.076C793.256 547.452 808.02 545.386 829.5 543.542C839.4 542.692 851.958 541.492 857.407 540.874C868.073 539.666 878.122 540.21 889.941 542.634C899.34 544.561 905.926 547.881 909.941 552.716C914.449 558.144 923.365 576.996 933.958 603.5C947.311 636.907 955.764 652.46 966.496 663.364C972.152 669.111 981.922 674.626 988.275 675.657L992 676.262V661.28L986.575 660.72C976.262 659.656 966.762 653.464 958.429 642.379C952.486 634.471 948.875 625.417 944.521 607.5C936.226 573.37 931.374 562.376 919.119 549.937C907.825 538.475 906.108 537.819 869.5 530.964C855.964 528.429 833.826 527.545 822.5 529.087ZM278 533.102C291.563 540.471 300.061 548.175 315.733 567.31C321.503 574.356 327.869 581.208 329.879 582.538C336.83 587.139 337.947 586.963 358.505 578.051C387.735 565.379 390.892 564.59 412.5 564.564C429.073 564.544 431.372 564.767 441.5 567.385C453.621 570.517 468.906 575.812 491 584.531C518.857 595.525 531.532 599.341 552 602.897C572.009 606.374 585.809 608.003 594.284 607.89L602.5 607.781L594 606.497C589.325 605.791 573.125 603.121 558 600.563L530.5 595.912L505 583.475C469.684 566.251 453.062 560.064 432.619 556.534C416.496 553.749 397.551 555.098 382.752 560.084C379.421 561.206 368.726 565.696 358.984 570.062C339.638 578.732 336.564 579.349 329.825 575.911C327.572 574.761 318.703 566.725 310.115 558.052C294.83 542.617 287.789 536.952 277.283 531.638C269.142 527.521 269.655 528.569 278 533.102ZM222.25 532.689C223.213 532.941 224.787 532.941 225.75 532.689C226.713 532.438 225.925 532.232 224 532.232C222.075 532.232 221.287 532.438 222.25 532.689ZM239 533.068C256.862 535.098 271.829 540.506 284.547 549.524C296.146 557.748 303.223 566.709 323.221 598.491C330.766 610.482 335.973 612.382 346.328 606.924C365.659 596.734 388.126 592.361 412.48 594.046C428.679 595.167 440.366 597.378 471 605.118C519.147 617.281 519.01 617.26 552.5 617.389C582.965 617.506 583.167 617.018 553.5 614.982C532.818 613.562 521.61 611.043 489 600.486C445.901 586.532 438.599 584.912 415.86 584.255C402.731 583.876 397.456 584.13 390.86 585.462C380.81 587.49 360.706 593.918 349.766 598.6C334.404 605.175 329.939 602.959 314.303 581C303.621 565.998 294.143 555.44 285.5 548.914C273.545 539.886 254.658 533.143 239.5 532.49L230.5 532.102L239 533.068ZM739.5 538.557C708.297 550.295 687 559.161 687 560.412C687 560.77 690.15 559.851 718 551.365C735.741 545.959 744.496 542.417 750.954 538.032C756.613 534.188 759.05 531.907 757.309 532.081C756.864 532.125 748.85 535.04 739.5 538.557ZM209.651 537.014C200.224 539.402 188.166 545.567 182 551.154L177.5 555.232L182.27 552.054C195.948 542.942 210.135 538.813 228 538.744C247.976 538.668 264.444 543.217 279.209 552.891C293.551 562.288 302.593 573.376 316.323 598.406C320.82 606.604 326.353 615.369 328.617 617.883C332.18 621.838 333.259 622.451 336.617 622.427C338.753 622.412 343.549 621.166 347.275 619.658C365.895 612.123 390.662 608.243 413 609.362C435.475 610.488 453.392 613.415 494.5 622.677C523.42 629.192 528.711 629.537 539.645 625.62C547.142 622.934 561.461 621.113 577 620.868L585.5 620.734L577.5 619.807C573.1 619.297 560.5 619.145 549.5 619.469C525.001 620.19 518.958 619.28 476.031 608.406C431.932 597.236 427.523 596.525 402.5 596.56C382.916 596.587 380.836 596.769 371.663 599.259C366.252 600.728 357.082 604.195 351.284 606.965C340.766 611.989 337.191 612.791 332.815 611.111C328.603 609.493 322.384 602.055 315.519 590.423C297.196 559.379 282.11 546.123 256.288 538.377C244.01 534.694 221.42 534.034 209.651 537.014ZM214.964 541.525C210.269 542.257 203.401 543.996 199.701 545.388C193.001 547.91 181.757 554.762 177 559.221C171.731 564.16 171.731 565.155 177 561.132C184.492 555.411 194.903 550.412 204.5 547.926C214.891 545.235 236.611 545.029 248.5 547.508C266.468 551.255 281.662 559.475 292.897 571.526C301.5 580.754 305.131 586.612 316.319 609.313C323.826 624.545 326.721 629.419 330.047 632.423C333.819 635.832 334.697 636.182 338.424 635.761C340.965 635.475 345.127 633.688 349.11 631.172C361.694 623.225 375.679 618.506 395.51 615.517C416.253 612.391 429.493 613.786 466.053 622.952C489.426 628.811 512.089 633.24 525.119 634.494C532.664 635.22 544.819 633.787 556.5 630.793C563.364 629.033 568.901 628.652 595.5 628.106L626.5 627.47L632.503 624.345C635.805 622.627 639.63 620.286 641.003 619.144L643.5 617.068L640 618.141C638.075 618.732 634.25 619.911 631.5 620.763C627.588 621.975 618.561 622.466 590 623.023C556.521 623.675 552.879 623.916 546 625.939C531.566 630.184 526.535 631.171 522.5 630.551C520.3 630.214 506.35 627.278 491.5 624.029C441.958 613.187 419.702 610.23 396.635 611.421C379.6 612.301 370.537 614.094 352.334 620.185C341.122 623.936 336.429 625.075 334.334 624.552C329.394 623.32 322.91 615.105 314.106 598.926C304.301 580.907 299.467 573.842 291.021 565.183C277.727 551.555 260.133 543.464 238.5 541.029C227.563 539.798 225.797 539.836 214.964 541.525ZM860.5 542.664C858.85 542.864 845.575 544.17 831 545.567C799.396 548.595 794.677 549.263 781.019 552.634C762.371 557.238 741.99 567.334 730 577.909C726.685 580.832 726.644 580.945 729.216 580.036C730.71 579.507 733.635 578.21 735.716 577.153C740.439 574.754 758.882 568.729 769.5 566.116C773.9 565.034 785.825 562.731 796 560.998C821.142 556.718 831.277 554.591 846.194 550.466C857.504 547.338 860.393 546.931 872.694 546.728C888.296 546.47 895.124 547.925 902.668 553.115C908.112 556.861 910.187 560.518 919.058 582C942.306 638.295 946.711 647.702 955.652 660.137C958.868 664.611 963.929 670.439 966.898 673.089C972.679 678.25 983.44 684.347 988.75 685.471C991.984 686.156 992 686.14 992 682.207C992 678.371 991.884 678.237 988.003 677.616C980.775 676.461 973.128 672.289 966.408 665.836C954.853 654.741 946.078 638.963 932.014 604C913.505 557.987 909.318 551.126 897 546.621C888.372 543.466 870.162 541.492 860.5 542.664ZM244.75 549.662C245.438 549.94 246.563 549.94 247.25 549.662C247.938 549.385 247.375 549.158 246 549.158C244.625 549.158 244.063 549.385 244.75 549.662ZM848 552.016C837.018 555.372 820.996 558.802 799 562.505C764.235 568.359 739.911 575.749 724.329 585.193C719.655 588.025 713.105 595.438 714.257 596.59C714.481 596.814 718.107 595.035 722.316 592.636C735.347 585.21 751.287 580.86 772.176 579.028C785.907 577.825 798.09 575.766 811.5 572.382C821.435 569.876 824.483 568.912 847.5 560.997C861.344 556.237 881.923 551 886.784 551C888.752 551 889.865 550.59 889.5 550C889.128 549.398 882.636 549.023 873.191 549.057C858.812 549.109 856.706 549.356 848 552.016ZM212.798 551.018C202.772 552.162 198.089 553.46 189.16 557.573C177.18 563.09 167.225 571.062 162.541 578.889C162.084 579.653 164.813 577.89 168.605 574.973C177.282 568.297 191.119 561.728 201.5 559.357C207.598 557.964 213.423 557.545 226 557.593C245.302 557.668 252.785 559.261 267.5 566.43C289.543 577.169 304.532 596.92 316.504 631C323.867 651.961 330.315 662 336.416 662C338.773 662 350.727 657.896 365.387 652.055C380.152 646.171 388.977 644.187 408.176 642.437C430.157 640.433 443.315 640.908 462 644.378C509.442 653.189 521.31 653.497 546 646.553C552.875 644.62 563.225 642.549 569 641.952C599.425 638.804 606.401 637.819 614.095 635.584C623.469 632.861 632.381 629.179 629.86 629.071C628.958 629.032 623.98 629.872 618.798 630.939C612.681 632.197 601.506 633.234 586.937 633.893C568.021 634.749 562.219 635.403 549.998 638.055C527.378 642.964 517.354 643.05 491.712 638.553C480.278 636.549 463.989 633.355 455.513 631.456C432.885 626.387 423.15 625.508 404.254 626.829C384.286 628.226 376.383 630.454 356.022 640.424C346.785 644.948 339.292 648 337.424 648C329.994 648 324.854 641.452 316.064 620.788C300.459 584.101 288.589 569.238 266.703 558.982C262.074 556.813 254.57 554.151 250.027 553.066C240.198 550.718 223.488 549.799 212.798 551.018ZM249.813 550.683C250.534 550.972 251.397 550.936 251.729 550.604C252.061 550.272 251.471 550.036 250.417 550.079C249.252 550.127 249.015 550.364 249.813 550.683ZM733.207 552.672C729.745 554.088 727.151 555.485 727.442 555.776C728.316 556.649 740.831 552.909 742.083 551.4C743.904 549.205 740.481 549.696 733.207 552.672ZM253.813 551.683C254.534 551.972 255.397 551.936 255.729 551.604C256.061 551.272 255.471 551.036 254.417 551.079C253.252 551.127 253.015 551.364 253.813 551.683ZM897.56 556.115C904.287 563.274 911.938 579.441 929.685 624C950.338 675.853 962.39 690.99 989.75 699.44C991.909 700.107 992 699.895 992 694.179V688.223L988.478 687.562C983.744 686.674 973.093 681.03 967.496 676.443C957.466 668.224 944.309 647.857 935.64 627.129C933.195 621.283 926.355 604.8 920.44 590.5C914.525 576.2 908.628 562.817 907.337 560.76C904.918 556.909 899.4 552.751 895 551.463C892.898 550.848 893.307 551.589 897.56 556.115ZM262.5 554.583C271.285 558.295 272.295 558.444 265.5 555.025C262.2 553.365 258.825 552.016 258 552.027C257.175 552.038 259.2 553.188 262.5 554.583ZM695 553C694.175 553.533 693.95 553.969 694.5 553.969C695.05 553.969 696.175 553.533 697 553C697.825 552.467 698.05 552.031 697.5 552.031C696.95 552.031 695.825 552.467 695 553ZM868 556.998C860.025 559.111 846.975 563.157 839 565.99C819.937 572.76 800.431 577.66 785 579.556C755.843 583.138 749.61 584.187 741.279 586.914C724.045 592.555 713.742 598.376 710.776 604.146C708.126 609.303 704.908 617.241 705.307 617.64C705.503 617.836 707.043 616.085 708.729 613.748C713.099 607.692 718.923 602.1 723.079 599.969C727.425 597.741 742.29 593.464 750.5 592.081C753.8 591.525 763.25 590.57 771.5 589.96C795.702 588.17 807.131 585.441 848.697 571.533C869.623 564.531 887.774 559.002 889.827 559.004C891.847 559.006 894.981 559.91 896.79 561.014C899.898 562.908 900.025 562.916 899.079 561.147C898.527 560.117 896.469 557.863 894.503 556.137C889.787 551.996 886.474 552.104 868 556.998ZM690 554.715C685.217 556.49 667.328 564.311 665.117 565.593L662.5 567.111L665.5 566.62C668.447 566.137 694.455 554.121 692.5 554.145C691.95 554.152 690.825 554.408 690 554.715ZM722.25 559.856C714.429 562.457 709.809 565 712.906 565C715.588 565 726.515 561.778 730.19 559.903C737.752 556.045 733.783 556.022 722.25 559.856ZM272 558.351C272 558.543 274.25 560.1 277 561.809C283.19 565.657 283.557 565.167 277.57 561.048C273.427 558.198 272 557.507 272 558.351ZM686 563.024C664.942 569.55 647.168 576.411 650.303 576.803C654.818 577.368 665.592 574.135 683.056 566.977C708.94 556.367 709.377 555.78 686 563.024ZM207.466 560.447C199.966 561.613 188.472 564.805 189.19 565.523C189.365 565.698 193.107 564.933 197.504 563.822C203.949 562.194 208.895 561.791 223 561.742C238.723 561.688 241.472 561.942 250.078 564.24C260.876 567.123 269.689 571.236 278.5 577.504C284.266 581.605 294.603 591.778 298.312 597C299.978 599.346 299.976 599.292 298.294 596.134C295.078 590.1 284.007 579.132 275.154 573.211C257.172 561.182 232.573 556.544 207.466 560.447ZM883 562.104C861.738 569.778 810.822 586.162 803 587.846C797.775 588.971 788.325 590.374 782 590.965C753.343 593.638 748.806 594.275 737.713 597.185C730.513 599.073 724.247 601.389 721.611 603.134C718.075 605.476 703.858 622.214 700.489 628C699.449 629.786 699.564 629.705 709.459 621.645C713.287 618.527 718.237 615.108 720.459 614.046C728.053 610.42 743.991 607.114 759 606.051C767.589 605.443 777.78 603.999 784 602.51C789.775 601.127 800.223 599.311 807.217 598.475C827.178 596.09 833.156 593.861 862.049 578.033C882.557 566.799 891.577 563.308 896.061 564.871C898.864 565.849 899.078 565.799 897.944 564.432C894.666 560.483 889.656 559.702 883 562.104ZM205.466 564.375C196.192 565.9 188.54 568.255 181.651 571.706C175.573 574.75 176.086 575.734 182.314 572.979C200.586 564.897 232.669 563.82 254 570.574C274.078 576.931 293.135 592.989 302.736 611.638C304.784 615.617 306.611 618.723 306.794 618.539C306.978 618.355 305.463 614.896 303.428 610.852C291.161 586.474 273.478 572.22 247.737 565.96C237.021 563.354 216.382 562.58 205.466 564.375ZM701 566C698.708 567.255 698.121 567.931 699.3 567.958C701.126 568.001 707 565.343 707 564.474C707 563.486 704.373 564.154 701 566ZM284 566.313C284 566.485 285.462 567.948 287.25 569.563L290.5 572.5L287.563 569.25C284.825 566.221 284 565.54 284 566.313ZM883.981 569.308C879.845 571.114 872.42 574.764 867.481 577.42C832.187 596.395 827.405 598.289 810.5 599.985C804.45 600.592 793.65 602.445 786.5 604.103C778.449 605.97 768.361 607.476 760.001 608.06C744.3 609.157 742.055 609.489 732 612.205C719.617 615.55 716.881 617.408 688.627 641.663C657.648 668.257 640.997 675.87 612.423 676.502C598.158 676.817 594.35 678.012 584.644 685.218C580.204 688.514 580.24 688.509 589.848 684.532L596.195 681.905L626.245 681.97C654.29 682.032 656.567 681.903 660.397 680.044C666.882 676.896 671.279 672.732 681.357 660.196C696.783 641.006 706.876 632.592 720.713 627.384C730.532 623.688 737.333 622.355 760.5 619.585C781.74 617.046 807.493 612.659 822.937 608.95C835.376 605.963 842.18 602.209 854.5 591.536C872.302 576.114 882.569 572.193 892.526 577.012C895.891 578.642 897.903 580.933 903.091 589.047C906.616 594.559 910.093 599.841 910.818 600.784C913.138 603.803 911.305 597.582 905.789 583.714C900.682 570.872 897.197 565.983 893.173 566.012C892.253 566.019 888.116 567.502 883.981 569.308ZM203.5 569.046C189.056 571.282 170.163 579.442 161.785 587.065L157.5 590.963L165.8 586.047C191.101 571.063 228.096 567.757 256.099 577.977C267.719 582.218 278.19 589.095 288.037 598.953C296.916 607.843 302.712 617.219 306.456 628.75C308.258 634.299 309.489 635.895 308.384 631.25C306.99 625.386 300.79 611.257 297.313 606.02C286.278 589.4 267.517 576.083 248 571.017C238.328 568.506 213.961 567.426 203.5 569.046ZM688.5 571C687.505 572.1 686.964 573 687.298 573C688.695 573 693 570.614 693 569.839C693 568.291 690.328 568.98 688.5 571ZM716 572.137C712.975 573.842 706.9 577.201 702.5 579.602C698.1 582.003 694.87 583.974 695.321 583.983C696.966 584.017 722 570.826 722 569.926C722 568.7 722.276 568.599 716 572.137ZM642.5 573.559C639.2 574.303 633.35 574.961 629.5 575.02C623.692 575.109 622.926 575.302 625 576.154C628.409 577.554 642.095 576.384 649.516 574.058C654.825 572.394 655.105 572.184 652 572.194C650.075 572.2 645.8 572.814 642.5 573.559ZM699 574.097C694.135 575.822 686.965 581.03 689.523 580.981C690.06 580.971 694.55 578.971 699.5 576.537C708.831 571.949 708.575 570.701 699 574.097ZM938.563 577C939.413 579.475 942.319 590.5 945.022 601.5C950.849 625.217 953.331 631.907 959.52 640.58C967.24 651.398 979.215 659 988.538 659H992V648L986.75 647.978C980.153 647.95 974.027 645.226 970.74 640.859C969.35 639.011 965.642 631.425 962.5 624C956.075 608.821 940.967 577.554 938.58 574.5C937.162 572.685 937.16 572.916 938.563 577ZM204.983 575.026C193.647 576.354 184.831 578.999 173.5 584.472C167.45 587.393 160.475 591.626 158 593.878L153.5 597.973L160.474 593.473C168.523 588.279 179.373 583.874 191.793 580.757C199.126 578.917 203.34 578.57 218.5 578.561C234.989 578.55 237.315 578.775 246.211 581.24C262.872 585.858 275.469 593.394 287.053 605.674C290.63 609.465 294.766 614.631 296.245 617.154C302.073 627.1 308.1 644.197 313.026 664.76C321.396 699.697 324.097 706.648 330.486 709.695C333.561 711.161 334.338 711.153 340.165 709.595C374.191 700.499 391.678 697.378 427.5 694.007C456.379 691.289 475.102 689.224 482.5 687.94C492.621 686.183 510.362 681.204 523.59 676.409C530.516 673.898 545.479 669.454 556.841 666.532C584.831 659.334 588.042 658.356 599 653.686C608.939 649.449 622.777 641.723 627.017 638.042L629.5 635.887L627 637.091C625.625 637.754 621.011 640.524 616.746 643.247C612.482 645.969 605.957 649.458 602.246 651C595.324 653.876 593.067 654.458 565.36 660.503C556.484 662.439 542.284 666.233 533.806 668.934C506.886 677.509 497.919 679.216 470.5 680.988C445.033 682.634 431.896 684.342 381.513 692.557C355.966 696.722 334.323 699.791 332.819 699.46C328.949 698.61 323.604 692.227 321.03 685.381C319.814 682.146 317.245 673.65 315.322 666.5C307.982 639.22 304.716 629.167 299.906 619.057C295.503 609.801 293.944 607.64 286.197 600.057C264.88 579.189 238.597 571.089 204.983 575.026ZM681.696 577.978C676.454 581.302 675.654 582.462 679.651 580.943C683.486 579.485 688 576.696 688 575.784C688 574.407 686.508 574.926 681.696 577.978ZM706.234 580.524C691.282 587.773 661.172 608 665.333 608C665.976 608 681.503 598.551 687.871 594.284C689.726 593.041 696.926 589.1 703.871 585.526C716.398 579.08 720 576.872 720 575.64C720 574.237 717.02 575.294 706.234 580.524ZM204.5 580.656C193.32 581.983 177.614 586.108 175.5 588.271C174.821 588.965 175.143 589.059 176.5 588.562C182.656 586.307 194.659 583.871 204.558 582.867C217.177 581.588 234.501 582.737 246 585.615C265.95 590.61 285.836 605.371 295.685 622.495C300.259 630.448 301.356 630.31 297.07 622.32C288.001 605.416 270.416 591.101 250.707 584.58C239.759 580.958 217.72 579.086 204.5 580.656ZM200.208 585.071C189.653 586.442 177.91 589.84 169.5 593.958C161.76 597.747 148 608.028 148 610.022C148 611.486 148.501 611.294 154.231 607.633C162.441 602.386 176.828 595.441 184.202 593.164C199.35 588.487 225.253 587.957 241.288 591.995C261.032 596.966 277.308 607.388 288.587 622.281C294.384 629.935 302.04 645.59 305.672 657.219C308.808 667.259 309.864 668.203 307.508 658.861C299.733 628.019 289.225 611.424 268.877 597.851C252.334 586.816 225.385 581.801 200.208 585.071ZM686.11 588.498C682.75 590.972 680 593.277 680 593.62C680 593.963 681.013 593.497 682.25 592.585C683.487 591.672 686.638 589.525 689.25 587.813C691.862 586.101 694 584.543 694 584.351C694 583.215 691.504 584.527 686.11 588.498ZM711 584.791C710.175 585.076 706.347 587.429 702.494 590.02C698.641 592.612 691.216 597.088 685.994 599.969C674.575 606.268 672.638 607.873 679.88 605.035C695.532 598.901 715.322 586.543 712.774 584.494C712.623 584.373 711.825 584.507 711 584.791ZM912.044 588.23C912.02 588.631 912.643 590.656 913.428 592.73C914.213 594.803 918.979 608.2 924.018 622.5C929.058 636.8 935.824 653.9 939.055 660.5C945.912 674.507 955.756 688.06 964.147 695.043C969.863 699.8 983.546 707.161 989.25 708.548C991.861 709.183 992 709.037 992 705.647C992 702.226 991.791 702.015 986.98 700.587C978.57 698.089 969.874 692.842 962.388 685.748C949.477 673.513 942.511 660.935 926.331 620.655C916.777 596.867 912.156 586.381 912.044 588.23ZM191.5 595.609C187.1 596.396 181.925 597.543 180 598.158C175.248 599.678 161.303 606.701 160.518 607.97C159.818 609.104 160.937 608.738 170.545 604.693C196.739 593.664 231.818 593.789 255.736 604.998C271.233 612.26 282.708 622.173 290.538 635.063C292.561 638.393 294.439 640.894 294.712 640.621C294.985 640.349 292.694 636.27 289.622 631.557C276.952 612.119 257.919 599.437 235.564 595.539C224.589 593.625 202.404 593.66 191.5 595.609ZM700.926 596.912C698.41 598.492 690.985 602.133 684.426 605.003C663.899 613.984 658.961 616.295 659.388 616.722C659.616 616.949 666.937 614.226 675.656 610.671C690.908 604.452 702.607 598.384 705.072 595.413C706.719 593.429 706.131 593.641 700.926 596.912ZM158.5 597.588L155.5 600.165L158.75 598.015C160.537 596.832 162 595.669 162 595.432C162 594.683 161.577 594.944 158.5 597.588ZM200.058 599.062C178.907 601.682 141.783 617.116 146.143 621.476C146.457 621.791 151.616 619.839 157.607 617.14C180.234 606.945 192.806 604.429 216.9 605.271C229.612 605.716 234.166 606.298 241.5 608.418C271.84 617.189 290.431 635.867 301.623 668.825C305.569 680.448 305.848 677.232 301.975 664.759C297.834 651.422 294.406 643.978 288.222 634.896C275.977 616.91 257.349 604.579 236.5 600.657C225.842 598.652 209.233 597.925 200.058 599.062ZM700.444 601.401C698.555 602.725 689.385 606.751 671.698 614.022C667.407 615.786 664.079 617.412 664.301 617.635C664.972 618.305 677.749 615.077 684.538 612.522C691.224 610.005 700.552 604.482 702.872 601.666C704.545 599.636 703.177 599.487 700.444 601.401ZM132.5 609.204C99.428 627.261 79.067 649.399 60.488 687.5C52.831 703.203 40.61 734.642 39.498 741.5L38.849 745.5L41.376 740.255C42.766 737.371 45.02 731.914 46.385 728.13C50.62 716.389 54.558 708.527 61.311 698.327C70.761 684.054 77.852 675.957 107.64 645.421C122.918 629.76 136.419 614.993 139.205 610.897C141.882 606.96 143.943 603.617 143.786 603.469C143.629 603.32 138.55 605.901 132.5 609.204ZM194.5 607.642C186.714 608.867 174.231 612.264 166.974 615.132C162.568 616.873 159.1 618.433 159.266 618.599C159.432 618.765 164.278 617.414 170.034 615.596C186.688 610.336 192.612 609.498 213 609.517C229.268 609.532 232.526 609.817 240 611.872C250.238 614.688 264.654 621.424 271.5 626.591C274.25 628.666 275.616 629.352 274.535 628.116C271.728 624.904 260.188 617.415 253.461 614.441C242.463 609.576 232.904 607.876 214.5 607.509C205.15 607.322 196.15 607.382 194.5 607.642ZM698.5 609.059C693.052 612.774 684.616 616.692 676.359 619.344C665.133 622.95 645.773 631.732 635.029 638.093C630.099 641.011 626.248 643.582 626.472 643.805C626.695 644.029 632.214 641.733 638.736 638.704C645.258 635.675 655.073 631.751 660.547 629.984C680.739 623.467 685.293 621.652 690.97 617.861C694.162 615.73 697.972 612.414 699.438 610.493C702.542 606.423 702.488 606.34 698.5 609.059ZM314.034 610.259C313.976 611.569 323.025 632.299 325.551 636.645C326.876 638.924 329.41 642.009 331.182 643.499C335.807 647.391 339.601 646.542 357.46 637.621C373.886 629.415 382.969 626.593 398 625.025C417.81 622.959 434.749 624.319 458 629.842C464.875 631.474 475 633.551 480.5 634.456C486 635.361 495.135 636.979 500.801 638.051C506.466 639.123 515.016 640 519.801 640C528.278 640 533.068 639.287 553.323 635.009C559.571 633.69 569.877 632.621 581.635 632.072C591.804 631.598 600.434 630.882 600.812 630.483C601.19 630.083 593.4 629.981 583.5 630.255C568.435 630.673 563.625 631.205 554 633.518C531.943 638.818 512.634 636.892 463.5 624.49C434.549 617.182 422.903 615.457 408.471 616.34C386.369 617.693 368.211 622.723 351.967 631.993C343.885 636.606 340.561 637.971 337.379 637.983C331.174 638.008 326.176 632.987 319.48 620C316.503 614.225 314.052 609.842 314.034 610.259ZM189 612.606C167.935 616.426 132.497 631.83 136.216 635.55C136.471 635.805 141.136 633.931 146.583 631.385C158.828 625.663 173.881 620.674 186.906 618.019C199.349 615.484 225.08 615.203 235.927 617.485C259.658 622.477 281.305 637.711 292.281 657.145C298.104 667.455 298.374 666.494 292.864 655.073C289.493 648.086 287.134 644.916 280.114 637.939C266.827 624.735 254.602 617.641 237.871 613.429C228.544 611.082 200.055 610.602 189 612.606ZM647.8 617.342C642.466 620.693 638.294 623.627 638.531 623.864C639.282 624.615 651.363 618.095 654.937 615.009C660.674 610.056 658.019 610.924 647.8 617.342ZM700.083 618.583C695.781 626.559 695.199 629.337 698.928 624.102C701.527 620.451 705.349 612.016 704.698 611.365C704.441 611.107 702.364 614.355 700.083 618.583ZM197.845 618.073C183.664 619.821 158.171 627.547 148 633.179C143.901 635.449 145 635.109 158.936 629.792C206.027 611.828 249.508 616.977 278.461 643.947C282.393 647.61 283.457 648.309 281.588 646C272.732 635.064 253.782 623.759 238.11 620.061C228.129 617.706 208.632 616.743 197.845 618.073ZM920 619.864C920 620.522 922.295 627.46 925.101 635.28C927.906 643.101 931.788 654 933.728 659.5C935.667 665 939.863 674.944 943.053 681.598C947.938 691.791 949.947 694.805 955.802 700.73C963.531 708.552 973.318 714.807 982.718 717.932C991.64 720.899 992 720.805 992 715.5C992 711.886 991.656 710.998 990.25 710.988C989.288 710.981 985.112 709.496 980.972 707.688C956.761 697.117 941.766 677.055 926.269 634.5C920.809 619.506 920 617.617 920 619.864ZM142.729 620.604C142.328 621.005 142 622.023 142 622.867C142 623.992 142.296 624.104 143.113 623.287C143.724 622.676 144.053 621.657 143.842 621.025C143.631 620.393 143.13 620.203 142.729 620.604ZM307.086 620.5C307.19 622.394 308.856 625.584 308.914 624C308.945 623.175 308.533 621.825 308 621C307.467 620.175 307.055 619.95 307.086 620.5ZM689.491 624.699C681.456 630.8 673.706 634.235 659.454 638.012C641.755 642.703 624.459 648.589 618.382 651.989C615.422 653.645 610.413 656.434 607.25 658.187C604.087 659.94 598.807 663.54 595.515 666.187C584.439 675.092 570.028 681.423 535.908 692.368C522.245 696.751 502.73 704.32 477.908 714.864C424.263 737.653 413.655 741.089 357.5 753.87C327.908 760.606 329.12 760.451 325.182 758.006C321.667 755.825 319.107 751.071 316.501 741.891L314.971 736.5L315.561 743C316.852 757.233 321.108 769.649 325.501 772C332.678 775.842 389.099 763.226 420.468 750.765C427.636 747.918 449.025 737.876 468 728.45C504.767 710.185 518.792 704.099 544.319 695.329C570.247 686.422 579.699 681.471 595.36 668.595C608.52 657.775 617.693 653.916 643.102 648.507C667.199 643.378 675.546 640.169 685.726 632.123C690.678 628.208 696.689 621.356 695.881 620.547C695.662 620.329 692.787 622.197 689.491 624.699ZM199.5 622.1C180.792 624.05 158.737 630.536 140.5 639.452C128.322 645.405 125.273 648.006 136.5 642.863C163.1 630.679 190.744 625.132 219 626.308C244.77 627.381 262.677 634.808 278.959 651.174C285.293 657.539 288.053 661.291 293.18 670.5C296.955 677.281 296.743 675.416 292.863 667.721C279.691 641.596 255.955 625.446 225.784 622.082C215 620.88 211.182 620.882 199.5 622.1ZM653 623.828C645.831 626.425 635.542 632.437 632.977 635.528C632.048 636.647 662.04 622.898 663.917 621.345C665.346 620.162 659.369 621.522 653 623.828ZM133.605 627.042C131.622 628.783 130 630.636 130 631.16C130 632.571 136.016 628.798 137.17 626.664C138.845 623.566 137.388 623.721 133.605 627.042ZM192 629.055C171.18 631.63 152.19 637.351 133.303 646.737C121.316 652.694 112.648 658.982 114.235 660.569C114.565 660.898 117.346 659.561 120.416 657.597C139.712 645.253 163.932 636.908 190.301 633.517C219.785 629.726 242.291 632.842 261 643.306C270.704 648.733 285.304 663.015 290.332 672C292.332 675.575 293.976 677.816 293.985 676.979C294.011 674.351 285.349 660.543 280.005 654.696C270.274 644.049 254.702 634.686 240.471 630.925C231.257 628.49 204.819 627.47 192 629.055ZM313.005 630.25C313.008 630.388 315.275 637.025 318.042 645C323.702 661.312 327.002 667.411 331.982 670.767C336.166 673.587 335.206 673.772 363 664.777C392.701 655.164 393.99 654.925 419.5 654.308C437.189 653.881 446.594 654.211 467.5 655.993C486.295 657.595 498.072 658.084 510 657.756C526.056 657.316 526.845 657.191 539.313 653.147C551.17 649.301 567.59 645.963 589.306 642.985C604.451 640.908 598.155 640.888 578.718 642.951C565.97 644.304 555.651 646.068 545.89 648.563C518.971 655.444 506.788 655.073 459 645.912C443.746 642.988 428.394 642.526 408.5 644.392C389.08 646.213 381.62 648.063 358.5 656.792C349.7 660.114 340.867 663.135 338.871 663.505C334.798 664.26 330.842 662.659 327.357 658.845C324.788 656.033 319.208 644.888 316.045 636.25C314.168 631.124 312.974 628.767 313.005 630.25ZM666 633.5C664.075 634.241 663.175 634.862 664 634.879C664.825 634.896 666.85 634.292 668.5 633.536C672.362 631.768 670.566 631.742 666 633.5ZM683.158 636.103C675.378 641.619 665.407 645.396 649 649.042C641.025 650.814 633.6 652.626 632.5 653.069C629.061 654.452 638.654 654.129 648.5 652.53C658.969 650.83 666.757 648.313 674.775 644.039C680.618 640.924 689.904 633.561 689 632.759C688.725 632.515 686.096 634.02 683.158 636.103ZM123.899 640.882C121.479 643.037 119.807 645.115 120.182 645.499C120.558 645.884 122.805 644.388 125.176 642.176C130.794 636.937 129.64 635.768 123.899 640.882ZM590 644.57C558.988 649.589 552.704 650.91 539.055 655.28C526.765 659.214 526.127 659.309 508.811 659.76C495.598 660.104 484.589 659.654 465.311 657.983C436.245 655.463 404.586 655.625 391.436 658.36C387.551 659.168 373.972 663.242 361.261 667.414C348.549 671.587 337.621 675 336.975 675C333.967 675 328.693 671.347 325.623 667.137C323.763 664.587 320.627 658.225 318.655 653C314.246 641.316 314.018 642.435 318.046 655.994C323.226 673.428 328.364 682.711 333.787 684.433C334.806 684.756 347.983 682.051 363.069 678.422C413.319 666.334 425.516 664.937 462.629 667.018C492.561 668.697 502.786 668.083 520 663.577C527.425 661.634 539.35 658.505 546.5 656.625C553.65 654.745 567.622 651.824 577.549 650.133C594.974 647.165 608.477 643.789 610.45 641.906C610.972 641.408 611.197 641.057 610.95 641.126C610.702 641.195 601.275 642.745 590 644.57ZM311.039 642.635C311.018 643.26 311.657 645.285 312.461 647.135C313.264 648.986 313.939 649.989 313.961 649.365C313.982 648.74 313.343 646.715 312.539 644.865C311.736 643.014 311.061 642.011 311.039 642.635ZM592.5 649.005C585.9 650.527 573.525 652.998 565 654.497C556.475 655.995 542.918 659.197 534.873 661.614C508.075 669.662 502.688 670.405 478.5 669.387C449.878 668.182 424.31 668.372 413.5 669.868C400.899 671.612 393.284 673.218 362.773 680.565C348.073 684.104 335.376 687 334.558 687C331.894 687 325.93 680.804 322.992 674.984C321.412 671.855 318.889 665.182 317.384 660.156C315.88 655.13 314.481 651.186 314.275 651.391C313.768 651.899 316.477 663.545 319.652 674.5C324.542 691.373 329.993 698.687 336.951 697.712C338.903 697.438 358.5 694.249 380.5 690.625C429.042 682.629 446.033 680.413 469.5 679.017C496.782 677.394 506.204 675.622 533.55 666.97C545.796 663.096 563.871 658.519 578.692 655.539C591.591 652.946 607 648.018 607 646.487C607 645.747 605.488 646.01 592.5 649.005ZM671.02 651.161C659.154 657.965 644.825 662.628 614.5 669.557C601.128 672.613 592 675.847 592 677.531C592 677.733 593.462 677.304 595.25 676.579C597.109 675.824 604.704 675.008 613 674.672C629.176 674.016 637.43 672.172 649.816 666.449C657.887 662.72 672.349 653.482 675.41 650.1C677.904 647.344 677.511 647.439 671.02 651.161ZM645.5 657.651C625.891 662.745 610.488 667.329 611.664 667.721C613.983 668.494 654.547 657.539 659 654.937C661.198 653.653 659.836 653.927 645.5 657.651ZM616.89 657.47C610.9 659.674 596.254 669.587 597.357 670.69C597.604 670.937 599.537 670.27 601.653 669.208C606.503 666.773 621.903 661.738 633 658.959C637.675 657.789 641.688 656.644 641.917 656.416C643.016 655.32 620.11 656.285 616.89 657.47ZM597 659.009C590.451 662.612 577.728 667.133 563.098 671.058C555.069 673.211 543.325 676.582 537 678.549C499.911 690.079 450.468 701.446 378.755 714.927C364.045 717.692 348.445 720.865 344.088 721.977C334.626 724.393 332.788 724.459 329.029 722.515C324.978 720.42 322.129 715.999 318.787 706.622L315.893 698.5L316.559 704C317.539 712.091 321.663 727.736 323.769 731.354C327.218 737.277 329.584 737.566 341.227 733.492C356.721 728.071 376.511 722.645 397.571 718.043C471.814 701.819 495.483 696.094 522.5 687.827C533.5 684.46 547 680.417 552.5 678.842C574.856 672.438 593.146 664.855 600 659.148C603.129 656.543 601.612 656.472 597 659.009ZM560.5 667.492C548.95 670.419 532.525 675.264 524 678.259C515.475 681.255 505.456 684.515 501.736 685.505C498.015 686.495 495.163 687.497 495.398 687.731C495.969 688.303 515.392 683.144 537.5 676.549C547.4 673.596 561.091 669.543 567.925 667.542C579.034 664.289 585.287 661.961 582.5 662.117C581.95 662.147 572.05 664.566 560.5 667.492ZM90.316 677.25C86.707 681.063 84.473 685 85.919 685C87.009 685 94 676.224 94 674.856C94 673.519 93.603 673.777 90.316 677.25ZM76.295 681.25C61.073 700.074 55.951 709.091 45.589 735.308C38.483 753.289 36.637 761.366 33.515 788.135C32.657 795.486 31.325 804.196 30.553 807.492C29.781 810.787 29.292 813.626 29.466 813.799C29.639 813.973 30.996 810.936 32.481 807.051C37.459 794.024 41.977 775.723 43.481 762.5C45.662 743.325 49.086 732.761 60.492 710.008C67.025 696.978 71.36 689.772 78.694 679.75C83.622 673.017 82.269 673.863 76.295 681.25ZM559 680.703C553.225 682.572 534.325 688.975 517 694.931C463.53 713.313 432.295 722.57 383.904 734.376C369.382 737.918 351.889 742.433 345.032 744.409C338.174 746.384 331.337 748 329.837 748C325.725 748 322.182 744.226 319.509 737C317.406 731.317 317.098 730.913 317.052 733.785C316.961 739.505 321.946 752.777 325.22 755.531C326.833 756.889 328.768 758 329.519 758C331.516 758 376.881 747.571 395.5 742.832C420.912 736.363 437.212 730.278 489.5 707.74C508.002 699.765 522.43 694.426 540 689.054C553.28 684.993 572 678.174 572 677.397C572 676.665 569.558 677.286 559 680.703ZM88.199 689.75C87.134 691.263 85.922 693.625 85.507 695C84.543 698.19 85.064 697.614 88.449 691.75C91.44 686.566 91.29 685.362 88.199 689.75ZM82.437 691.25C79.738 694.451 77.913 698.088 76.541 703C75.877 705.378 81.287 697.213 84.527 690.947C86.507 687.119 85.839 687.215 82.437 691.25ZM487 689.056C481.088 690.493 470.596 691.789 443 694.491C390.691 699.61 371.201 702.782 343.734 710.643C337.958 712.296 333.931 712.924 331.925 712.484C327.244 711.455 322.598 706.072 319.971 698.632C318.689 694.999 317.458 692.208 317.236 692.43C316.481 693.185 321.017 708.101 323.48 712.961C327.536 720.964 332.664 723.599 339.286 721.081C342.371 719.909 359.446 716.42 393.5 710.004C431.118 702.916 492.632 689.691 493.917 688.414C494.563 687.772 490.873 688.114 487 689.056ZM568.513 690.19C563.142 693.02 540.472 702.048 530.163 705.462C518.684 709.263 487.245 725.119 471.254 735.172C463.969 739.753 451.192 748.225 442.859 754C416.968 771.945 402.562 779.348 383 784.759C374.375 787.146 371.797 787.393 355 787.444C332.181 787.513 327.479 786.546 322.529 780.763C320.63 778.544 318.42 774.878 317.617 772.615C315.796 767.479 315.518 770.629 317.124 778.201C318.451 784.453 321.939 791.736 324.879 794.393C330.156 799.162 353.848 801.401 369.695 798.628C392.896 794.568 409.843 785.043 450.17 753.392C474.389 734.384 499.098 720.656 531 708.484C549.053 701.596 566.619 693.489 571 690.023C574.181 687.506 573.522 687.55 568.513 690.19ZM508.5 693.988C496.896 697.552 447.276 709.428 416.5 716.008C380.975 723.603 366.393 727.317 347.411 733.604C327.484 740.204 326.493 740.122 321.773 731.488C318.566 725.62 318.175 727.702 320.983 735.693C323.294 742.267 326.419 746 329.61 746C330.854 746 340.789 743.574 351.686 740.609C362.584 737.644 381.924 732.679 394.665 729.577C429.81 721.019 501.491 699.336 517.203 692.511C522.336 690.281 518.392 690.95 508.5 693.988ZM71.5 699C70.594 700.752 70.064 702.397 70.322 702.655C70.58 702.913 71.515 701.674 72.4 699.9C73.285 698.126 73.815 696.482 73.578 696.245C73.341 696.008 72.406 697.248 71.5 699ZM534 701C533.175 701.533 532.95 701.969 533.5 701.969C534.05 701.969 535.175 701.533 536 701C536.825 700.467 537.05 700.031 536.5 700.031C535.95 700.031 534.825 700.467 534 701ZM513.68 708.997C506.079 712.265 484.929 722.331 466.68 731.367C430.445 749.309 420.125 753.752 400.5 759.858C377.759 766.934 347.906 773.563 333.737 774.684L325.974 775.298L321.866 770.98C318.502 767.444 317.887 767.1 318.471 769.081C320.03 774.365 323.355 780.186 325.686 781.714C331.785 785.71 358.213 787.292 373.5 784.576C395.534 780.661 409.461 773.969 444.5 750.462C479.569 726.934 496.662 717.139 518.534 708.037C523.963 705.777 528.614 703.719 528.869 703.464C530.166 702.167 526.247 703.595 513.68 708.997ZM552 704.434C550.625 705.179 540.725 709.255 530 713.491C504.041 723.746 490.78 730.249 477.29 739.337C463.012 748.957 459.265 751.925 438.13 770.354C417.289 788.527 406.667 796.359 394 802.894C377.026 811.652 362.574 814.575 344.765 812.852C327.668 811.199 322.634 808.542 317.491 798.454L314.965 793.5L315.602 798C316.395 803.604 319.657 812.607 322.22 816.265C324.811 819.963 328.094 821.525 337.245 823.416C357.367 827.572 376.523 823.329 396.088 810.382C407.006 803.158 411.771 799.048 433.477 778.134C469.453 743.469 482.259 734.676 515.032 722.137C530.754 716.121 550.087 707.454 554.186 704.582C556.931 702.66 555.46 702.56 552 704.434ZM957.984 707.558C963.68 715.01 969.114 720.668 974.372 724.621C980.412 729.161 988.974 734 990.967 734C991.56 734 992 731.512 992 728.159V722.318L986.635 721.118C980.224 719.683 968.122 714.036 963.106 710.138C961.123 708.597 958.825 706.949 958 706.476C956.671 705.714 956.669 705.837 957.984 707.558ZM74.267 715.162C73.072 718.098 71.835 721.85 71.518 723.5C71.202 725.15 72.307 723.129 73.974 719.009C75.642 714.889 76.879 711.136 76.723 710.67C76.568 710.205 75.463 712.226 74.267 715.162ZM546 711.438C544.625 712.185 533.6 716.704 521.5 721.482C509.4 726.259 496.125 731.997 492 734.232C483.982 738.578 473 745.73 473 746.605C473 746.897 474.353 746.173 476.006 744.996C480.041 742.122 498.341 733.542 515.5 726.478C529.789 720.596 546.741 712.595 548.45 710.927C549.746 709.662 548.973 709.823 546 711.438ZM61.207 727.566C57.262 738.679 54.725 748.335 52.029 762.5C50.878 768.55 49.767 774.288 49.562 775.25C49.356 776.212 49.502 777 49.888 777C50.273 777 51.869 771.712 53.435 765.25C55.001 758.788 58.25 746.094 60.655 737.043C63.061 727.991 64.882 720.146 64.703 719.609C64.524 719.072 62.951 722.653 61.207 727.566ZM65.068 734.656C62.875 742.475 58.84 763.019 59.258 764.239C59.711 765.563 61.804 756.954 64.905 741C66.835 731.075 66.911 728.083 65.068 734.656ZM53.171 740.273C50.515 747.372 47.978 759.817 48.087 765.208C48.152 768.4 48.889 766.169 50.961 756.5C52.494 749.35 54.243 741.725 54.847 739.556C56.487 733.671 55.48 734.102 53.171 740.273ZM71.079 735.668C71.036 736.311 70.741 737.661 70.424 738.668C69.877 740.409 69.906 740.412 70.995 738.712C71.626 737.729 71.92 736.379 71.65 735.712C71.295 734.837 71.136 734.825 71.079 735.668ZM446.261 758.947C438.656 765.075 423.562 776.22 415.251 781.845C396.812 794.323 373.897 802 355.093 802C347.161 802 332.769 800.337 328.3 798.904C324.359 797.64 319.615 792.394 318.006 787.519C316.245 782.181 315.569 784.02 317.023 790.196C318.605 796.917 321.275 802.247 324.609 805.338C330.539 810.836 356.167 813.175 371.329 809.602C391.306 804.893 406.536 795.308 437.95 767.67C454.275 753.307 453.517 754 452.9 754C452.625 754 449.637 756.226 446.261 758.947ZM436.536 778.153C415.205 798.546 408.97 803.935 398.669 810.885C377.939 824.87 359.203 829.437 338.5 825.554C327.228 823.44 322.108 820.564 318.921 814.557C317.591 812.051 316.223 810 315.881 810C314.82 810 316.824 818.72 319.101 824.013C321.863 830.433 325.504 833.458 333.413 835.9C353.687 842.162 374.316 837.512 394.684 822.088C401.919 816.609 417.31 801.458 437.953 779.494C442.603 774.547 448.662 768.138 451.419 765.25C460.796 755.429 455.541 759.985 436.536 778.153ZM62.019 777.398C61.346 780.966 60.985 784.455 61.217 785.15C61.449 785.846 62.184 783.111 62.851 779.073C64.361 769.93 63.685 768.569 62.019 777.398ZM50.011 788.187C47.629 798.285 46.271 817.414 47.494 823.628C48.213 827.278 48.302 827.357 49.059 825C50.042 821.935 53.383 780.05 52.699 779.365C52.429 779.096 51.219 783.065 50.011 788.187ZM61.157 895.572C59.932 901.674 59.815 913.233 60.871 924C61.491 930.318 61.55 930.43 63.004 928C64.168 926.056 64.496 921.944 64.484 909.5C64.465 891.37 63.127 885.765 61.157 895.572ZM67.03 913.601C66.998 922.139 65.893 926.777 62.847 931.154C61.803 932.655 61.018 935.48 61.041 937.654L61.081 941.5L63.935 938.165C67.834 933.607 69.532 927.039 69.329 917.303C69.091 905.892 67.072 902.64 67.03 913.601ZM52.079 915.583C52.127 916.748 52.364 916.985 52.683 916.188C52.972 915.466 52.936 914.603 52.604 914.271C52.272 913.939 52.036 914.529 52.079 915.583ZM52.195 921.5C52.215 923.15 52.439 923.704 52.693 922.731C52.947 921.758 52.93 920.408 52.656 919.731C52.382 919.054 52.175 919.85 52.195 921.5ZM43.398 937.75C45.435 941.615 47.756 944.587 48.278 943.998C48.52 943.724 49.013 942.271 49.374 940.769C49.958 938.334 49.636 937.875 46.392 936.519C41.675 934.548 41.704 934.536 43.398 937.75ZM51.232 941C51.232 942.925 51.438 943.712 51.689 942.75C51.941 941.788 51.941 940.212 51.689 939.25C51.438 938.288 51.232 939.075 51.232 941ZM47 948.441C47 949.298 47.45 950 48 950C48.55 950 49 949.577 49 949.059C49 948.541 48.55 947.84 48 947.5C47.45 947.16 47 947.584 47 948.441ZM57.232 950C57.232 951.925 57.438 952.712 57.689 951.75C57.941 950.788 57.941 949.212 57.689 948.25C57.438 947.288 57.232 948.075 57.232 950ZM50.75 948.577C50.337 948.993 50 950.248 50 951.367C50 952.838 50.302 953.098 51.094 952.306C51.695 951.705 52.033 950.449 51.844 949.517C51.655 948.584 51.163 948.161 50.75 948.577ZM51 963C51 964.65 51.174 966 51.387 966C51.599 966 51.971 964.65 52.213 963C52.455 961.35 52.282 960 51.827 960C51.372 960 51 961.35 51 963ZM44.41 971.538C42.751 974.618 42.697 975.195 43.994 975.996C45.979 977.223 46.951 976.076 47.667 971.664C48.426 966.987 46.892 966.928 44.41 971.538ZM40.25 979.496C38.665 981.296 38.668 982 40.259 982C40.952 982 42.081 981.1 42.768 980C43.769 978.398 43.767 978.008 42.758 978.038C42.066 978.059 40.938 978.715 40.25 979.496ZM37.5 984C37.16 984.55 37.332 985 37.882 985C38.432 985 39.16 984.55 39.5 984C39.84 983.45 39.668 983 39.118 983C38.568 983 37.84 983.45 37.5 984ZM30.807 986.75C27.599 990.486 27.816 991.242 31.329 988.563C33.348 987.023 35 985.591 35 985.381C35 984.288 32.111 985.231 30.807 986.75ZM31.405 994.25L29.5 996.5L31.75 994.595C33.864 992.805 34.455 992 33.655 992C33.465 992 32.453 993.013 31.405 994.25ZM17.75 1000.16C16.238 1000.71 15 1001.63 15 1002.19C15 1003.48 19.604 1002.39 22.391 1000.44C24.392 999.037 24.394 999.002 22.473 999.079C21.388 999.122 19.262 999.61 17.75 1000.16Z" fill="#1D1D1D"/>
</svg>
